<svg xmlns="http://www.w3.org/2000/svg" version="1.1" viewBox="-5.0 -10.0 110.0 135.0">
 <path d="m31.25 6.25c-1.1523 0-2.082 0.93359-2.082 2.082v4.168h-2.0859c-1.1484 0-2.082 0.93359-2.082 2.082v77.086c0 1.1484 0.93359 2.082 2.082 2.082h45.836c1.1484 0 2.082-0.93359 2.082-2.082v-77.086c0-1.1484-0.93359-2.082-2.082-2.082h-4.9648l0.57812-1.1523c0.14453-0.28906 0.21875-0.60938 0.21875-0.92969v-2.0859c0-1.1484-0.93359-2.082-2.082-2.082h-8.3359c-1.1484 0-2.082 0.93359-2.082 2.082v2.0859c0 0.32031 0.074219 0.64062 0.21875 0.92969l0.57812 1.1523h-11.215v-4.168c0-1.1484-0.92969-2.082-2.082-2.082zm2.082 4.168h8.3359v2.082h-8.3359zm27.328 0h3.6758l-1.043 2.082h-1.5898zm1.8398 10.414c0.55078 0 1.082 0.22266 1.4727 0.61328 0.39062 0.39063 0.60938 0.91797 0.60938 1.4727v2.082h2.0859c0.55078 0 1.082 0.21875 1.4727 0.60938s0.60938 0.92188 0.60938 1.4727c0 0.55469-0.21875 1.082-0.60938 1.4727-0.39062 0.39062-0.92188 0.61328-1.4727 0.61328h-2.0859v2.082c0 0.55078-0.21875 1.082-0.60938 1.4727s-0.92188 0.60938-1.4727 0.60938c-1.1523 0-2.082-0.92969-2.082-2.082v-2.082h-2.0859c-1.1484 0-2.082-0.93359-2.082-2.0859 0-1.1484 0.93359-2.082 2.082-2.082h2.0859v-2.082c0-1.1523 0.92969-2.0859 2.082-2.0859zm-29.168 4.168h8.3359c0.55078 0 1.082 0.21875 1.4727 0.60938s0.60938 0.92188 0.60938 1.4727c0 0.55469-0.21875 1.082-0.60938 1.4727-0.39062 0.39062-0.92188 0.61328-1.4727 0.61328h-8.3359c-1.1484 0-2.082-0.93359-2.082-2.0859 0-1.1484 0.93359-2.082 2.082-2.082zm-4.1641 16.668h41.664v47.914h-41.664z"/>
<text x="0.0" y="117.5" font-size="5.0" font-weight="bold" font-family="Arbeit Regular, Helvetica, Arial-Unicode, Arial, Sans-serif" fill="#000000">Created by Dedy Dwi Qoirudin</text><text x="0.0" y="122.5" font-size="5.0" font-weight="bold" font-family="Arbeit Regular, Helvetica, Arial-Unicode, Arial, Sans-serif" fill="#000000">from Noun Project</text></svg>