%TF.GenerationSoftware,KiCad,Pcbnew,9.0.1*%
%TF.CreationDate,2025-05-09T23:00:38+01:00*%
%TF.ProjectId,aom-preamp,616f6d2d-7072-4656-916d-702e6b696361,rev?*%
%TF.SameCoordinates,Original*%
%TF.FileFunction,Soldermask,Top*%
%TF.FilePolarity,Negative*%
%FSLAX46Y46*%
G04 Gerber Fmt 4.6, Leading zero omitted, Abs format (unit mm)*
G04 Created by KiCad (PCBNEW 9.0.1) date 2025-05-09 23:00:38*
%MOMM*%
%LPD*%
G01*
G04 APERTURE LIST*
G04 Aperture macros list*
%AMRoundRect*
0 Rectangle with rounded corners*
0 $1 Rounding radius*
0 $2 $3 $4 $5 $6 $7 $8 $9 X,Y pos of 4 corners*
0 Add a 4 corners polygon primitive as box body*
4,1,4,$2,$3,$4,$5,$6,$7,$8,$9,$2,$3,0*
0 Add four circle primitives for the rounded corners*
1,1,$1+$1,$2,$3*
1,1,$1+$1,$4,$5*
1,1,$1+$1,$6,$7*
1,1,$1+$1,$8,$9*
0 Add four rect primitives between the rounded corners*
20,1,$1+$1,$2,$3,$4,$5,0*
20,1,$1+$1,$4,$5,$6,$7,0*
20,1,$1+$1,$6,$7,$8,$9,0*
20,1,$1+$1,$8,$9,$2,$3,0*%
%AMFreePoly0*
4,1,23,0.500000,-0.750000,0.000000,-0.750000,0.000000,-0.745722,-0.065263,-0.745722,-0.191342,-0.711940,-0.304381,-0.646677,-0.396677,-0.554381,-0.461940,-0.441342,-0.495722,-0.315263,-0.495722,-0.250000,-0.500000,-0.250000,-0.500000,0.250000,-0.495722,0.250000,-0.495722,0.315263,-0.461940,0.441342,-0.396677,0.554381,-0.304381,0.646677,-0.191342,0.711940,-0.065263,0.745722,0.000000,0.745722,
0.000000,0.750000,0.500000,0.750000,0.500000,-0.750000,0.500000,-0.750000,$1*%
%AMFreePoly1*
4,1,23,0.000000,0.745722,0.065263,0.745722,0.191342,0.711940,0.304381,0.646677,0.396677,0.554381,0.461940,0.441342,0.495722,0.315263,0.495722,0.250000,0.500000,0.250000,0.500000,-0.250000,0.495722,-0.250000,0.495722,-0.315263,0.461940,-0.441342,0.396677,-0.554381,0.304381,-0.646677,0.191342,-0.711940,0.065263,-0.745722,0.000000,-0.745722,0.000000,-0.750000,-0.500000,-0.750000,
-0.500000,0.750000,0.000000,0.750000,0.000000,0.745722,0.000000,0.745722,$1*%
G04 Aperture macros list end*
%ADD10RoundRect,0.250000X1.250000X0.550000X-1.250000X0.550000X-1.250000X-0.550000X1.250000X-0.550000X0*%
%ADD11RoundRect,0.150000X0.150000X-0.587500X0.150000X0.587500X-0.150000X0.587500X-0.150000X-0.587500X0*%
%ADD12RoundRect,0.250000X0.450000X-0.262500X0.450000X0.262500X-0.450000X0.262500X-0.450000X-0.262500X0*%
%ADD13RoundRect,0.250000X0.262500X0.450000X-0.262500X0.450000X-0.262500X-0.450000X0.262500X-0.450000X0*%
%ADD14RoundRect,0.102000X-0.629325X-0.431335X-0.431335X-0.629325X0.629325X0.431335X0.431335X0.629325X0*%
%ADD15RoundRect,0.102000X-0.629325X0.431335X0.431335X-0.629325X0.629325X-0.431335X-0.431335X0.629325X0*%
%ADD16RoundRect,0.250000X0.475000X-0.250000X0.475000X0.250000X-0.475000X0.250000X-0.475000X-0.250000X0*%
%ADD17RoundRect,0.250000X-0.262500X-0.450000X0.262500X-0.450000X0.262500X0.450000X-0.262500X0.450000X0*%
%ADD18RoundRect,0.250000X-0.550000X-0.550000X0.550000X-0.550000X0.550000X0.550000X-0.550000X0.550000X0*%
%ADD19RoundRect,0.218750X-0.256250X0.218750X-0.256250X-0.218750X0.256250X-0.218750X0.256250X0.218750X0*%
%ADD20RoundRect,0.150000X0.587500X0.150000X-0.587500X0.150000X-0.587500X-0.150000X0.587500X-0.150000X0*%
%ADD21RoundRect,0.250000X-0.450000X0.262500X-0.450000X-0.262500X0.450000X-0.262500X0.450000X0.262500X0*%
%ADD22FreePoly0,270.000000*%
%ADD23FreePoly1,270.000000*%
%ADD24RoundRect,0.250000X-1.250000X-0.550000X1.250000X-0.550000X1.250000X0.550000X-1.250000X0.550000X0*%
%ADD25RoundRect,0.102000X-0.750000X-1.750000X0.750000X-1.750000X0.750000X1.750000X-0.750000X1.750000X0*%
%ADD26RoundRect,0.250000X-1.500000X-0.550000X1.500000X-0.550000X1.500000X0.550000X-1.500000X0.550000X0*%
%ADD27RoundRect,0.150000X-0.587500X-0.150000X0.587500X-0.150000X0.587500X0.150000X-0.587500X0.150000X0*%
%ADD28R,2.500000X0.500000*%
%ADD29R,2.500000X2.000000*%
%ADD30RoundRect,0.250000X-0.475000X0.250000X-0.475000X-0.250000X0.475000X-0.250000X0.475000X0.250000X0*%
%ADD31RoundRect,0.250000X0.250000X0.475000X-0.250000X0.475000X-0.250000X-0.475000X0.250000X-0.475000X0*%
%ADD32RoundRect,0.218750X0.256250X-0.218750X0.256250X0.218750X-0.256250X0.218750X-0.256250X-0.218750X0*%
%ADD33RoundRect,0.218750X-0.218750X-0.256250X0.218750X-0.256250X0.218750X0.256250X-0.218750X0.256250X0*%
%ADD34RoundRect,0.250000X-0.250000X-2.500000X0.250000X-2.500000X0.250000X2.500000X-0.250000X2.500000X0*%
%ADD35RoundRect,0.250000X-0.550000X-1.250000X0.550000X-1.250000X0.550000X1.250000X-0.550000X1.250000X0*%
G04 APERTURE END LIST*
%TO.C,JP2*%
G36*
X158250000Y-91200000D02*
G01*
X156750000Y-91200000D01*
X156750000Y-91500000D01*
X158250000Y-91500000D01*
X158250000Y-91200000D01*
G37*
%TD*%
D10*
%TO.C,C3*%
X117500000Y-98000000D03*
X113100000Y-98000000D03*
%TD*%
D11*
%TO.C,Q2*%
X114375000Y-84650000D03*
X116275000Y-84650000D03*
X115325000Y-82775000D03*
%TD*%
D12*
%TO.C,R6*%
X124500000Y-98325000D03*
X124500000Y-96500000D03*
%TD*%
D13*
%TO.C,R8*%
X137500000Y-99500000D03*
X135675000Y-99500000D03*
%TD*%
D10*
%TO.C,C5*%
X110900000Y-79500000D03*
X106500000Y-79500000D03*
%TD*%
D12*
%TO.C,R13*%
X154500000Y-92325000D03*
X154500000Y-90500000D03*
%TD*%
D14*
%TO.C,U1*%
X151535534Y-90272435D03*
X151181980Y-89918882D03*
X150828427Y-89565329D03*
X150474874Y-89211775D03*
X150121320Y-88858222D03*
X149767767Y-88504669D03*
X149414213Y-88151115D03*
X149060660Y-87797562D03*
X148707107Y-87444008D03*
X148353553Y-87090455D03*
X148000000Y-86736902D03*
X147646447Y-86383348D03*
D15*
X145454415Y-86383348D03*
X145100862Y-86736902D03*
X144747309Y-87090455D03*
X144393755Y-87444008D03*
X144040202Y-87797562D03*
X143686649Y-88151115D03*
X143333095Y-88504669D03*
X142979542Y-88858222D03*
X142625988Y-89211775D03*
X142272435Y-89565329D03*
X141918882Y-89918882D03*
X141565328Y-90272435D03*
D14*
X141565328Y-92464467D03*
X141918882Y-92818020D03*
X142272435Y-93171573D03*
X142625988Y-93525127D03*
X142979542Y-93878680D03*
X143333095Y-94232233D03*
X143686649Y-94585787D03*
X144040202Y-94939340D03*
X144393755Y-95292894D03*
X144747309Y-95646447D03*
X145100862Y-96000000D03*
X145454415Y-96353554D03*
D15*
X147646447Y-96353554D03*
X148000000Y-96000000D03*
X148353553Y-95646447D03*
X148707107Y-95292894D03*
X149060660Y-94939340D03*
X149414213Y-94585787D03*
X149767767Y-94232233D03*
X150121320Y-93878680D03*
X150474874Y-93525127D03*
X150828427Y-93171573D03*
X151181980Y-92818020D03*
X151535534Y-92464467D03*
%TD*%
D13*
%TO.C,R3*%
X116275000Y-79500000D03*
X114450000Y-79500000D03*
%TD*%
D16*
%TO.C,C12*%
X141500000Y-99400000D03*
X141500000Y-97500000D03*
%TD*%
D17*
%TO.C,R2*%
X114450000Y-92400000D03*
X116275000Y-92400000D03*
%TD*%
D18*
%TO.C,U2*%
X131500000Y-79000000D03*
X131500000Y-81540000D03*
X139120000Y-81540000D03*
X139120000Y-79000000D03*
%TD*%
D19*
%TO.C,FB1*%
X161500000Y-94425000D03*
X161500000Y-96000000D03*
%TD*%
D20*
%TO.C,Q5*%
X136987500Y-86887500D03*
X136987500Y-84987500D03*
X135112500Y-85937500D03*
%TD*%
D21*
%TO.C,R16*%
X147000000Y-78500000D03*
X147000000Y-80325000D03*
%TD*%
D22*
%TO.C,JP2*%
X157500000Y-90700000D03*
D23*
X157500000Y-92000000D03*
%TD*%
D24*
%TO.C,C1*%
X106300000Y-88500000D03*
X110700000Y-88500000D03*
%TD*%
D12*
%TO.C,R1*%
X115775000Y-88812500D03*
X115775000Y-86987500D03*
%TD*%
D17*
%TO.C,R9*%
X123087500Y-78500000D03*
X124912500Y-78500000D03*
%TD*%
%TO.C,R7*%
X121675000Y-87500000D03*
X123500000Y-87500000D03*
%TD*%
D25*
%TO.C,J4*%
X94100000Y-92750000D03*
X96100000Y-85250000D03*
X101100000Y-92750000D03*
%TD*%
D26*
%TO.C,C7*%
X130300000Y-92500000D03*
X135700000Y-92500000D03*
%TD*%
D12*
%TO.C,R14*%
X158000000Y-96325000D03*
X158000000Y-94500000D03*
%TD*%
D27*
%TO.C,Q1*%
X121062500Y-90550000D03*
X121062500Y-92450000D03*
X122937500Y-91500000D03*
%TD*%
D16*
%TO.C,C10*%
X145000000Y-100400000D03*
X145000000Y-98500000D03*
%TD*%
D19*
%TO.C,F2*%
X142500000Y-79000000D03*
X142500000Y-80575000D03*
%TD*%
D28*
%TO.C,J3*%
X164500000Y-90600000D03*
X164500000Y-89800000D03*
X164500000Y-89000000D03*
X164500000Y-88200000D03*
X164500000Y-87400000D03*
D29*
X164500000Y-93400000D03*
X170000000Y-93400000D03*
X164500000Y-84600000D03*
X170000000Y-84600000D03*
%TD*%
D30*
%TO.C,C11*%
X148000000Y-98600000D03*
X148000000Y-100500000D03*
%TD*%
D12*
%TO.C,R12*%
X160000000Y-92325000D03*
X160000000Y-90500000D03*
%TD*%
D24*
%TO.C,C2*%
X105000000Y-98000000D03*
X109400000Y-98000000D03*
%TD*%
D31*
%TO.C,C6*%
X120475000Y-79500000D03*
X118575000Y-79500000D03*
%TD*%
D30*
%TO.C,C9*%
X139000000Y-90500000D03*
X139000000Y-92400000D03*
%TD*%
D21*
%TO.C,R5*%
X121500000Y-96500000D03*
X121500000Y-98325000D03*
%TD*%
%TO.C,R4*%
X118275000Y-87075000D03*
X118275000Y-88900000D03*
%TD*%
D13*
%TO.C,R15*%
X160912500Y-87000000D03*
X159087500Y-87000000D03*
%TD*%
D27*
%TO.C,Q3*%
X126650000Y-86950000D03*
X126650000Y-88850000D03*
X128525000Y-87900000D03*
%TD*%
D32*
%TO.C,FB2*%
X164500000Y-97575000D03*
X164500000Y-96000000D03*
%TD*%
D12*
%TO.C,R10*%
X123275000Y-83975000D03*
X123275000Y-82150000D03*
%TD*%
D19*
%TO.C,F1*%
X161500000Y-98212500D03*
X161500000Y-99787500D03*
%TD*%
D33*
%TO.C,D1*%
X160425000Y-79500000D03*
X162000000Y-79500000D03*
%TD*%
D24*
%TO.C,C4*%
X128100000Y-99500000D03*
X132500000Y-99500000D03*
%TD*%
D34*
%TO.C,J1*%
X152100000Y-82000000D03*
X154100000Y-82000000D03*
D35*
X149700000Y-79750000D03*
X156500000Y-79750000D03*
%TD*%
D27*
%TO.C,Q4*%
X126650000Y-81950000D03*
X126650000Y-83850000D03*
X128525000Y-82900000D03*
%TD*%
D16*
%TO.C,C14*%
X155500000Y-100450000D03*
X155500000Y-98550000D03*
%TD*%
D30*
%TO.C,C13*%
X151500000Y-98600000D03*
X151500000Y-100500000D03*
%TD*%
D12*
%TO.C,R17*%
X141000000Y-86475000D03*
X141000000Y-84650000D03*
%TD*%
M02*
