M48
; DRILL file {KiCad 9.0.1} date 2025-05-09T23:00:38+0100
; FORMAT={-:-/ absolute / inch / decimal}
; #@! TF.CreationDate,2025-05-09T23:00:38+01:00
; #@! TF.GenerationSoftware,Kicad,Pcbnew,9.0.1
; #@! TF.FileFunction,Plated,1,2,PTH
FMAT,2
INCH
; #@! TA.AperFunction,Plated,PTH,ViaDrill
T1C0.0118
%
G90
G05
T1
X4.6457Y-3.2677
X4.6654Y-3.3465
X4.7835Y-3.7205
X4.8228Y-3.3858
X4.9213Y-3.189
X4.9213Y-3.4843
X4.9803Y-3.3661
X5.1181Y-3.3268
X5.1772Y-3.2874
X5.2362Y-3.4252
X5.2559Y-3.2087
X5.2953Y-3.1693
X5.3543Y-3.3071
X5.3937Y-3.2677
X5.4724Y-3.2874
X5.4724Y-3.3268
X5.7087Y-3.1496
X6.0236Y-3.4646
X6.0433Y-3.9547
X6.0827Y-3.7008
X6.0827Y-3.7992
X6.1614Y-3.2874
X6.1614Y-3.3465
X6.2992Y-3.937
M30
