%TF.GenerationSoftware,KiCad,Pcbnew,9.0.1*%
%TF.CreationDate,2025-05-09T23:00:38+01:00*%
%TF.ProjectId,aom-preamp,616f6d2d-7072-4656-916d-702e6b696361,rev?*%
%TF.SameCoordinates,Original*%
%TF.FileFunction,Copper,L2,Bot*%
%TF.FilePolarity,Positive*%
%FSLAX46Y46*%
G04 Gerber Fmt 4.6, Leading zero omitted, Abs format (unit mm)*
G04 Created by KiCad (PCBNEW 9.0.1) date 2025-05-09 23:00:38*
%MOMM*%
%LPD*%
G01*
G04 APERTURE LIST*
%TA.AperFunction,ViaPad*%
%ADD10C,0.600000*%
%TD*%
%TA.AperFunction,ViaPad*%
%ADD11C,0.500000*%
%TD*%
%TA.AperFunction,Conductor*%
%ADD12C,0.350000*%
%TD*%
%TA.AperFunction,Conductor*%
%ADD13C,0.250000*%
%TD*%
G04 APERTURE END LIST*
D10*
%TO.N,GND*%
X133500000Y-81500000D03*
X134500000Y-80500000D03*
X133000000Y-87000000D03*
X131500000Y-83500000D03*
X136000000Y-84000000D03*
X137000000Y-83000000D03*
%TO.N,AVDD1*%
X153500000Y-100450000D03*
X160000000Y-100000000D03*
%TO.N,9V_GND*%
X156500000Y-85000000D03*
X139000000Y-84500000D03*
X139000000Y-83500000D03*
X156500000Y-83500000D03*
D11*
%TO.N,Net-(Q1-B)*%
X118000000Y-83000000D03*
X122500000Y-86000000D03*
%TO.N,Net-(Q2-E)*%
X118500000Y-85000000D03*
D10*
X121500000Y-94500000D03*
D11*
%TO.N,Net-(Q3-B)*%
X130000000Y-84500000D03*
X126500000Y-85500000D03*
%TO.N,Net-(Q3-E)*%
X125000000Y-81000000D03*
X125000000Y-88500000D03*
D10*
%TO.N,Net-(R13-Pad1)*%
X154500000Y-94000000D03*
X154500000Y-96500000D03*
%TO.N,V3.3*%
X153000000Y-88000000D03*
X145000000Y-80000000D03*
%TD*%
D12*
%TO.N,GND*%
X133500000Y-81500000D02*
X136000000Y-84000000D01*
X131500000Y-83500000D02*
X131500000Y-85500000D01*
X134500000Y-80500000D02*
X137000000Y-83000000D01*
X131500000Y-85500000D02*
X133000000Y-87000000D01*
D13*
%TO.N,AVDD1*%
X160000000Y-100000000D02*
X153950000Y-100000000D01*
X153950000Y-100000000D02*
X153500000Y-100450000D01*
D12*
%TO.N,Net-(Q1-B)*%
X121000000Y-86000000D02*
X118000000Y-83000000D01*
X122500000Y-86000000D02*
X121000000Y-86000000D01*
%TO.N,Net-(Q2-E)*%
X121500000Y-88000000D02*
X121500000Y-94500000D01*
X118500000Y-85000000D02*
X121500000Y-88000000D01*
%TO.N,Net-(Q3-B)*%
X127500000Y-84500000D02*
X130000000Y-84500000D01*
X126500000Y-85500000D02*
X127500000Y-84500000D01*
%TO.N,Net-(Q3-E)*%
X125000000Y-81000000D02*
X125000000Y-88500000D01*
D13*
%TO.N,Net-(R13-Pad1)*%
X154500000Y-94000000D02*
X154500000Y-96500000D01*
D12*
%TO.N,V3.3*%
X145500000Y-83500000D02*
X145000000Y-83000000D01*
X153000000Y-88000000D02*
X148500000Y-83500000D01*
X145000000Y-83000000D02*
X145000000Y-80000000D01*
X148500000Y-83500000D02*
X145500000Y-83500000D01*
%TD*%
%TA.AperFunction,Conductor*%
%TO.N,9V_GND*%
G36*
X170016177Y-76020185D02*
G01*
X170036819Y-76036819D01*
X171463181Y-77463181D01*
X171496666Y-77524504D01*
X171499500Y-77550862D01*
X171499500Y-100449137D01*
X171479815Y-100516176D01*
X171463181Y-100536818D01*
X170036818Y-101963181D01*
X169975495Y-101996666D01*
X169949137Y-101999500D01*
X94050862Y-101999500D01*
X93983823Y-101979815D01*
X93963181Y-101963181D01*
X92536819Y-100536819D01*
X92503334Y-100475496D01*
X92500500Y-100449138D01*
X92500500Y-98874038D01*
X93899500Y-98874038D01*
X93899500Y-99125962D01*
X93916020Y-99230263D01*
X93938910Y-99374785D01*
X94016760Y-99614383D01*
X94081073Y-99740602D01*
X94125711Y-99828210D01*
X94131132Y-99838848D01*
X94279201Y-100042649D01*
X94279205Y-100042654D01*
X94457345Y-100220794D01*
X94457350Y-100220798D01*
X94635117Y-100349952D01*
X94661155Y-100368870D01*
X94789192Y-100434108D01*
X94885616Y-100483239D01*
X94885618Y-100483239D01*
X94885621Y-100483241D01*
X95125215Y-100561090D01*
X95374038Y-100600500D01*
X95374039Y-100600500D01*
X95625961Y-100600500D01*
X95625962Y-100600500D01*
X95874785Y-100561090D01*
X96114379Y-100483241D01*
X96334364Y-100371153D01*
X152699500Y-100371153D01*
X152699500Y-100528846D01*
X152730261Y-100683489D01*
X152730264Y-100683501D01*
X152790602Y-100829172D01*
X152790609Y-100829185D01*
X152878210Y-100960288D01*
X152878213Y-100960292D01*
X152989707Y-101071786D01*
X152989711Y-101071789D01*
X153120814Y-101159390D01*
X153120827Y-101159397D01*
X153266498Y-101219735D01*
X153266503Y-101219737D01*
X153394845Y-101245266D01*
X153421153Y-101250499D01*
X153421156Y-101250500D01*
X153421158Y-101250500D01*
X153578844Y-101250500D01*
X153578845Y-101250499D01*
X153733497Y-101219737D01*
X153879179Y-101159394D01*
X154010289Y-101071789D01*
X154121789Y-100960289D01*
X154209394Y-100829179D01*
X154234016Y-100769737D01*
X154262053Y-100702048D01*
X154305893Y-100647644D01*
X154372187Y-100625579D01*
X154376614Y-100625500D01*
X159457650Y-100625500D01*
X159524689Y-100645185D01*
X159526541Y-100646398D01*
X159582051Y-100683489D01*
X159620821Y-100709394D01*
X159620823Y-100709395D01*
X159620827Y-100709397D01*
X159766498Y-100769735D01*
X159766503Y-100769737D01*
X159921153Y-100800499D01*
X159921156Y-100800500D01*
X159921158Y-100800500D01*
X160078844Y-100800500D01*
X160078845Y-100800499D01*
X160233497Y-100769737D01*
X160379179Y-100709394D01*
X160510289Y-100621789D01*
X160621789Y-100510289D01*
X160709394Y-100379179D01*
X160712719Y-100371153D01*
X160723067Y-100346166D01*
X160769737Y-100233497D01*
X160800500Y-100078842D01*
X160800500Y-99921158D01*
X160800500Y-99921155D01*
X160800499Y-99921153D01*
X160782012Y-99828213D01*
X160769737Y-99766503D01*
X160769735Y-99766498D01*
X160709397Y-99620827D01*
X160709390Y-99620814D01*
X160621789Y-99489711D01*
X160621786Y-99489707D01*
X160510292Y-99378213D01*
X160510288Y-99378210D01*
X160379185Y-99290609D01*
X160379172Y-99290602D01*
X160233501Y-99230264D01*
X160233489Y-99230261D01*
X160078845Y-99199500D01*
X160078842Y-99199500D01*
X159921158Y-99199500D01*
X159921155Y-99199500D01*
X159766510Y-99230261D01*
X159766498Y-99230264D01*
X159620827Y-99290602D01*
X159620815Y-99290609D01*
X159526541Y-99353602D01*
X159459864Y-99374480D01*
X159457650Y-99374500D01*
X153888389Y-99374500D01*
X153827971Y-99386518D01*
X153790259Y-99394019D01*
X153767550Y-99398536D01*
X153767548Y-99398537D01*
X153734207Y-99412347D01*
X153653719Y-99445684D01*
X153653705Y-99445692D01*
X153551272Y-99514138D01*
X153551264Y-99514144D01*
X153464139Y-99601270D01*
X153464137Y-99601272D01*
X153441201Y-99624207D01*
X153379877Y-99657691D01*
X153377714Y-99658141D01*
X153266508Y-99680261D01*
X153266498Y-99680264D01*
X153120827Y-99740602D01*
X153120814Y-99740609D01*
X152989711Y-99828210D01*
X152989707Y-99828213D01*
X152878213Y-99939707D01*
X152878210Y-99939711D01*
X152790609Y-100070814D01*
X152790602Y-100070827D01*
X152730264Y-100216498D01*
X152730261Y-100216510D01*
X152699500Y-100371153D01*
X96334364Y-100371153D01*
X96338845Y-100368870D01*
X96414351Y-100314011D01*
X96482158Y-100264748D01*
X96542649Y-100220798D01*
X96542647Y-100220798D01*
X96542656Y-100220793D01*
X96720793Y-100042656D01*
X96868870Y-99838845D01*
X96983241Y-99614379D01*
X97061090Y-99374785D01*
X97100500Y-99125962D01*
X97100500Y-98874038D01*
X166899500Y-98874038D01*
X166899500Y-99125962D01*
X166916020Y-99230263D01*
X166938910Y-99374785D01*
X167016760Y-99614383D01*
X167081073Y-99740602D01*
X167125711Y-99828210D01*
X167131132Y-99838848D01*
X167279201Y-100042649D01*
X167279205Y-100042654D01*
X167457345Y-100220794D01*
X167457350Y-100220798D01*
X167635117Y-100349952D01*
X167661155Y-100368870D01*
X167789192Y-100434108D01*
X167885616Y-100483239D01*
X167885618Y-100483239D01*
X167885621Y-100483241D01*
X168125215Y-100561090D01*
X168374038Y-100600500D01*
X168374039Y-100600500D01*
X168625961Y-100600500D01*
X168625962Y-100600500D01*
X168874785Y-100561090D01*
X169114379Y-100483241D01*
X169338845Y-100368870D01*
X169542656Y-100220793D01*
X169720793Y-100042656D01*
X169868870Y-99838845D01*
X169983241Y-99614379D01*
X170061090Y-99374785D01*
X170100500Y-99125962D01*
X170100500Y-98874038D01*
X170061090Y-98625215D01*
X169983241Y-98385621D01*
X169983239Y-98385618D01*
X169983239Y-98385616D01*
X169941747Y-98304184D01*
X169868870Y-98161155D01*
X169849952Y-98135117D01*
X169720798Y-97957350D01*
X169720794Y-97957345D01*
X169542654Y-97779205D01*
X169542649Y-97779201D01*
X169338848Y-97631132D01*
X169338847Y-97631131D01*
X169338845Y-97631130D01*
X169268747Y-97595413D01*
X169114383Y-97516760D01*
X168874785Y-97438910D01*
X168625962Y-97399500D01*
X168374038Y-97399500D01*
X168249626Y-97419205D01*
X168125214Y-97438910D01*
X167885616Y-97516760D01*
X167661151Y-97631132D01*
X167457350Y-97779201D01*
X167457345Y-97779205D01*
X167279205Y-97957345D01*
X167279201Y-97957350D01*
X167131132Y-98161151D01*
X167016760Y-98385616D01*
X166938910Y-98625214D01*
X166938910Y-98625215D01*
X166899500Y-98874038D01*
X97100500Y-98874038D01*
X97061090Y-98625215D01*
X96983241Y-98385621D01*
X96983239Y-98385618D01*
X96983239Y-98385616D01*
X96941747Y-98304184D01*
X96868870Y-98161155D01*
X96849952Y-98135117D01*
X96720798Y-97957350D01*
X96720794Y-97957345D01*
X96542654Y-97779205D01*
X96542649Y-97779201D01*
X96338848Y-97631132D01*
X96338847Y-97631131D01*
X96338845Y-97631130D01*
X96268747Y-97595413D01*
X96114383Y-97516760D01*
X95874785Y-97438910D01*
X95625962Y-97399500D01*
X95374038Y-97399500D01*
X95249626Y-97419205D01*
X95125214Y-97438910D01*
X94885616Y-97516760D01*
X94661151Y-97631132D01*
X94457350Y-97779201D01*
X94457345Y-97779205D01*
X94279205Y-97957345D01*
X94279201Y-97957350D01*
X94131132Y-98161151D01*
X94016760Y-98385616D01*
X93938910Y-98625214D01*
X93938910Y-98625215D01*
X93899500Y-98874038D01*
X92500500Y-98874038D01*
X92500500Y-88916228D01*
X93149500Y-88916228D01*
X93149500Y-89083771D01*
X93182182Y-89248074D01*
X93182184Y-89248082D01*
X93246295Y-89402860D01*
X93339373Y-89542162D01*
X93457837Y-89660626D01*
X93550494Y-89722537D01*
X93597137Y-89753703D01*
X93751918Y-89817816D01*
X93916228Y-89850499D01*
X93916232Y-89850500D01*
X93916233Y-89850500D01*
X94083768Y-89850500D01*
X94083769Y-89850499D01*
X94248082Y-89817816D01*
X94402863Y-89753703D01*
X94542162Y-89660626D01*
X94660626Y-89542162D01*
X94753703Y-89402863D01*
X94817816Y-89248082D01*
X94850500Y-89083767D01*
X94850500Y-88916233D01*
X94850499Y-88916228D01*
X99149500Y-88916228D01*
X99149500Y-89083771D01*
X99182182Y-89248074D01*
X99182184Y-89248082D01*
X99246295Y-89402860D01*
X99339373Y-89542162D01*
X99457837Y-89660626D01*
X99550494Y-89722537D01*
X99597137Y-89753703D01*
X99751918Y-89817816D01*
X99916228Y-89850499D01*
X99916232Y-89850500D01*
X99916233Y-89850500D01*
X100083768Y-89850500D01*
X100083769Y-89850499D01*
X100248082Y-89817816D01*
X100402863Y-89753703D01*
X100542162Y-89660626D01*
X100660626Y-89542162D01*
X100753703Y-89402863D01*
X100817816Y-89248082D01*
X100850500Y-89083767D01*
X100850500Y-88916233D01*
X100817816Y-88751918D01*
X100753703Y-88597137D01*
X100695672Y-88510288D01*
X100660626Y-88457837D01*
X100542162Y-88339373D01*
X100402860Y-88246295D01*
X100248082Y-88182184D01*
X100248074Y-88182182D01*
X100083771Y-88149500D01*
X100083767Y-88149500D01*
X99916233Y-88149500D01*
X99916228Y-88149500D01*
X99751925Y-88182182D01*
X99751917Y-88182184D01*
X99597139Y-88246295D01*
X99457837Y-88339373D01*
X99339373Y-88457837D01*
X99246295Y-88597139D01*
X99182184Y-88751917D01*
X99182182Y-88751925D01*
X99149500Y-88916228D01*
X94850499Y-88916228D01*
X94817816Y-88751918D01*
X94753703Y-88597137D01*
X94695672Y-88510288D01*
X94660626Y-88457837D01*
X94542162Y-88339373D01*
X94402860Y-88246295D01*
X94248082Y-88182184D01*
X94248074Y-88182182D01*
X94083771Y-88149500D01*
X94083767Y-88149500D01*
X93916233Y-88149500D01*
X93916228Y-88149500D01*
X93751925Y-88182182D01*
X93751917Y-88182184D01*
X93597139Y-88246295D01*
X93457837Y-88339373D01*
X93339373Y-88457837D01*
X93246295Y-88597139D01*
X93182184Y-88751917D01*
X93182182Y-88751925D01*
X93149500Y-88916228D01*
X92500500Y-88916228D01*
X92500500Y-83073920D01*
X117249499Y-83073920D01*
X117278340Y-83218907D01*
X117278343Y-83218917D01*
X117334912Y-83355488D01*
X117334919Y-83355501D01*
X117417048Y-83478415D01*
X117417051Y-83478419D01*
X117521580Y-83582948D01*
X117521588Y-83582954D01*
X117644503Y-83665083D01*
X117644506Y-83665085D01*
X117733153Y-83701803D01*
X117773382Y-83728683D01*
X118179528Y-84134829D01*
X118213013Y-84196152D01*
X118208029Y-84265844D01*
X118166157Y-84321777D01*
X118149473Y-84331295D01*
X118149875Y-84332046D01*
X118144498Y-84334919D01*
X118021584Y-84417048D01*
X118021580Y-84417051D01*
X117917051Y-84521580D01*
X117917048Y-84521584D01*
X117834919Y-84644498D01*
X117834912Y-84644511D01*
X117778343Y-84781082D01*
X117778340Y-84781092D01*
X117749500Y-84926079D01*
X117749500Y-84926082D01*
X117749500Y-85073918D01*
X117749500Y-85073920D01*
X117749499Y-85073920D01*
X117778340Y-85218907D01*
X117778343Y-85218917D01*
X117834912Y-85355488D01*
X117834919Y-85355501D01*
X117917048Y-85478415D01*
X117917051Y-85478419D01*
X118021580Y-85582948D01*
X118021588Y-85582954D01*
X118144503Y-85665083D01*
X118144506Y-85665085D01*
X118233153Y-85701803D01*
X118273382Y-85728683D01*
X120788181Y-88243482D01*
X120821666Y-88304805D01*
X120824500Y-88331163D01*
X120824500Y-94032479D01*
X120804815Y-94099518D01*
X120803602Y-94101370D01*
X120790609Y-94120814D01*
X120790602Y-94120827D01*
X120730264Y-94266498D01*
X120730261Y-94266510D01*
X120699500Y-94421153D01*
X120699500Y-94578846D01*
X120730261Y-94733489D01*
X120730264Y-94733501D01*
X120790602Y-94879172D01*
X120790609Y-94879185D01*
X120878210Y-95010288D01*
X120878213Y-95010292D01*
X120989707Y-95121786D01*
X120989711Y-95121789D01*
X121120814Y-95209390D01*
X121120827Y-95209397D01*
X121266498Y-95269735D01*
X121266503Y-95269737D01*
X121421153Y-95300499D01*
X121421156Y-95300500D01*
X121421158Y-95300500D01*
X121578844Y-95300500D01*
X121578845Y-95300499D01*
X121733497Y-95269737D01*
X121879179Y-95209394D01*
X122010289Y-95121789D01*
X122121789Y-95010289D01*
X122209394Y-94879179D01*
X122269737Y-94733497D01*
X122300500Y-94578842D01*
X122300500Y-94421158D01*
X122300500Y-94421155D01*
X122300499Y-94421153D01*
X122269738Y-94266510D01*
X122269737Y-94266503D01*
X122256062Y-94233489D01*
X122209397Y-94120827D01*
X122209390Y-94120814D01*
X122196398Y-94101370D01*
X122190747Y-94083323D01*
X122180523Y-94067414D01*
X122176071Y-94036452D01*
X122175520Y-94034692D01*
X122175500Y-94032479D01*
X122175500Y-93921153D01*
X153699500Y-93921153D01*
X153699500Y-94078846D01*
X153730261Y-94233489D01*
X153730264Y-94233501D01*
X153790602Y-94379172D01*
X153790609Y-94379184D01*
X153853602Y-94473459D01*
X153874480Y-94540136D01*
X153874500Y-94542350D01*
X153874500Y-95957650D01*
X153854815Y-96024689D01*
X153853602Y-96026541D01*
X153790609Y-96120815D01*
X153790602Y-96120828D01*
X153730264Y-96266498D01*
X153730261Y-96266510D01*
X153699500Y-96421153D01*
X153699500Y-96578846D01*
X153730261Y-96733489D01*
X153730264Y-96733501D01*
X153790602Y-96879172D01*
X153790609Y-96879185D01*
X153878210Y-97010288D01*
X153878213Y-97010292D01*
X153989707Y-97121786D01*
X153989711Y-97121789D01*
X154120814Y-97209390D01*
X154120827Y-97209397D01*
X154266498Y-97269735D01*
X154266503Y-97269737D01*
X154421153Y-97300499D01*
X154421156Y-97300500D01*
X154421158Y-97300500D01*
X154578844Y-97300500D01*
X154578845Y-97300499D01*
X154733497Y-97269737D01*
X154879179Y-97209394D01*
X155010289Y-97121789D01*
X155121789Y-97010289D01*
X155209394Y-96879179D01*
X155269737Y-96733497D01*
X155300500Y-96578842D01*
X155300500Y-96421158D01*
X155300500Y-96421155D01*
X155300499Y-96421153D01*
X155269738Y-96266510D01*
X155269737Y-96266503D01*
X155209394Y-96120821D01*
X155146397Y-96026539D01*
X155125520Y-95959863D01*
X155125500Y-95957650D01*
X155125500Y-94542350D01*
X155145185Y-94475311D01*
X155146398Y-94473459D01*
X155181346Y-94421155D01*
X155209394Y-94379179D01*
X155269737Y-94233497D01*
X155300500Y-94078842D01*
X155300500Y-93921158D01*
X155300500Y-93921155D01*
X155300499Y-93921153D01*
X155269738Y-93766510D01*
X155269737Y-93766503D01*
X155269735Y-93766498D01*
X155209397Y-93620827D01*
X155209390Y-93620814D01*
X155121789Y-93489711D01*
X155121786Y-93489707D01*
X155010292Y-93378213D01*
X155010288Y-93378210D01*
X154879185Y-93290609D01*
X154879172Y-93290602D01*
X154733501Y-93230264D01*
X154733489Y-93230261D01*
X154578845Y-93199500D01*
X154578842Y-93199500D01*
X154421158Y-93199500D01*
X154421155Y-93199500D01*
X154266510Y-93230261D01*
X154266498Y-93230264D01*
X154120827Y-93290602D01*
X154120814Y-93290609D01*
X153989711Y-93378210D01*
X153989707Y-93378213D01*
X153878213Y-93489707D01*
X153878210Y-93489711D01*
X153790609Y-93620814D01*
X153790602Y-93620827D01*
X153730264Y-93766498D01*
X153730261Y-93766510D01*
X153699500Y-93921153D01*
X122175500Y-93921153D01*
X122175500Y-91268995D01*
X166399499Y-91268995D01*
X166426418Y-91404322D01*
X166426421Y-91404332D01*
X166479221Y-91531804D01*
X166479228Y-91531817D01*
X166555885Y-91646541D01*
X166555888Y-91646545D01*
X166653454Y-91744111D01*
X166653458Y-91744114D01*
X166768182Y-91820771D01*
X166768195Y-91820778D01*
X166895667Y-91873578D01*
X166895672Y-91873580D01*
X166895676Y-91873580D01*
X166895677Y-91873581D01*
X167031004Y-91900500D01*
X167031007Y-91900500D01*
X167168995Y-91900500D01*
X167260041Y-91882389D01*
X167304328Y-91873580D01*
X167431811Y-91820775D01*
X167546542Y-91744114D01*
X167644114Y-91646542D01*
X167720775Y-91531811D01*
X167773580Y-91404328D01*
X167800500Y-91268993D01*
X167800500Y-91131007D01*
X167800500Y-91131004D01*
X167773581Y-90995677D01*
X167773580Y-90995676D01*
X167773580Y-90995672D01*
X167773578Y-90995667D01*
X167720778Y-90868195D01*
X167720771Y-90868182D01*
X167644114Y-90753458D01*
X167644111Y-90753454D01*
X167546545Y-90655888D01*
X167546541Y-90655885D01*
X167431817Y-90579228D01*
X167431804Y-90579221D01*
X167304332Y-90526421D01*
X167304322Y-90526418D01*
X167168995Y-90499500D01*
X167168993Y-90499500D01*
X167031007Y-90499500D01*
X167031005Y-90499500D01*
X166895677Y-90526418D01*
X166895667Y-90526421D01*
X166768195Y-90579221D01*
X166768182Y-90579228D01*
X166653458Y-90655885D01*
X166653454Y-90655888D01*
X166555888Y-90753454D01*
X166555885Y-90753458D01*
X166479228Y-90868182D01*
X166479221Y-90868195D01*
X166426421Y-90995667D01*
X166426418Y-90995677D01*
X166399500Y-91131004D01*
X166399500Y-91131007D01*
X166399500Y-91268993D01*
X166399500Y-91268995D01*
X166399499Y-91268995D01*
X122175500Y-91268995D01*
X122175500Y-87933467D01*
X122171940Y-87915572D01*
X122163770Y-87874499D01*
X122149541Y-87802964D01*
X122099183Y-87681392D01*
X122098846Y-87680368D01*
X122024698Y-87569398D01*
X122024697Y-87569397D01*
X122024695Y-87569394D01*
X121930606Y-87475305D01*
X121342482Y-86887181D01*
X121308997Y-86825858D01*
X121313981Y-86756166D01*
X121355853Y-86700233D01*
X121421317Y-86675816D01*
X121430163Y-86675500D01*
X122144987Y-86675500D01*
X122192439Y-86684938D01*
X122281087Y-86721658D01*
X122281091Y-86721658D01*
X122281092Y-86721659D01*
X122426079Y-86750500D01*
X122426082Y-86750500D01*
X122573920Y-86750500D01*
X122671929Y-86731004D01*
X122718913Y-86721658D01*
X122829586Y-86675816D01*
X122855488Y-86665087D01*
X122855488Y-86665086D01*
X122855495Y-86665084D01*
X122978416Y-86582951D01*
X123082951Y-86478416D01*
X123165084Y-86355495D01*
X123165930Y-86353454D01*
X123177902Y-86324547D01*
X123221658Y-86218913D01*
X123240056Y-86126421D01*
X123250500Y-86073920D01*
X123250500Y-85926079D01*
X123221659Y-85781092D01*
X123221658Y-85781091D01*
X123221658Y-85781087D01*
X123199952Y-85728683D01*
X123165087Y-85644511D01*
X123165080Y-85644498D01*
X123082951Y-85521584D01*
X123082948Y-85521580D01*
X122978419Y-85417051D01*
X122978415Y-85417048D01*
X122855501Y-85334919D01*
X122855488Y-85334912D01*
X122718917Y-85278343D01*
X122718907Y-85278340D01*
X122573920Y-85249500D01*
X122573918Y-85249500D01*
X122426082Y-85249500D01*
X122426080Y-85249500D01*
X122281092Y-85278340D01*
X122281086Y-85278342D01*
X122192440Y-85315061D01*
X122144987Y-85324500D01*
X121331163Y-85324500D01*
X121264124Y-85304815D01*
X121243482Y-85288181D01*
X118728683Y-82773382D01*
X118701803Y-82733153D01*
X118665085Y-82644506D01*
X118665083Y-82644503D01*
X118582954Y-82521588D01*
X118582948Y-82521580D01*
X118478419Y-82417051D01*
X118478415Y-82417048D01*
X118355501Y-82334919D01*
X118355488Y-82334912D01*
X118218917Y-82278343D01*
X118218907Y-82278340D01*
X118073920Y-82249500D01*
X118073918Y-82249500D01*
X117926082Y-82249500D01*
X117926080Y-82249500D01*
X117781092Y-82278340D01*
X117781082Y-82278343D01*
X117644511Y-82334912D01*
X117644498Y-82334919D01*
X117521584Y-82417048D01*
X117521580Y-82417051D01*
X117417051Y-82521580D01*
X117417048Y-82521584D01*
X117334919Y-82644498D01*
X117334912Y-82644511D01*
X117278343Y-82781082D01*
X117278340Y-82781092D01*
X117249500Y-82926079D01*
X117249500Y-82926082D01*
X117249500Y-83073918D01*
X117249500Y-83073920D01*
X117249499Y-83073920D01*
X92500500Y-83073920D01*
X92500500Y-81073920D01*
X124249499Y-81073920D01*
X124278340Y-81218907D01*
X124278342Y-81218913D01*
X124298054Y-81266503D01*
X124315061Y-81307560D01*
X124324500Y-81355013D01*
X124324500Y-88144986D01*
X124315061Y-88192438D01*
X124278343Y-88281082D01*
X124278340Y-88281092D01*
X124249500Y-88426079D01*
X124249500Y-88426082D01*
X124249500Y-88573918D01*
X124249500Y-88573920D01*
X124249499Y-88573920D01*
X124278340Y-88718907D01*
X124278343Y-88718917D01*
X124334912Y-88855488D01*
X124334919Y-88855501D01*
X124417048Y-88978415D01*
X124417051Y-88978419D01*
X124521580Y-89082948D01*
X124521584Y-89082951D01*
X124644498Y-89165080D01*
X124644511Y-89165087D01*
X124781082Y-89221656D01*
X124781087Y-89221658D01*
X124781091Y-89221658D01*
X124781092Y-89221659D01*
X124926079Y-89250500D01*
X124926082Y-89250500D01*
X125073920Y-89250500D01*
X125171462Y-89231096D01*
X125218913Y-89221658D01*
X125355495Y-89165084D01*
X125478416Y-89082951D01*
X125582951Y-88978416D01*
X125665084Y-88855495D01*
X125721658Y-88718913D01*
X125745881Y-88597139D01*
X125750500Y-88573920D01*
X125750500Y-88426079D01*
X125721659Y-88281092D01*
X125721658Y-88281091D01*
X125721658Y-88281087D01*
X125706082Y-88243482D01*
X125684939Y-88192438D01*
X125675500Y-88144986D01*
X125675500Y-86025686D01*
X125695185Y-85958647D01*
X125747989Y-85912892D01*
X125817147Y-85902948D01*
X125880703Y-85931973D01*
X125902602Y-85956795D01*
X125917048Y-85978415D01*
X125917051Y-85978419D01*
X126021580Y-86082948D01*
X126021584Y-86082951D01*
X126144498Y-86165080D01*
X126144511Y-86165087D01*
X126281082Y-86221656D01*
X126281087Y-86221658D01*
X126281091Y-86221658D01*
X126281092Y-86221659D01*
X126426079Y-86250500D01*
X126426082Y-86250500D01*
X126573920Y-86250500D01*
X126675664Y-86230261D01*
X126718913Y-86221658D01*
X126855495Y-86165084D01*
X126978416Y-86082951D01*
X127082951Y-85978416D01*
X127165084Y-85855495D01*
X127201804Y-85766841D01*
X127228680Y-85726619D01*
X127743482Y-85211819D01*
X127804805Y-85178334D01*
X127831163Y-85175500D01*
X129644987Y-85175500D01*
X129692439Y-85184938D01*
X129781087Y-85221658D01*
X129781091Y-85221658D01*
X129781092Y-85221659D01*
X129926079Y-85250500D01*
X129926082Y-85250500D01*
X130073920Y-85250500D01*
X130171462Y-85231096D01*
X130218913Y-85221658D01*
X130324547Y-85177902D01*
X130355488Y-85165087D01*
X130355488Y-85165086D01*
X130355495Y-85165084D01*
X130478416Y-85082951D01*
X130582951Y-84978416D01*
X130597398Y-84956795D01*
X130651010Y-84911990D01*
X130720335Y-84903283D01*
X130783362Y-84933437D01*
X130820082Y-84992880D01*
X130824500Y-85025686D01*
X130824500Y-85566535D01*
X130850457Y-85697028D01*
X130850459Y-85697036D01*
X130901378Y-85819965D01*
X130901383Y-85819975D01*
X130975304Y-85930605D01*
X130975307Y-85930609D01*
X132191762Y-87147063D01*
X132225247Y-87208386D01*
X132225698Y-87210551D01*
X132230261Y-87233493D01*
X132230263Y-87233499D01*
X132290602Y-87379172D01*
X132290609Y-87379185D01*
X132378210Y-87510288D01*
X132378213Y-87510292D01*
X132489707Y-87621786D01*
X132489711Y-87621789D01*
X132620814Y-87709390D01*
X132620827Y-87709397D01*
X132758683Y-87766498D01*
X132766503Y-87769737D01*
X132921153Y-87800499D01*
X132921156Y-87800500D01*
X132921158Y-87800500D01*
X133078844Y-87800500D01*
X133078845Y-87800499D01*
X133233497Y-87769737D01*
X133379179Y-87709394D01*
X133510289Y-87621789D01*
X133621789Y-87510289D01*
X133709394Y-87379179D01*
X133769737Y-87233497D01*
X133800500Y-87078842D01*
X133800500Y-86921158D01*
X133800500Y-86921155D01*
X133800499Y-86921153D01*
X133769737Y-86766503D01*
X133765455Y-86756166D01*
X133709397Y-86620827D01*
X133709390Y-86620814D01*
X133621789Y-86489711D01*
X133621786Y-86489707D01*
X133510292Y-86378213D01*
X133510288Y-86378210D01*
X133379185Y-86290609D01*
X133379172Y-86290602D01*
X133233499Y-86230263D01*
X133233493Y-86230261D01*
X133210551Y-86225698D01*
X133148640Y-86193312D01*
X133147063Y-86191762D01*
X132211819Y-85256518D01*
X132178334Y-85195195D01*
X132175500Y-85168837D01*
X132175500Y-83967519D01*
X132195185Y-83900480D01*
X132196398Y-83898628D01*
X132209394Y-83879179D01*
X132269737Y-83733497D01*
X132300500Y-83578842D01*
X132300500Y-83421158D01*
X132300500Y-83421155D01*
X132300499Y-83421153D01*
X132269738Y-83266510D01*
X132269737Y-83266503D01*
X132254393Y-83229459D01*
X132209397Y-83120827D01*
X132209390Y-83120814D01*
X132121789Y-82989711D01*
X132121786Y-82989707D01*
X132010292Y-82878213D01*
X132010288Y-82878210D01*
X131879185Y-82790609D01*
X131879172Y-82790602D01*
X131733501Y-82730264D01*
X131733489Y-82730261D01*
X131578845Y-82699500D01*
X131578842Y-82699500D01*
X131421158Y-82699500D01*
X131421155Y-82699500D01*
X131266510Y-82730261D01*
X131266498Y-82730264D01*
X131120827Y-82790602D01*
X131120814Y-82790609D01*
X130989711Y-82878210D01*
X130989707Y-82878213D01*
X130878213Y-82989707D01*
X130878210Y-82989711D01*
X130790609Y-83120814D01*
X130790602Y-83120827D01*
X130730264Y-83266498D01*
X130730261Y-83266510D01*
X130699500Y-83421153D01*
X130699500Y-83578846D01*
X130730261Y-83733489D01*
X130730264Y-83733501D01*
X130790603Y-83879174D01*
X130790604Y-83879175D01*
X130790606Y-83879179D01*
X130803602Y-83898628D01*
X130809252Y-83916674D01*
X130819477Y-83932584D01*
X130823928Y-83963543D01*
X130824480Y-83965305D01*
X130824500Y-83967519D01*
X130824500Y-83974313D01*
X130804815Y-84041352D01*
X130752011Y-84087107D01*
X130682853Y-84097051D01*
X130619297Y-84068026D01*
X130597399Y-84043205D01*
X130582953Y-84021587D01*
X130582948Y-84021580D01*
X130478419Y-83917051D01*
X130478415Y-83917048D01*
X130355501Y-83834919D01*
X130355488Y-83834912D01*
X130218917Y-83778343D01*
X130218907Y-83778340D01*
X130073920Y-83749500D01*
X130073918Y-83749500D01*
X129926082Y-83749500D01*
X129926080Y-83749500D01*
X129781092Y-83778340D01*
X129781086Y-83778342D01*
X129727595Y-83800499D01*
X129700540Y-83811706D01*
X129692440Y-83815061D01*
X129644987Y-83824500D01*
X127433464Y-83824500D01*
X127302971Y-83850457D01*
X127302963Y-83850459D01*
X127239423Y-83876778D01*
X127239414Y-83876782D01*
X127233629Y-83879179D01*
X127180031Y-83901380D01*
X127128322Y-83935931D01*
X127123413Y-83939210D01*
X127123400Y-83939218D01*
X127069391Y-83975306D01*
X126273382Y-84771315D01*
X126233155Y-84798195D01*
X126144505Y-84834916D01*
X126144498Y-84834919D01*
X126021584Y-84917048D01*
X126021580Y-84917051D01*
X125917051Y-85021580D01*
X125917046Y-85021587D01*
X125902601Y-85043205D01*
X125848988Y-85088010D01*
X125779663Y-85096716D01*
X125716636Y-85066560D01*
X125679918Y-85007117D01*
X125675500Y-84974313D01*
X125675500Y-81421153D01*
X132699500Y-81421153D01*
X132699500Y-81578846D01*
X132730261Y-81733489D01*
X132730264Y-81733501D01*
X132790602Y-81879172D01*
X132790609Y-81879185D01*
X132878210Y-82010288D01*
X132878213Y-82010292D01*
X132989707Y-82121786D01*
X132989711Y-82121789D01*
X133120814Y-82209390D01*
X133120827Y-82209397D01*
X133217646Y-82249500D01*
X133266503Y-82269737D01*
X133289443Y-82274300D01*
X133351353Y-82306682D01*
X133352935Y-82308236D01*
X135191762Y-84147063D01*
X135225247Y-84208386D01*
X135225698Y-84210551D01*
X135230261Y-84233493D01*
X135230263Y-84233499D01*
X135290602Y-84379172D01*
X135290609Y-84379185D01*
X135378210Y-84510288D01*
X135378213Y-84510292D01*
X135489707Y-84621786D01*
X135489711Y-84621789D01*
X135620814Y-84709390D01*
X135620827Y-84709397D01*
X135766498Y-84769735D01*
X135766503Y-84769737D01*
X135909570Y-84798195D01*
X135921153Y-84800499D01*
X135921156Y-84800500D01*
X135921158Y-84800500D01*
X136078844Y-84800500D01*
X136078845Y-84800499D01*
X136233497Y-84769737D01*
X136379179Y-84709394D01*
X136510289Y-84621789D01*
X136621789Y-84510289D01*
X136709394Y-84379179D01*
X136769737Y-84233497D01*
X136800500Y-84078842D01*
X136800500Y-83924500D01*
X136820185Y-83857461D01*
X136872989Y-83811706D01*
X136924500Y-83800500D01*
X137078844Y-83800500D01*
X137078845Y-83800499D01*
X137233497Y-83769737D01*
X137346166Y-83723067D01*
X137379172Y-83709397D01*
X137379172Y-83709396D01*
X137379179Y-83709394D01*
X137510289Y-83621789D01*
X137621789Y-83510289D01*
X137709394Y-83379179D01*
X137769737Y-83233497D01*
X137800500Y-83078842D01*
X137800500Y-82921158D01*
X137800500Y-82921155D01*
X137800499Y-82921153D01*
X137786437Y-82850459D01*
X137769737Y-82766503D01*
X137755923Y-82733153D01*
X137709397Y-82620827D01*
X137709390Y-82620814D01*
X137621789Y-82489711D01*
X137621786Y-82489707D01*
X137510292Y-82378213D01*
X137510288Y-82378210D01*
X137379185Y-82290609D01*
X137379172Y-82290602D01*
X137233499Y-82230263D01*
X137233493Y-82230261D01*
X137210551Y-82225698D01*
X137148640Y-82193312D01*
X137147063Y-82191762D01*
X135308236Y-80352935D01*
X135274751Y-80291612D01*
X135274314Y-80289514D01*
X135269737Y-80266503D01*
X135250804Y-80220794D01*
X135209397Y-80120827D01*
X135209390Y-80120814D01*
X135121790Y-79989712D01*
X135121784Y-79989705D01*
X135053232Y-79921153D01*
X144199500Y-79921153D01*
X144199500Y-80078846D01*
X144230261Y-80233489D01*
X144230264Y-80233501D01*
X144290603Y-80379174D01*
X144290604Y-80379175D01*
X144290606Y-80379179D01*
X144303602Y-80398628D01*
X144324480Y-80465305D01*
X144324500Y-80467519D01*
X144324500Y-83066535D01*
X144350457Y-83197028D01*
X144350459Y-83197036D01*
X144401378Y-83319965D01*
X144401383Y-83319975D01*
X144475304Y-83430605D01*
X144475307Y-83430609D01*
X144975305Y-83930606D01*
X145069394Y-84024695D01*
X145069397Y-84024697D01*
X145069398Y-84024698D01*
X145180020Y-84098613D01*
X145180024Y-84098615D01*
X145180031Y-84098620D01*
X145216037Y-84113534D01*
X145302964Y-84149541D01*
X145424224Y-84173661D01*
X145433464Y-84175499D01*
X145433468Y-84175500D01*
X145433469Y-84175500D01*
X148168837Y-84175500D01*
X148235876Y-84195185D01*
X148256518Y-84211819D01*
X152191762Y-88147063D01*
X152225247Y-88208386D01*
X152225698Y-88210551D01*
X152230261Y-88233493D01*
X152230263Y-88233499D01*
X152290602Y-88379172D01*
X152290609Y-88379185D01*
X152378210Y-88510288D01*
X152378213Y-88510292D01*
X152489707Y-88621786D01*
X152489711Y-88621789D01*
X152620814Y-88709390D01*
X152620827Y-88709397D01*
X152766498Y-88769735D01*
X152766503Y-88769737D01*
X152921153Y-88800499D01*
X152921156Y-88800500D01*
X152921158Y-88800500D01*
X153078844Y-88800500D01*
X153078845Y-88800499D01*
X153233497Y-88769737D01*
X153379179Y-88709394D01*
X153510289Y-88621789D01*
X153621789Y-88510289D01*
X153709394Y-88379179D01*
X153769737Y-88233497D01*
X153800500Y-88078842D01*
X153800500Y-87921158D01*
X153800500Y-87921155D01*
X153800499Y-87921153D01*
X153791219Y-87874499D01*
X153769737Y-87766503D01*
X153733920Y-87680032D01*
X153709397Y-87620827D01*
X153709390Y-87620814D01*
X153621789Y-87489711D01*
X153621786Y-87489707D01*
X153510292Y-87378213D01*
X153510288Y-87378210D01*
X153379185Y-87290609D01*
X153379172Y-87290602D01*
X153233499Y-87230263D01*
X153233493Y-87230261D01*
X153210551Y-87225698D01*
X153148640Y-87193312D01*
X153147063Y-87191762D01*
X152824296Y-86868995D01*
X166399499Y-86868995D01*
X166426418Y-87004322D01*
X166426421Y-87004332D01*
X166479221Y-87131804D01*
X166479228Y-87131817D01*
X166555885Y-87246541D01*
X166555888Y-87246545D01*
X166653454Y-87344111D01*
X166653458Y-87344114D01*
X166768182Y-87420771D01*
X166768195Y-87420778D01*
X166895667Y-87473578D01*
X166895672Y-87473580D01*
X166895676Y-87473580D01*
X166895677Y-87473581D01*
X167031004Y-87500500D01*
X167031007Y-87500500D01*
X167168995Y-87500500D01*
X167260041Y-87482389D01*
X167304328Y-87473580D01*
X167431811Y-87420775D01*
X167546542Y-87344114D01*
X167644114Y-87246542D01*
X167720775Y-87131811D01*
X167773580Y-87004328D01*
X167800500Y-86868993D01*
X167800500Y-86731007D01*
X167800500Y-86731004D01*
X167773581Y-86595677D01*
X167773580Y-86595676D01*
X167773580Y-86595672D01*
X167729688Y-86489707D01*
X167720778Y-86468195D01*
X167720771Y-86468182D01*
X167644114Y-86353458D01*
X167644111Y-86353454D01*
X167546545Y-86255888D01*
X167546541Y-86255885D01*
X167431817Y-86179228D01*
X167431804Y-86179221D01*
X167304332Y-86126421D01*
X167304322Y-86126418D01*
X167168995Y-86099500D01*
X167168993Y-86099500D01*
X167031007Y-86099500D01*
X167031005Y-86099500D01*
X166895677Y-86126418D01*
X166895667Y-86126421D01*
X166768195Y-86179221D01*
X166768182Y-86179228D01*
X166653458Y-86255885D01*
X166653454Y-86255888D01*
X166555888Y-86353454D01*
X166555885Y-86353458D01*
X166479228Y-86468182D01*
X166479221Y-86468195D01*
X166426421Y-86595667D01*
X166426418Y-86595677D01*
X166399500Y-86731004D01*
X166399500Y-86731007D01*
X166399500Y-86868993D01*
X166399500Y-86868995D01*
X166399499Y-86868995D01*
X152824296Y-86868995D01*
X152767897Y-86812596D01*
X148930609Y-82975307D01*
X148930605Y-82975304D01*
X148819975Y-82901383D01*
X148819965Y-82901378D01*
X148697036Y-82850459D01*
X148697028Y-82850457D01*
X148566535Y-82824500D01*
X148566531Y-82824500D01*
X145831163Y-82824500D01*
X145801722Y-82815855D01*
X145771736Y-82809332D01*
X145766720Y-82805577D01*
X145764124Y-82804815D01*
X145743482Y-82788181D01*
X145711819Y-82756518D01*
X145678334Y-82695195D01*
X145675500Y-82668837D01*
X145675500Y-80467519D01*
X145695185Y-80400480D01*
X145696398Y-80398628D01*
X145709394Y-80379179D01*
X145769737Y-80233497D01*
X145800500Y-80078842D01*
X145800500Y-79921158D01*
X145800500Y-79921155D01*
X145800499Y-79921153D01*
X145774531Y-79790606D01*
X145769737Y-79766503D01*
X145769735Y-79766498D01*
X145709397Y-79620827D01*
X145709390Y-79620814D01*
X145621789Y-79489711D01*
X145621786Y-79489707D01*
X145510292Y-79378213D01*
X145510288Y-79378210D01*
X145379185Y-79290609D01*
X145379172Y-79290602D01*
X145233501Y-79230264D01*
X145233489Y-79230261D01*
X145078845Y-79199500D01*
X145078842Y-79199500D01*
X144921158Y-79199500D01*
X144921155Y-79199500D01*
X144766510Y-79230261D01*
X144766498Y-79230264D01*
X144620827Y-79290602D01*
X144620814Y-79290609D01*
X144489711Y-79378210D01*
X144489707Y-79378213D01*
X144378213Y-79489707D01*
X144378210Y-79489711D01*
X144290609Y-79620814D01*
X144290602Y-79620827D01*
X144230264Y-79766498D01*
X144230261Y-79766510D01*
X144199500Y-79921153D01*
X135053232Y-79921153D01*
X135010292Y-79878213D01*
X135010288Y-79878210D01*
X134879185Y-79790609D01*
X134879172Y-79790602D01*
X134733501Y-79730264D01*
X134733489Y-79730261D01*
X134578845Y-79699500D01*
X134578842Y-79699500D01*
X134421158Y-79699500D01*
X134421155Y-79699500D01*
X134266510Y-79730261D01*
X134266498Y-79730264D01*
X134120827Y-79790602D01*
X134120814Y-79790609D01*
X133989711Y-79878210D01*
X133989707Y-79878213D01*
X133878213Y-79989707D01*
X133878210Y-79989711D01*
X133790609Y-80120814D01*
X133790602Y-80120827D01*
X133730264Y-80266498D01*
X133730261Y-80266510D01*
X133699500Y-80421153D01*
X133699500Y-80575500D01*
X133679815Y-80642539D01*
X133627011Y-80688294D01*
X133575500Y-80699500D01*
X133421155Y-80699500D01*
X133266510Y-80730261D01*
X133266498Y-80730264D01*
X133120827Y-80790602D01*
X133120814Y-80790609D01*
X132989711Y-80878210D01*
X132989707Y-80878213D01*
X132878213Y-80989707D01*
X132878210Y-80989711D01*
X132790609Y-81120814D01*
X132790602Y-81120827D01*
X132730264Y-81266498D01*
X132730261Y-81266510D01*
X132699500Y-81421153D01*
X125675500Y-81421153D01*
X125675500Y-81355013D01*
X125684939Y-81307560D01*
X125700273Y-81270540D01*
X125721658Y-81218913D01*
X125750500Y-81073918D01*
X125750500Y-80926082D01*
X125750500Y-80926079D01*
X125721659Y-80781092D01*
X125721658Y-80781091D01*
X125721658Y-80781087D01*
X125721656Y-80781082D01*
X125665087Y-80644511D01*
X125665080Y-80644498D01*
X125582951Y-80521584D01*
X125582948Y-80521580D01*
X125478419Y-80417051D01*
X125478415Y-80417048D01*
X125355501Y-80334919D01*
X125355488Y-80334912D01*
X125218917Y-80278343D01*
X125218907Y-80278340D01*
X125073920Y-80249500D01*
X125073918Y-80249500D01*
X124926082Y-80249500D01*
X124926080Y-80249500D01*
X124781092Y-80278340D01*
X124781082Y-80278343D01*
X124644511Y-80334912D01*
X124644498Y-80334919D01*
X124521584Y-80417048D01*
X124521580Y-80417051D01*
X124417051Y-80521580D01*
X124417048Y-80521584D01*
X124334919Y-80644498D01*
X124334912Y-80644511D01*
X124278343Y-80781082D01*
X124278340Y-80781092D01*
X124249500Y-80926079D01*
X124249500Y-80926082D01*
X124249500Y-81073918D01*
X124249500Y-81073920D01*
X124249499Y-81073920D01*
X92500500Y-81073920D01*
X92500500Y-78874038D01*
X93899500Y-78874038D01*
X93899500Y-79125962D01*
X93916020Y-79230263D01*
X93938910Y-79374785D01*
X94016760Y-79614383D01*
X94131132Y-79838848D01*
X94279201Y-80042649D01*
X94279205Y-80042654D01*
X94457345Y-80220794D01*
X94457350Y-80220798D01*
X94614416Y-80334912D01*
X94661155Y-80368870D01*
X94780941Y-80429904D01*
X94885616Y-80483239D01*
X94885618Y-80483239D01*
X94885621Y-80483241D01*
X95125215Y-80561090D01*
X95374038Y-80600500D01*
X95374039Y-80600500D01*
X95625961Y-80600500D01*
X95625962Y-80600500D01*
X95874785Y-80561090D01*
X96114379Y-80483241D01*
X96338845Y-80368870D01*
X96542656Y-80220793D01*
X96720793Y-80042656D01*
X96868870Y-79838845D01*
X96983241Y-79614379D01*
X97061090Y-79374785D01*
X97100500Y-79125962D01*
X97100500Y-78874038D01*
X166899500Y-78874038D01*
X166899500Y-79125962D01*
X166916020Y-79230263D01*
X166938910Y-79374785D01*
X167016760Y-79614383D01*
X167131132Y-79838848D01*
X167279201Y-80042649D01*
X167279205Y-80042654D01*
X167457345Y-80220794D01*
X167457350Y-80220798D01*
X167614416Y-80334912D01*
X167661155Y-80368870D01*
X167780941Y-80429904D01*
X167885616Y-80483239D01*
X167885618Y-80483239D01*
X167885621Y-80483241D01*
X168125215Y-80561090D01*
X168374038Y-80600500D01*
X168374039Y-80600500D01*
X168625961Y-80600500D01*
X168625962Y-80600500D01*
X168874785Y-80561090D01*
X169114379Y-80483241D01*
X169338845Y-80368870D01*
X169542656Y-80220793D01*
X169720793Y-80042656D01*
X169868870Y-79838845D01*
X169983241Y-79614379D01*
X170061090Y-79374785D01*
X170100500Y-79125962D01*
X170100500Y-78874038D01*
X170061090Y-78625215D01*
X169983241Y-78385621D01*
X169983239Y-78385618D01*
X169983239Y-78385616D01*
X169941747Y-78304184D01*
X169868870Y-78161155D01*
X169849952Y-78135117D01*
X169720798Y-77957350D01*
X169720794Y-77957345D01*
X169542654Y-77779205D01*
X169542649Y-77779201D01*
X169338848Y-77631132D01*
X169338847Y-77631131D01*
X169338845Y-77631130D01*
X169268747Y-77595413D01*
X169114383Y-77516760D01*
X168874785Y-77438910D01*
X168625962Y-77399500D01*
X168374038Y-77399500D01*
X168249626Y-77419205D01*
X168125214Y-77438910D01*
X167885616Y-77516760D01*
X167661151Y-77631132D01*
X167457350Y-77779201D01*
X167457345Y-77779205D01*
X167279205Y-77957345D01*
X167279201Y-77957350D01*
X167131132Y-78161151D01*
X167016760Y-78385616D01*
X166938910Y-78625214D01*
X166938910Y-78625215D01*
X166899500Y-78874038D01*
X97100500Y-78874038D01*
X97061090Y-78625215D01*
X96983241Y-78385621D01*
X96983239Y-78385618D01*
X96983239Y-78385616D01*
X96941747Y-78304184D01*
X96868870Y-78161155D01*
X96849952Y-78135117D01*
X96720798Y-77957350D01*
X96720794Y-77957345D01*
X96542654Y-77779205D01*
X96542649Y-77779201D01*
X96338848Y-77631132D01*
X96338847Y-77631131D01*
X96338845Y-77631130D01*
X96268747Y-77595413D01*
X96114383Y-77516760D01*
X95874785Y-77438910D01*
X95625962Y-77399500D01*
X95374038Y-77399500D01*
X95249626Y-77419205D01*
X95125214Y-77438910D01*
X94885616Y-77516760D01*
X94661151Y-77631132D01*
X94457350Y-77779201D01*
X94457345Y-77779205D01*
X94279205Y-77957345D01*
X94279201Y-77957350D01*
X94131132Y-78161151D01*
X94016760Y-78385616D01*
X93938910Y-78625214D01*
X93938910Y-78625215D01*
X93899500Y-78874038D01*
X92500500Y-78874038D01*
X92500500Y-77550861D01*
X92520185Y-77483822D01*
X92536814Y-77463185D01*
X93963182Y-76036817D01*
X94024503Y-76003334D01*
X94050861Y-76000500D01*
X94065892Y-76000500D01*
X169934108Y-76000500D01*
X169949138Y-76000500D01*
X170016177Y-76020185D01*
G37*
%TD.AperFunction*%
%TD*%
M02*
