%TF.GenerationSoftware,KiCad,Pcbnew,9.0.1*%
%TF.CreationDate,2025-05-09T23:00:38+01:00*%
%TF.ProjectId,aom-preamp,616f6d2d-7072-4656-916d-702e6b696361,rev?*%
%TF.SameCoordinates,Original*%
%TF.FileFunction,Legend,Bot*%
%TF.FilePolarity,Positive*%
%FSLAX46Y46*%
G04 Gerber Fmt 4.6, Leading zero omitted, Abs format (unit mm)*
G04 Created by KiCad (PCBNEW 9.0.1) date 2025-05-09 23:00:38*
%MOMM*%
%LPD*%
G01*
G04 APERTURE LIST*
%ADD10C,0.100000*%
%ADD11C,0.000000*%
%ADD12C,2.700000*%
%ADD13C,1.200000*%
%ADD14C,0.900000*%
G04 APERTURE END LIST*
D10*
G36*
X163036925Y-96059590D02*
G01*
X163076560Y-96070830D01*
X163110283Y-96089408D01*
X163136967Y-96112742D01*
X163157648Y-96141104D01*
X163172053Y-96174181D01*
X163180378Y-96209921D01*
X163183166Y-96246892D01*
X163180155Y-96287474D01*
X163171577Y-96322620D01*
X163156618Y-96354084D01*
X163135142Y-96380090D01*
X163107321Y-96400490D01*
X163070289Y-96416208D01*
X163027061Y-96425171D01*
X162964715Y-96428670D01*
X162806592Y-96428670D01*
X162806592Y-96055272D01*
X162980670Y-96055272D01*
X163036925Y-96059590D01*
G37*
G36*
X163079129Y-95534011D02*
G01*
X163120060Y-95543039D01*
X163157116Y-95558551D01*
X163188881Y-95579713D01*
X163215305Y-95606838D01*
X163235477Y-95640199D01*
X163247967Y-95678342D01*
X163252384Y-95724103D01*
X163248073Y-95773308D01*
X163235953Y-95814118D01*
X163215674Y-95850003D01*
X163188008Y-95879447D01*
X163153394Y-95902281D01*
X163108947Y-95919613D01*
X163058320Y-95929562D01*
X162989561Y-95933346D01*
X162806592Y-95933346D01*
X162806592Y-95530736D01*
X163028615Y-95530736D01*
X163079129Y-95534011D01*
G37*
G36*
X161164621Y-93342378D02*
G01*
X161220295Y-93355111D01*
X161267276Y-93375153D01*
X161329140Y-93419223D01*
X161377375Y-93476044D01*
X161412711Y-93543563D01*
X161436909Y-93623133D01*
X161450148Y-93708187D01*
X161454690Y-93799989D01*
X161450198Y-93895843D01*
X161437306Y-93981767D01*
X161413686Y-94061552D01*
X161379597Y-94127507D01*
X161332601Y-94182380D01*
X161271721Y-94223952D01*
X161225473Y-94242537D01*
X161170401Y-94254404D01*
X161104788Y-94258641D01*
X161039336Y-94254100D01*
X160984244Y-94241343D01*
X160937774Y-94221253D01*
X160876446Y-94177563D01*
X160828073Y-94121712D01*
X160792381Y-94055437D01*
X160767745Y-93976449D01*
X160754193Y-93892014D01*
X160749567Y-93801815D01*
X160753941Y-93702618D01*
X160766395Y-93615116D01*
X160789651Y-93534191D01*
X160823230Y-93468027D01*
X160869839Y-93413287D01*
X160930233Y-93372058D01*
X160976209Y-93353799D01*
X161031673Y-93342060D01*
X161098517Y-93337845D01*
X161164621Y-93342378D01*
G37*
G36*
X163831369Y-93338405D02*
G01*
X163873921Y-93358166D01*
X163909425Y-93389080D01*
X163937821Y-93429369D01*
X163958806Y-93475925D01*
X163973780Y-93529069D01*
X163982476Y-93584495D01*
X163985369Y-93640279D01*
X163976003Y-93759109D01*
X163963074Y-93814241D01*
X163944092Y-93860952D01*
X163917318Y-93901325D01*
X163883288Y-93932155D01*
X163841637Y-93951877D01*
X163788271Y-93958906D01*
X163732309Y-93950412D01*
X163676347Y-93923662D01*
X163616813Y-93875558D01*
X163551167Y-93802053D01*
X163551167Y-93483903D01*
X163612646Y-93415960D01*
X163665631Y-93370708D01*
X163722013Y-93341012D01*
X163779381Y-93331495D01*
X163831369Y-93338405D01*
G37*
G36*
X167541599Y-96717901D02*
G01*
X160443507Y-96717901D01*
X160443507Y-95818484D01*
X160650978Y-95818484D01*
X160650978Y-96529878D01*
X160654471Y-96542261D01*
X160666933Y-96550676D01*
X160690033Y-96555994D01*
X160727341Y-96558217D01*
X160763776Y-96555994D01*
X160787272Y-96550676D01*
X160799258Y-96542261D01*
X160802830Y-96529878D01*
X160802830Y-95837535D01*
X160808025Y-95760750D01*
X160822357Y-95698543D01*
X160846722Y-95643317D01*
X160878716Y-95599795D01*
X160919216Y-95565394D01*
X160967541Y-95540499D01*
X161021631Y-95525746D01*
X161084308Y-95520575D01*
X161148603Y-95525664D01*
X161202821Y-95540023D01*
X161251060Y-95564562D01*
X161290772Y-95598446D01*
X161322110Y-95641272D01*
X161345861Y-95694971D01*
X161359909Y-95755325D01*
X161364992Y-95829597D01*
X161364992Y-96529878D01*
X161368484Y-96542261D01*
X161380947Y-96550676D01*
X161404443Y-96555994D01*
X161441354Y-96558217D01*
X161477233Y-96555994D01*
X161500333Y-96550676D01*
X161512795Y-96542261D01*
X161516844Y-96529878D01*
X161516844Y-95830074D01*
X161508838Y-95729089D01*
X161486203Y-95643533D01*
X161448553Y-95567196D01*
X161435319Y-95550660D01*
X161730214Y-95550660D01*
X161731960Y-95583126D01*
X161737358Y-95604082D01*
X161746249Y-95615195D01*
X161758632Y-95618370D01*
X161771825Y-95615316D01*
X161793717Y-95603129D01*
X161851902Y-95569949D01*
X161937631Y-95536292D01*
X161990026Y-95524734D01*
X162053524Y-95520575D01*
X162101880Y-95524023D01*
X162144493Y-95533911D01*
X162183472Y-95550293D01*
X162215537Y-95571616D01*
X162241823Y-95598787D01*
X162261259Y-95631547D01*
X162273136Y-95668786D01*
X162277294Y-95712355D01*
X162271492Y-95758589D01*
X162255068Y-95795861D01*
X162229595Y-95828108D01*
X162196407Y-95856745D01*
X162113376Y-95904690D01*
X162017963Y-95949142D01*
X161922946Y-95999389D01*
X161879035Y-96029495D01*
X161840313Y-96064241D01*
X161807569Y-96104470D01*
X161781255Y-96151717D01*
X161764644Y-96205102D01*
X161758632Y-96272214D01*
X161765422Y-96341474D01*
X161784827Y-96400570D01*
X161816266Y-96452631D01*
X161857617Y-96495190D01*
X161907963Y-96528489D01*
X161968668Y-96553454D01*
X162034739Y-96568331D01*
X162107661Y-96573457D01*
X162184420Y-96566789D01*
X162257290Y-96549009D01*
X162318094Y-96524084D01*
X162353180Y-96501857D01*
X162364293Y-96488522D01*
X162368738Y-96476139D01*
X162371437Y-96458040D01*
X162372310Y-96430655D01*
X162370961Y-96402316D01*
X162366912Y-96381519D01*
X162359371Y-96369136D01*
X162348338Y-96365167D01*
X162317698Y-96377550D01*
X162266577Y-96405333D01*
X162195136Y-96433592D01*
X162152327Y-96443092D01*
X162102342Y-96446451D01*
X162056228Y-96443017D01*
X162018836Y-96433512D01*
X161985781Y-96418137D01*
X161960254Y-96399300D01*
X161940044Y-96376019D01*
X161925566Y-96348656D01*
X161916962Y-96318567D01*
X161914056Y-96286423D01*
X161919828Y-96240937D01*
X161936282Y-96203710D01*
X161961796Y-96171463D01*
X161995340Y-96142430D01*
X162079243Y-96093612D01*
X162175133Y-96048683D01*
X162271023Y-95998913D01*
X162315739Y-95969228D01*
X162354926Y-95934933D01*
X162388066Y-95895039D01*
X162414460Y-95847855D01*
X162431170Y-95794752D01*
X162437163Y-95729262D01*
X162429445Y-95651499D01*
X162407396Y-95585269D01*
X162371781Y-95526850D01*
X162324762Y-95478187D01*
X162308229Y-95467074D01*
X162655614Y-95467074D01*
X162655614Y-95933346D01*
X162655614Y-96428670D01*
X162655614Y-96491062D01*
X162660688Y-96521743D01*
X162673791Y-96539324D01*
X162692866Y-96549783D01*
X162712449Y-96553136D01*
X162973526Y-96553136D01*
X163071758Y-96547692D01*
X163142286Y-96533530D01*
X163203742Y-96508857D01*
X163251908Y-96476536D01*
X163290376Y-96435000D01*
X163318110Y-96384774D01*
X163334561Y-96328100D01*
X163340336Y-96261895D01*
X163337861Y-96221553D01*
X163330573Y-96183548D01*
X163318392Y-96147409D01*
X163301679Y-96114488D01*
X163280264Y-96084677D01*
X163253734Y-96057971D01*
X163222998Y-96035418D01*
X163187611Y-96017011D01*
X163233205Y-96004496D01*
X163275484Y-95984704D01*
X163313770Y-95958101D01*
X163347004Y-95925011D01*
X163374154Y-95886087D01*
X163395346Y-95840075D01*
X163408549Y-95789847D01*
X163413127Y-95733152D01*
X163409565Y-95680504D01*
X163399315Y-95633611D01*
X163382618Y-95589975D01*
X163360737Y-95551771D01*
X163333384Y-95517814D01*
X163300806Y-95488109D01*
X163263834Y-95463122D01*
X163221744Y-95442149D01*
X163183150Y-95428337D01*
X164055223Y-95428337D01*
X164055223Y-96483918D01*
X164060635Y-96517282D01*
X164074750Y-96537181D01*
X164095594Y-96549201D01*
X164118329Y-96553136D01*
X164210647Y-96553136D01*
X164260338Y-96547818D01*
X164297646Y-96530910D01*
X164324317Y-96501699D01*
X164342971Y-96460025D01*
X164675966Y-95628769D01*
X164680411Y-95628769D01*
X165026741Y-96457326D01*
X165048015Y-96502572D01*
X165073337Y-96532260D01*
X165103977Y-96548215D01*
X165143111Y-96553136D01*
X165239874Y-96553136D01*
X165265196Y-96549088D01*
X165285596Y-96536705D01*
X165299408Y-96515431D01*
X165304726Y-96483918D01*
X165304726Y-95428337D01*
X165611050Y-95428337D01*
X165611050Y-96529799D01*
X165615019Y-96542261D01*
X165628354Y-96550676D01*
X165652327Y-96555994D01*
X165687412Y-96558217D01*
X165724244Y-96555994D01*
X165747820Y-96550676D01*
X165760282Y-96542261D01*
X165763854Y-96529799D01*
X165763854Y-95428337D01*
X166069542Y-95428337D01*
X166069542Y-96487490D01*
X166074916Y-96519104D01*
X166089070Y-96538054D01*
X166109723Y-96549434D01*
X166131696Y-96553136D01*
X166204566Y-96553136D01*
X166247589Y-96548691D01*
X166278706Y-96534006D01*
X166305298Y-96505668D01*
X166333319Y-96460025D01*
X166612177Y-95956127D01*
X166661868Y-95866032D01*
X166708066Y-95779589D01*
X166752042Y-95695765D01*
X166795066Y-95612814D01*
X166796018Y-95612814D01*
X166793716Y-95759109D01*
X166793319Y-95905404D01*
X166793319Y-96529719D01*
X166796892Y-96541309D01*
X166808878Y-96550596D01*
X166831024Y-96556391D01*
X166867062Y-96558217D01*
X166900799Y-96556391D01*
X166922945Y-96550596D01*
X166934535Y-96541229D01*
X166938107Y-96529719D01*
X166938107Y-95465883D01*
X166932312Y-95435560D01*
X166926965Y-95428337D01*
X167244351Y-95428337D01*
X167244351Y-96529799D01*
X167248319Y-96542261D01*
X167261655Y-96550676D01*
X167285628Y-96555994D01*
X167320713Y-96558217D01*
X167357545Y-96555994D01*
X167381120Y-96550676D01*
X167393583Y-96542261D01*
X167397155Y-96529799D01*
X167397155Y-95428337D01*
X167393583Y-95415874D01*
X167381120Y-95407460D01*
X167357545Y-95402142D01*
X167320713Y-95399919D01*
X167284357Y-95402142D01*
X167260385Y-95407460D01*
X167247923Y-95415874D01*
X167244351Y-95428337D01*
X166926965Y-95428337D01*
X166917151Y-95415081D01*
X166896274Y-95403491D01*
X166873254Y-95399919D01*
X166824436Y-95399919D01*
X166783953Y-95405000D01*
X166751090Y-95423257D01*
X166720053Y-95459453D01*
X166685840Y-95517003D01*
X166323555Y-96169974D01*
X166266243Y-96275945D01*
X166212504Y-96383742D01*
X166210758Y-96383742D01*
X166213377Y-96253322D01*
X166214330Y-96121156D01*
X166214330Y-95428337D01*
X166210758Y-95416271D01*
X166198771Y-95407460D01*
X166176545Y-95402142D01*
X166141460Y-95399919D01*
X166106374Y-95402142D01*
X166084624Y-95407460D01*
X166073114Y-95416271D01*
X166069542Y-95428337D01*
X165763854Y-95428337D01*
X165760282Y-95415874D01*
X165747820Y-95407460D01*
X165724244Y-95402142D01*
X165687412Y-95399919D01*
X165651057Y-95402142D01*
X165627084Y-95407460D01*
X165614622Y-95415874D01*
X165611050Y-95428337D01*
X165304726Y-95428337D01*
X165301154Y-95415874D01*
X165288771Y-95407460D01*
X165266069Y-95402142D01*
X165230110Y-95399919D01*
X165195025Y-95402142D01*
X165171926Y-95407460D01*
X165159939Y-95415874D01*
X165156447Y-95428337D01*
X165156447Y-96428035D01*
X165154621Y-96428035D01*
X164745264Y-95423892D01*
X164737643Y-95413255D01*
X164723435Y-95405714D01*
X164701288Y-95401269D01*
X164670648Y-95399919D01*
X164638658Y-95401745D01*
X164616511Y-95406587D01*
X164602699Y-95414128D01*
X164596031Y-95423892D01*
X164204455Y-96428035D01*
X164203582Y-96428035D01*
X164203582Y-95428337D01*
X164200010Y-95415874D01*
X164187547Y-95407460D01*
X164164448Y-95402142D01*
X164128093Y-95399919D01*
X164092531Y-95402142D01*
X164069908Y-95407460D01*
X164058319Y-95415874D01*
X164055223Y-95428337D01*
X163183150Y-95428337D01*
X163176659Y-95426014D01*
X163127601Y-95414287D01*
X163075593Y-95407470D01*
X163012660Y-95405000D01*
X162712449Y-95405000D01*
X162692861Y-95408335D01*
X162673791Y-95418732D01*
X162660684Y-95436378D01*
X162655614Y-95467074D01*
X162308229Y-95467074D01*
X162267947Y-95439998D01*
X162200455Y-95411985D01*
X162127154Y-95395451D01*
X162046380Y-95389759D01*
X161989834Y-95392307D01*
X161939378Y-95399602D01*
X161851426Y-95423733D01*
X161786653Y-95453341D01*
X161750218Y-95479298D01*
X161735056Y-95506525D01*
X161730214Y-95550660D01*
X161435319Y-95550660D01*
X161398728Y-95504938D01*
X161336330Y-95455523D01*
X161260132Y-95418970D01*
X161175002Y-95397398D01*
X161074544Y-95389759D01*
X160982266Y-95396860D01*
X160901339Y-95417224D01*
X160828224Y-95451547D01*
X160767268Y-95498270D01*
X160718358Y-95557724D01*
X160681142Y-95632420D01*
X160658911Y-95716878D01*
X160650978Y-95818484D01*
X160443507Y-95818484D01*
X160443507Y-93791416D01*
X160587951Y-93791416D01*
X160588622Y-93801815D01*
X160596481Y-93923590D01*
X160620735Y-94038364D01*
X160646968Y-94110268D01*
X160679882Y-94172857D01*
X160719323Y-94227207D01*
X160766460Y-94274830D01*
X160820957Y-94314748D01*
X160883638Y-94347228D01*
X160950633Y-94370070D01*
X161026822Y-94384423D01*
X161113678Y-94389457D01*
X161197676Y-94384867D01*
X161270877Y-94371831D01*
X161334748Y-94351197D01*
X161394597Y-94321484D01*
X161446580Y-94284396D01*
X161491522Y-94239669D01*
X161528905Y-94188296D01*
X161560066Y-94128292D01*
X161584792Y-94058447D01*
X161607335Y-93946073D01*
X161615432Y-93810944D01*
X161606839Y-93675432D01*
X161582569Y-93559392D01*
X161582167Y-93558281D01*
X161835471Y-93558281D01*
X161835471Y-94041936D01*
X161838566Y-94053843D01*
X161850553Y-94062734D01*
X161873652Y-94068052D01*
X161909134Y-94069401D01*
X161944696Y-94068052D01*
X161967319Y-94062734D01*
X161979305Y-94053843D01*
X161982877Y-94041936D01*
X161982877Y-93577728D01*
X161985746Y-93511275D01*
X161993038Y-93465725D01*
X162006283Y-93425956D01*
X162024154Y-93393966D01*
X162047839Y-93367567D01*
X162077021Y-93347847D01*
X162110872Y-93335760D01*
X162151637Y-93331495D01*
X162205178Y-93340701D01*
X162261259Y-93370232D01*
X162314717Y-93415250D01*
X162377152Y-93483823D01*
X162377152Y-94041936D01*
X162380248Y-94053843D01*
X162392234Y-94062734D01*
X162414857Y-94068052D01*
X162450895Y-94069401D01*
X162486378Y-94068052D01*
X162508604Y-94062734D01*
X162520590Y-94053843D01*
X162524559Y-94041936D01*
X162524559Y-94002882D01*
X162688397Y-94002882D01*
X162690620Y-94031379D01*
X162696414Y-94050509D01*
X162705702Y-94061225D01*
X162718640Y-94064321D01*
X162829612Y-94064321D01*
X162829612Y-94254354D01*
X162832708Y-94265864D01*
X162844218Y-94275231D01*
X162866920Y-94280946D01*
X162902403Y-94282772D01*
X162938838Y-94280946D01*
X162960984Y-94275231D01*
X162972574Y-94265864D01*
X162976146Y-94254354D01*
X162976146Y-94064321D01*
X163181261Y-94064321D01*
X163193723Y-94061225D01*
X163203011Y-94050509D01*
X163208805Y-94031379D01*
X163210552Y-94002882D01*
X163208174Y-93973288D01*
X163202534Y-93956604D01*
X163192952Y-93945754D01*
X163181261Y-93942395D01*
X162976146Y-93942395D01*
X162976146Y-93497953D01*
X162983122Y-93421388D01*
X163000515Y-93373566D01*
X163020195Y-93350891D01*
X163048353Y-93336732D01*
X163088070Y-93331495D01*
X163124426Y-93335464D01*
X163152843Y-93343957D01*
X163174196Y-93352372D01*
X163190151Y-93356420D01*
X163198565Y-93354197D01*
X163204836Y-93345704D01*
X163208805Y-93328796D01*
X163210552Y-93302045D01*
X163206980Y-93261006D01*
X163196343Y-93238780D01*
X163175069Y-93225365D01*
X163142603Y-93215125D01*
X163104025Y-93208458D01*
X163063145Y-93205759D01*
X163003545Y-93210140D01*
X162956539Y-93222111D01*
X162915803Y-93242990D01*
X162883749Y-93271802D01*
X162859698Y-93308520D01*
X162842472Y-93356023D01*
X162833064Y-93409364D01*
X162829612Y-93476123D01*
X162829612Y-93942395D01*
X162717688Y-93942395D01*
X162706048Y-93945746D01*
X162696414Y-93956604D01*
X162690775Y-93973288D01*
X162688397Y-94002882D01*
X162524559Y-94002882D01*
X162524559Y-93243384D01*
X162521463Y-93231398D01*
X162510350Y-93222984D01*
X162489474Y-93217745D01*
X162457960Y-93215919D01*
X162424621Y-93217745D01*
X162404221Y-93222984D01*
X162393981Y-93231398D01*
X162391361Y-93243464D01*
X162391361Y-93349038D01*
X162320801Y-93282316D01*
X162256417Y-93240050D01*
X162188609Y-93214142D01*
X162121393Y-93205759D01*
X162045424Y-93212884D01*
X161986846Y-93232351D01*
X161937078Y-93263992D01*
X161898497Y-93304506D01*
X161869806Y-93353283D01*
X161850076Y-93410795D01*
X161839447Y-93474830D01*
X161835471Y-93558281D01*
X161582167Y-93558281D01*
X161556374Y-93486910D01*
X161523588Y-93423736D01*
X161484378Y-93368803D01*
X161437476Y-93320716D01*
X161383143Y-93280543D01*
X161320539Y-93247988D01*
X161253544Y-93225144D01*
X161177381Y-93210792D01*
X161090579Y-93205759D01*
X161004705Y-93210423D01*
X160930468Y-93223618D01*
X160866254Y-93244416D01*
X160806204Y-93274488D01*
X160754398Y-93311872D01*
X160709957Y-93356817D01*
X160673221Y-93408464D01*
X160642520Y-93469054D01*
X160618115Y-93539865D01*
X160595943Y-93653711D01*
X160587951Y-93791416D01*
X160443507Y-93791416D01*
X160443507Y-92924281D01*
X163404633Y-92924281D01*
X163404633Y-93483903D01*
X163404633Y-94041857D01*
X163407253Y-94054716D01*
X163417889Y-94063131D01*
X163438290Y-94068052D01*
X163468533Y-94069401D01*
X163499173Y-94068052D01*
X163519177Y-94063289D01*
X163530290Y-94055034D01*
X163533386Y-94042413D01*
X163533386Y-93937156D01*
X163603557Y-94002009D01*
X163671426Y-94047731D01*
X163741597Y-94075275D01*
X163817562Y-94084642D01*
X163900170Y-94075716D01*
X163965842Y-94050827D01*
X164021425Y-94010880D01*
X164065701Y-93958430D01*
X164098694Y-93896059D01*
X164122139Y-93821977D01*
X164135378Y-93742817D01*
X164139920Y-93657187D01*
X164134135Y-93558281D01*
X164355275Y-93558281D01*
X164355275Y-94041936D01*
X164358371Y-94053843D01*
X164370357Y-94062734D01*
X164393456Y-94068052D01*
X164428939Y-94069401D01*
X164464501Y-94068052D01*
X164487124Y-94062734D01*
X164499110Y-94053843D01*
X164502682Y-94041936D01*
X164502682Y-93577728D01*
X164505551Y-93511275D01*
X164512842Y-93465725D01*
X164526087Y-93425956D01*
X164543959Y-93393966D01*
X164567643Y-93367567D01*
X164596825Y-93347847D01*
X164630677Y-93335760D01*
X164671441Y-93331495D01*
X164724982Y-93340701D01*
X164781064Y-93370232D01*
X164834521Y-93415250D01*
X164896957Y-93483823D01*
X164896957Y-94041936D01*
X164900053Y-94053843D01*
X164912039Y-94062734D01*
X164934662Y-94068052D01*
X164970700Y-94069401D01*
X165006182Y-94068052D01*
X165028408Y-94062734D01*
X165040395Y-94053843D01*
X165044364Y-94041936D01*
X165044364Y-94002882D01*
X165208202Y-94002882D01*
X165210424Y-94031379D01*
X165216219Y-94050509D01*
X165225506Y-94061225D01*
X165238445Y-94064321D01*
X165349417Y-94064321D01*
X165349417Y-94254354D01*
X165352513Y-94265864D01*
X165364023Y-94275231D01*
X165386725Y-94280946D01*
X165422207Y-94282772D01*
X165458642Y-94280946D01*
X165480789Y-94275231D01*
X165492378Y-94265864D01*
X165495950Y-94254354D01*
X165495950Y-94064321D01*
X165701065Y-94064321D01*
X165713528Y-94061225D01*
X165722815Y-94050509D01*
X165728610Y-94031379D01*
X165730356Y-94002882D01*
X165727978Y-93973288D01*
X165722339Y-93956604D01*
X165712757Y-93945754D01*
X165701065Y-93942395D01*
X165495950Y-93942395D01*
X165495950Y-93497953D01*
X165502927Y-93421388D01*
X165520320Y-93373566D01*
X165539999Y-93350891D01*
X165568157Y-93336732D01*
X165607875Y-93331495D01*
X165644230Y-93335464D01*
X165672648Y-93343957D01*
X165694001Y-93352372D01*
X165709956Y-93356420D01*
X165718370Y-93354197D01*
X165724641Y-93345704D01*
X165728610Y-93328796D01*
X165730356Y-93302045D01*
X165726784Y-93261006D01*
X165716147Y-93238780D01*
X165694874Y-93225365D01*
X165662408Y-93215125D01*
X165623830Y-93208458D01*
X165582950Y-93205759D01*
X165523350Y-93210140D01*
X165476344Y-93222111D01*
X165435608Y-93242990D01*
X165403553Y-93271802D01*
X165379503Y-93308520D01*
X165362276Y-93356023D01*
X165352868Y-93409364D01*
X165349417Y-93476123D01*
X165349417Y-93942395D01*
X165237493Y-93942395D01*
X165225853Y-93945746D01*
X165216219Y-93956604D01*
X165210580Y-93973288D01*
X165208202Y-94002882D01*
X165044364Y-94002882D01*
X165044364Y-93243384D01*
X165041268Y-93231398D01*
X165030155Y-93222984D01*
X165009278Y-93217745D01*
X164977765Y-93215919D01*
X164944426Y-93217745D01*
X164924025Y-93222984D01*
X164913785Y-93231398D01*
X164911166Y-93243464D01*
X164911166Y-93349038D01*
X164840605Y-93282316D01*
X164776222Y-93240050D01*
X164708413Y-93214142D01*
X164641198Y-93205759D01*
X164565229Y-93212884D01*
X164506651Y-93232351D01*
X164456883Y-93263992D01*
X164418302Y-93304506D01*
X164389611Y-93353283D01*
X164369881Y-93410795D01*
X164359251Y-93474830D01*
X164355275Y-93558281D01*
X164134135Y-93558281D01*
X164133963Y-93555338D01*
X164117218Y-93468741D01*
X164088542Y-93390053D01*
X164050619Y-93327050D01*
X164001415Y-93275456D01*
X163941870Y-93237272D01*
X163873717Y-93213925D01*
X163793590Y-93205759D01*
X163727864Y-93212903D01*
X163668806Y-93235050D01*
X163611495Y-93273310D01*
X163551167Y-93327526D01*
X163551167Y-92924519D01*
X163547595Y-92911977D01*
X163536005Y-92903008D01*
X163513859Y-92897689D01*
X163477424Y-92895863D01*
X163441941Y-92897689D01*
X163419239Y-92903008D01*
X163407729Y-92911898D01*
X163404633Y-92924281D01*
X160443507Y-92924281D01*
X160443507Y-92751419D01*
X167541599Y-92751419D01*
X167541599Y-96717901D01*
G37*
G36*
X123090987Y-90476454D02*
G01*
X123154106Y-90491372D01*
X123213073Y-90515104D01*
X123261506Y-90544238D01*
X123257368Y-90653368D01*
X123246424Y-90735462D01*
X123226782Y-90808468D01*
X123202051Y-90860960D01*
X123168679Y-90902952D01*
X123130134Y-90930178D01*
X123085158Y-90945977D01*
X123031545Y-90951531D01*
X122976615Y-90946004D01*
X122932957Y-90930655D01*
X122895557Y-90906127D01*
X122865881Y-90874772D01*
X122843240Y-90837612D01*
X122827224Y-90795314D01*
X122817951Y-90750395D01*
X122814841Y-90703948D01*
X122817729Y-90652845D01*
X122825954Y-90608059D01*
X122840807Y-90567328D01*
X122861912Y-90534474D01*
X122890130Y-90508031D01*
X122926686Y-90487879D01*
X122969399Y-90475886D01*
X123025274Y-90471448D01*
X123090987Y-90476454D01*
G37*
G36*
X125486393Y-90559590D02*
G01*
X125526028Y-90570830D01*
X125559751Y-90589408D01*
X125586435Y-90612742D01*
X125607115Y-90641104D01*
X125621521Y-90674181D01*
X125629846Y-90709921D01*
X125632634Y-90746892D01*
X125629623Y-90787474D01*
X125621045Y-90822620D01*
X125606086Y-90854084D01*
X125584610Y-90880090D01*
X125556789Y-90900490D01*
X125519757Y-90916208D01*
X125476529Y-90925171D01*
X125414183Y-90928670D01*
X125256060Y-90928670D01*
X125256060Y-90555272D01*
X125430138Y-90555272D01*
X125486393Y-90559590D01*
G37*
G36*
X125528597Y-90034011D02*
G01*
X125569528Y-90043039D01*
X125606583Y-90058551D01*
X125638349Y-90079713D01*
X125664773Y-90106838D01*
X125684945Y-90140199D01*
X125697435Y-90178342D01*
X125701852Y-90224103D01*
X125697541Y-90273308D01*
X125685421Y-90314118D01*
X125665142Y-90350003D01*
X125637476Y-90379447D01*
X125602862Y-90402281D01*
X125558415Y-90419613D01*
X125507788Y-90429562D01*
X125439029Y-90433346D01*
X125256060Y-90433346D01*
X125256060Y-90030736D01*
X125478083Y-90030736D01*
X125528597Y-90034011D01*
G37*
G36*
X126379284Y-90011361D02*
G01*
X126430630Y-90033196D01*
X126478776Y-90068047D01*
X126534061Y-90122418D01*
X126534061Y-90291099D01*
X126408880Y-90291099D01*
X126350517Y-90288366D01*
X126304021Y-90280938D01*
X126262235Y-90267849D01*
X126230357Y-90250853D01*
X126204591Y-90228621D01*
X126187254Y-90203147D01*
X126177089Y-90173879D01*
X126173522Y-90139167D01*
X126178183Y-90099667D01*
X126191398Y-90067381D01*
X126213053Y-90040658D01*
X126241489Y-90021031D01*
X126277620Y-90008576D01*
X126323627Y-90004064D01*
X126379284Y-90011361D01*
G37*
G36*
X128596008Y-90483908D02*
G01*
X128578478Y-90542705D01*
X128550047Y-90589087D01*
X128509960Y-90624403D01*
X128458070Y-90646391D01*
X128390655Y-90654337D01*
X128338821Y-90649037D01*
X128295638Y-90634016D01*
X128257881Y-90610294D01*
X128227213Y-90580276D01*
X128203039Y-90544412D01*
X128184587Y-90502247D01*
X128172871Y-90456900D01*
X128167759Y-90409214D01*
X128601168Y-90409214D01*
X128596008Y-90483908D01*
G37*
G36*
X131842795Y-90019021D02*
G01*
X131892694Y-90036054D01*
X131935623Y-90063888D01*
X131969930Y-90100907D01*
X131995771Y-90145773D01*
X132014382Y-90200368D01*
X132024900Y-90259808D01*
X132028591Y-90327454D01*
X132025523Y-90391246D01*
X132016605Y-90450015D01*
X132000397Y-90505018D01*
X131977074Y-90551223D01*
X131944813Y-90590085D01*
X131902458Y-90620124D01*
X131851660Y-90638668D01*
X131785294Y-90645446D01*
X131723440Y-90639346D01*
X131673767Y-90622347D01*
X131631269Y-90594456D01*
X131597008Y-90557018D01*
X131571104Y-90511825D01*
X131552158Y-90457080D01*
X131541274Y-90397793D01*
X131537473Y-90330947D01*
X131540551Y-90266376D01*
X131549460Y-90207433D01*
X131565776Y-90152518D01*
X131589387Y-90106622D01*
X131621985Y-90068193D01*
X131664480Y-90038277D01*
X131715287Y-90019735D01*
X131781722Y-90012955D01*
X131842795Y-90019021D01*
G37*
G36*
X123150132Y-87838405D02*
G01*
X123192684Y-87858166D01*
X123228189Y-87889080D01*
X123256584Y-87929369D01*
X123277569Y-87975925D01*
X123292543Y-88029069D01*
X123301239Y-88084495D01*
X123304132Y-88140279D01*
X123294766Y-88259109D01*
X123281837Y-88314241D01*
X123262855Y-88360952D01*
X123236081Y-88401325D01*
X123202051Y-88432155D01*
X123160400Y-88451877D01*
X123107035Y-88458906D01*
X123051072Y-88450412D01*
X122995110Y-88423662D01*
X122935576Y-88375558D01*
X122869930Y-88302053D01*
X122869930Y-87983903D01*
X122931409Y-87915960D01*
X122984394Y-87870708D01*
X123040776Y-87841012D01*
X123098144Y-87831495D01*
X123150132Y-87838405D01*
G37*
G36*
X124081441Y-87835021D02*
G01*
X124131340Y-87852054D01*
X124174269Y-87879888D01*
X124208576Y-87916907D01*
X124234417Y-87961773D01*
X124253028Y-88016368D01*
X124263546Y-88075808D01*
X124267237Y-88143454D01*
X124264169Y-88207246D01*
X124255251Y-88266015D01*
X124239043Y-88321018D01*
X124215720Y-88367223D01*
X124183459Y-88406085D01*
X124141104Y-88436124D01*
X124090306Y-88454668D01*
X124023941Y-88461446D01*
X123962086Y-88455346D01*
X123912413Y-88438347D01*
X123869916Y-88410456D01*
X123835654Y-88373018D01*
X123809750Y-88327825D01*
X123790805Y-88273080D01*
X123779920Y-88213793D01*
X123776120Y-88146947D01*
X123779197Y-88082376D01*
X123788106Y-88023433D01*
X123804422Y-87968518D01*
X123828033Y-87922622D01*
X123860631Y-87884193D01*
X123903126Y-87854277D01*
X123953933Y-87835735D01*
X124020368Y-87828955D01*
X124081441Y-87835021D01*
G37*
G36*
X126444521Y-88299908D02*
G01*
X126426992Y-88358705D01*
X126398561Y-88405087D01*
X126358474Y-88440403D01*
X126306584Y-88462391D01*
X126239168Y-88470337D01*
X126187334Y-88465037D01*
X126144152Y-88450016D01*
X126106395Y-88426294D01*
X126075727Y-88396276D01*
X126051553Y-88360412D01*
X126033101Y-88318247D01*
X126021385Y-88272900D01*
X126016272Y-88225214D01*
X126449681Y-88225214D01*
X126444521Y-88299908D01*
G37*
G36*
X128291346Y-87838405D02*
G01*
X128333899Y-87858166D01*
X128369403Y-87889080D01*
X128397799Y-87929369D01*
X128418783Y-87975925D01*
X128433757Y-88029069D01*
X128442453Y-88084495D01*
X128445347Y-88140279D01*
X128435980Y-88259109D01*
X128423051Y-88314241D01*
X128404070Y-88360952D01*
X128377295Y-88401325D01*
X128343265Y-88432155D01*
X128301614Y-88451877D01*
X128248249Y-88458906D01*
X128192287Y-88450412D01*
X128136325Y-88423662D01*
X128076790Y-88375558D01*
X128011144Y-88302053D01*
X128011144Y-87983903D01*
X128072623Y-87915960D01*
X128125608Y-87870708D01*
X128181991Y-87841012D01*
X128239358Y-87831495D01*
X128291346Y-87838405D01*
G37*
G36*
X129958785Y-88299908D02*
G01*
X129941255Y-88358705D01*
X129912825Y-88405087D01*
X129872738Y-88440403D01*
X129820847Y-88462391D01*
X129753432Y-88470337D01*
X129701598Y-88465037D01*
X129658415Y-88450016D01*
X129620659Y-88426294D01*
X129589991Y-88396276D01*
X129565816Y-88360412D01*
X129547364Y-88318247D01*
X129535648Y-88272900D01*
X129530536Y-88225214D01*
X129963945Y-88225214D01*
X129958785Y-88299908D01*
G37*
G36*
X130636534Y-87827361D02*
G01*
X130687881Y-87849196D01*
X130736027Y-87884047D01*
X130791311Y-87938418D01*
X130791311Y-88107099D01*
X130666131Y-88107099D01*
X130607767Y-88104366D01*
X130561271Y-88096938D01*
X130519486Y-88083849D01*
X130487608Y-88066853D01*
X130461842Y-88044621D01*
X130444505Y-88019147D01*
X130434340Y-87989879D01*
X130430772Y-87955167D01*
X130435434Y-87915667D01*
X130448648Y-87883381D01*
X130470303Y-87856658D01*
X130498740Y-87837031D01*
X130534871Y-87824576D01*
X130580878Y-87820064D01*
X130636534Y-87827361D01*
G37*
G36*
X133085833Y-87838405D02*
G01*
X133128386Y-87858166D01*
X133163890Y-87889080D01*
X133192286Y-87929369D01*
X133213270Y-87975925D01*
X133228244Y-88029069D01*
X133236941Y-88084495D01*
X133239834Y-88140279D01*
X133230467Y-88259109D01*
X133217538Y-88314241D01*
X133198557Y-88360952D01*
X133171782Y-88401325D01*
X133137752Y-88432155D01*
X133096101Y-88451877D01*
X133042736Y-88458906D01*
X132986774Y-88450412D01*
X132930812Y-88423662D01*
X132871277Y-88375558D01*
X132805631Y-88302053D01*
X132805631Y-87983903D01*
X132867110Y-87915960D01*
X132920095Y-87870708D01*
X132976478Y-87841012D01*
X133033845Y-87831495D01*
X133085833Y-87838405D01*
G37*
G36*
X133538829Y-91217901D02*
G01*
X122515846Y-91217901D01*
X122515846Y-90692756D01*
X122660290Y-90692756D01*
X122661131Y-90703948D01*
X122665921Y-90767700D01*
X122682516Y-90837861D01*
X122711061Y-90902702D01*
X122751814Y-90958993D01*
X122804455Y-91005444D01*
X122871676Y-91042420D01*
X122948848Y-91065200D01*
X123045754Y-91073457D01*
X123115253Y-91068647D01*
X123173157Y-91055200D01*
X123225528Y-91032721D01*
X123229126Y-91030275D01*
X123540205Y-91030275D01*
X123547746Y-91048453D01*
X123573465Y-91056391D01*
X123621489Y-91058217D01*
X123660941Y-91056867D01*
X123683564Y-91051946D01*
X123695550Y-91042658D01*
X123703170Y-91028053D01*
X124032593Y-90062249D01*
X124033545Y-90062249D01*
X124354077Y-91026306D01*
X124360269Y-91042261D01*
X124372732Y-91051946D01*
X124397577Y-91056867D01*
X124440283Y-91058217D01*
X124483703Y-91055994D01*
X124505532Y-91047580D01*
X124509978Y-91029402D01*
X124501484Y-90997889D01*
X124139125Y-89967074D01*
X125105081Y-89967074D01*
X125105081Y-90433346D01*
X125105081Y-90928670D01*
X125105081Y-90991062D01*
X125110155Y-91021743D01*
X125123259Y-91039324D01*
X125142334Y-91049783D01*
X125161917Y-91053136D01*
X125422994Y-91053136D01*
X125521226Y-91047692D01*
X125591754Y-91033530D01*
X125653210Y-91008857D01*
X125701376Y-90976536D01*
X125739843Y-90935000D01*
X125767578Y-90884774D01*
X125784029Y-90828100D01*
X125789804Y-90761895D01*
X125787329Y-90721553D01*
X125780040Y-90683548D01*
X125767860Y-90647409D01*
X125751147Y-90614488D01*
X125729732Y-90584677D01*
X125703202Y-90557971D01*
X125672466Y-90535418D01*
X125637079Y-90517011D01*
X125682673Y-90504496D01*
X125724952Y-90484704D01*
X125763238Y-90458101D01*
X125796472Y-90425011D01*
X125823622Y-90386087D01*
X125844814Y-90340075D01*
X125858017Y-90289847D01*
X125862595Y-90233152D01*
X125859033Y-90180504D01*
X125848783Y-90133611D01*
X125848206Y-90132103D01*
X126023416Y-90132103D01*
X126024209Y-90139167D01*
X126030598Y-90196090D01*
X126050961Y-90248790D01*
X126084139Y-90293740D01*
X126130022Y-90331026D01*
X126185504Y-90358999D01*
X126256076Y-90380162D01*
X126333173Y-90392210D01*
X126423962Y-90396514D01*
X126534061Y-90396514D01*
X126534061Y-90459223D01*
X126531475Y-90504345D01*
X126524297Y-90541698D01*
X126511254Y-90575075D01*
X126492784Y-90601311D01*
X126468261Y-90621835D01*
X126436345Y-90637111D01*
X126399526Y-90645957D01*
X126351092Y-90649256D01*
X126298581Y-90645827D01*
X126253853Y-90636159D01*
X126178364Y-90607344D01*
X126124228Y-90578450D01*
X126091841Y-90565432D01*
X126079378Y-90569004D01*
X126070012Y-90579641D01*
X126064296Y-90597898D01*
X126062550Y-90622426D01*
X126065646Y-90657591D01*
X126080728Y-90682119D01*
X126122005Y-90709505D01*
X126189477Y-90738399D01*
X126272984Y-90760069D01*
X126364428Y-90768642D01*
X126447044Y-90763341D01*
X126510962Y-90749036D01*
X126566679Y-90724283D01*
X126608677Y-90691645D01*
X126612307Y-90686882D01*
X126825778Y-90686882D01*
X126828001Y-90715379D01*
X126833796Y-90734509D01*
X126843083Y-90745225D01*
X126856022Y-90748321D01*
X126966994Y-90748321D01*
X126966994Y-90938354D01*
X126970089Y-90949864D01*
X126981599Y-90959231D01*
X127004302Y-90964946D01*
X127039784Y-90966772D01*
X127076219Y-90964946D01*
X127098366Y-90959231D01*
X127109955Y-90949864D01*
X127113527Y-90938354D01*
X127113527Y-90748321D01*
X127510501Y-90748321D01*
X127510501Y-90978758D01*
X127513994Y-90991221D01*
X127525980Y-90999794D01*
X127548682Y-91005191D01*
X127584165Y-91007414D01*
X127619726Y-91005191D01*
X127642349Y-90999794D01*
X127654336Y-90991221D01*
X127657908Y-90978758D01*
X127657908Y-90748321D01*
X127862150Y-90748321D01*
X127874612Y-90745225D01*
X127883900Y-90734509D01*
X127889615Y-90715379D01*
X127891441Y-90686882D01*
X127889063Y-90657288D01*
X127883423Y-90640604D01*
X127873974Y-90629688D01*
X127863023Y-90626395D01*
X127657908Y-90626395D01*
X127657908Y-90325232D01*
X128013208Y-90325232D01*
X128019067Y-90409214D01*
X128020176Y-90425106D01*
X128039879Y-90510423D01*
X128073027Y-90587518D01*
X128116718Y-90649971D01*
X128171995Y-90700594D01*
X128237930Y-90738002D01*
X128311932Y-90760739D01*
X128396846Y-90768642D01*
X128486639Y-90760613D01*
X128557112Y-90738558D01*
X128618023Y-90702804D01*
X128665941Y-90657512D01*
X128702630Y-90602741D01*
X128728571Y-90538046D01*
X128743466Y-90467901D01*
X128748574Y-90391513D01*
X128748574Y-90365000D01*
X128743722Y-90334076D01*
X128731190Y-90315865D01*
X128712619Y-90304890D01*
X128691739Y-90301259D01*
X128167759Y-90301259D01*
X128171261Y-90236114D01*
X128181094Y-90180683D01*
X128199161Y-90130261D01*
X128225467Y-90088682D01*
X128260809Y-90055034D01*
X128306275Y-90029704D01*
X128359309Y-90014677D01*
X128427963Y-90009145D01*
X128483182Y-90011627D01*
X128529171Y-90018511D01*
X128606010Y-90039626D01*
X128659273Y-90060662D01*
X128690866Y-90070108D01*
X128701899Y-90066933D01*
X128709440Y-90057566D01*
X128713489Y-90040261D01*
X128714838Y-90013114D01*
X128713886Y-89993031D01*
X128711663Y-89977869D01*
X128707218Y-89965804D01*
X128699200Y-89955564D01*
X128670386Y-89939529D01*
X128636055Y-89927384D01*
X128972105Y-89927384D01*
X128972105Y-90725936D01*
X128974725Y-90737843D01*
X128985362Y-90746734D01*
X129005762Y-90752052D01*
X129038704Y-90753401D01*
X129071091Y-90752052D01*
X129091015Y-90746734D01*
X129101255Y-90737843D01*
X129104430Y-90725857D01*
X129104430Y-90609646D01*
X129166107Y-90689105D01*
X129220720Y-90737446D01*
X129271761Y-90761816D01*
X129322881Y-90768642D01*
X129348996Y-90767293D01*
X129379637Y-90762371D01*
X129408531Y-90754433D01*
X129426788Y-90745543D01*
X129433852Y-90737129D01*
X129436948Y-90726889D01*
X129437047Y-90725857D01*
X129509024Y-90725857D01*
X129516089Y-90742765D01*
X129539188Y-90751179D01*
X129581894Y-90753401D01*
X129623568Y-90752052D01*
X129647620Y-90747131D01*
X129660479Y-90736970D01*
X129668893Y-90718792D01*
X129897108Y-90078046D01*
X129899807Y-90078046D01*
X130120004Y-90722364D01*
X130132943Y-90744035D01*
X130155566Y-90751179D01*
X130199065Y-90753401D01*
X130239866Y-90751179D01*
X130263442Y-90742765D01*
X130270983Y-90725857D01*
X130265664Y-90699265D01*
X130261193Y-90686882D01*
X130741382Y-90686882D01*
X130743605Y-90715379D01*
X130749399Y-90734509D01*
X130758687Y-90745225D01*
X130771625Y-90748321D01*
X130882597Y-90748321D01*
X130882597Y-90938354D01*
X130885693Y-90949864D01*
X130897203Y-90959231D01*
X130919905Y-90964946D01*
X130955388Y-90966772D01*
X130991823Y-90964946D01*
X131013969Y-90959231D01*
X131025559Y-90949864D01*
X131029131Y-90938354D01*
X131029131Y-90748321D01*
X131234246Y-90748321D01*
X131246708Y-90745225D01*
X131255996Y-90734509D01*
X131261790Y-90715379D01*
X131263537Y-90686882D01*
X131261159Y-90657288D01*
X131255519Y-90640604D01*
X131245937Y-90629754D01*
X131234246Y-90626395D01*
X131029131Y-90626395D01*
X131029131Y-90321659D01*
X131383875Y-90321659D01*
X131384512Y-90330947D01*
X131390408Y-90416913D01*
X131409197Y-90501532D01*
X131441384Y-90578899D01*
X131485560Y-90643303D01*
X131542482Y-90695902D01*
X131612963Y-90735779D01*
X131693453Y-90759993D01*
X131791486Y-90768642D01*
X131886171Y-90760878D01*
X131963341Y-90739272D01*
X132030950Y-90702996D01*
X132085426Y-90654019D01*
X132127612Y-90593043D01*
X132158693Y-90518043D01*
X132176743Y-90435016D01*
X132183142Y-90337615D01*
X132176490Y-90242371D01*
X132157343Y-90157663D01*
X132124837Y-90080357D01*
X132080505Y-90015971D01*
X132023530Y-89963361D01*
X131952625Y-89923098D01*
X131871869Y-89898499D01*
X131774578Y-89889759D01*
X131679958Y-89897501D01*
X131602802Y-89919050D01*
X131535176Y-89955384D01*
X131480638Y-90004382D01*
X131438561Y-90065372D01*
X131407848Y-90140358D01*
X131390167Y-90223463D01*
X131383875Y-90321659D01*
X131029131Y-90321659D01*
X131029131Y-90181953D01*
X131036107Y-90105388D01*
X131053500Y-90057566D01*
X131073180Y-90034891D01*
X131101338Y-90020732D01*
X131141055Y-90015495D01*
X131177411Y-90019464D01*
X131205828Y-90027957D01*
X131227181Y-90036372D01*
X131243136Y-90040420D01*
X131251550Y-90038197D01*
X131257821Y-90029704D01*
X131261790Y-90012796D01*
X131263537Y-89986045D01*
X131259965Y-89945006D01*
X131249328Y-89922780D01*
X131228054Y-89909365D01*
X131195588Y-89899125D01*
X131157010Y-89892458D01*
X131116130Y-89889759D01*
X131056530Y-89894140D01*
X131009524Y-89906111D01*
X130968788Y-89926990D01*
X130936734Y-89955802D01*
X130912683Y-89992520D01*
X130895457Y-90040023D01*
X130886049Y-90093364D01*
X130882597Y-90160123D01*
X130882597Y-90626395D01*
X130770673Y-90626395D01*
X130759033Y-90629746D01*
X130749399Y-90640604D01*
X130743760Y-90657288D01*
X130741382Y-90686882D01*
X130261193Y-90686882D01*
X129978868Y-89905000D01*
X129872262Y-89609313D01*
X129863577Y-89597325D01*
X129845194Y-89587484D01*
X129820571Y-89582110D01*
X129778992Y-89579863D01*
X129741763Y-89582086D01*
X129719934Y-89589706D01*
X129711520Y-89603995D01*
X129715965Y-89625427D01*
X129826064Y-89905000D01*
X129810982Y-89916509D01*
X129801218Y-89933417D01*
X129516168Y-90696566D01*
X129509024Y-90725857D01*
X129437047Y-90725857D01*
X129438695Y-90708711D01*
X129439171Y-90676325D01*
X129438298Y-90643462D01*
X129434726Y-90622585D01*
X129428058Y-90611075D01*
X129417024Y-90607106D01*
X129399640Y-90611075D01*
X129376541Y-90619013D01*
X129347726Y-90626633D01*
X129313117Y-90630205D01*
X129269538Y-90621156D01*
X129224689Y-90591468D01*
X129175395Y-90536459D01*
X129118639Y-90452635D01*
X129118639Y-89927384D01*
X129115067Y-89915398D01*
X129103477Y-89906984D01*
X129081331Y-89901745D01*
X129044896Y-89899919D01*
X129009413Y-89901745D01*
X128986711Y-89906984D01*
X128975201Y-89915398D01*
X128972105Y-89927384D01*
X128636055Y-89927384D01*
X128608232Y-89917541D01*
X128519883Y-89898332D01*
X128412881Y-89889759D01*
X128317981Y-89897037D01*
X128240152Y-89917303D01*
X128171397Y-89951837D01*
X128115368Y-89999064D01*
X128071625Y-90058946D01*
X128038927Y-90135040D01*
X128020034Y-90220584D01*
X128013208Y-90325232D01*
X127657908Y-90325232D01*
X127657908Y-90181953D01*
X127664778Y-90105354D01*
X127681880Y-90057566D01*
X127701281Y-90034902D01*
X127729236Y-90020741D01*
X127768879Y-90015495D01*
X127804838Y-90019464D01*
X127833732Y-90027957D01*
X127855482Y-90036372D01*
X127871040Y-90040420D01*
X127879931Y-90038197D01*
X127885646Y-90029704D01*
X127889615Y-90012796D01*
X127891441Y-89986045D01*
X127887868Y-89945483D01*
X127876835Y-89923654D01*
X127855958Y-89910239D01*
X127824365Y-89899602D01*
X127785311Y-89892458D01*
X127744907Y-89889759D01*
X127684534Y-89894156D01*
X127637428Y-89906111D01*
X127596766Y-89927009D01*
X127565034Y-89955802D01*
X127541247Y-89992468D01*
X127523757Y-90040023D01*
X127514057Y-90093382D01*
X127510501Y-90160123D01*
X127510501Y-90626395D01*
X127113527Y-90626395D01*
X127113527Y-90181953D01*
X127120503Y-90105388D01*
X127137896Y-90057566D01*
X127157576Y-90034891D01*
X127185734Y-90020732D01*
X127225451Y-90015495D01*
X127261807Y-90019464D01*
X127290225Y-90027957D01*
X127311577Y-90036372D01*
X127327533Y-90040420D01*
X127335947Y-90038197D01*
X127342218Y-90029704D01*
X127346187Y-90012796D01*
X127347933Y-89986045D01*
X127347060Y-89961994D01*
X127344837Y-89945483D01*
X127340392Y-89932147D01*
X127330628Y-89920558D01*
X127310625Y-89908968D01*
X127279588Y-89899125D01*
X127241407Y-89892458D01*
X127200526Y-89889759D01*
X127140926Y-89894140D01*
X127093920Y-89906111D01*
X127053184Y-89926990D01*
X127021130Y-89955802D01*
X126997079Y-89992520D01*
X126979853Y-90040023D01*
X126970445Y-90093364D01*
X126966994Y-90160123D01*
X126966994Y-90626395D01*
X126855069Y-90626395D01*
X126843430Y-90629746D01*
X126833796Y-90640604D01*
X126828156Y-90657288D01*
X126825778Y-90686882D01*
X126612307Y-90686882D01*
X126640536Y-90649846D01*
X126662814Y-90597739D01*
X126675221Y-90539090D01*
X126679721Y-90466923D01*
X126679721Y-89926591D01*
X126672577Y-89910556D01*
X126653050Y-89902618D01*
X126616694Y-89899919D01*
X126579783Y-89902618D01*
X126559780Y-89910556D01*
X126553588Y-89926591D01*
X126553588Y-90006446D01*
X126497681Y-89956549D01*
X126436822Y-89920161D01*
X126370644Y-89897378D01*
X126300528Y-89889759D01*
X126239268Y-89894016D01*
X126186381Y-89906111D01*
X126138458Y-89926471D01*
X126099382Y-89953421D01*
X126067545Y-89987731D01*
X126043420Y-90029466D01*
X126028607Y-90076743D01*
X126023416Y-90132103D01*
X125848206Y-90132103D01*
X125832086Y-90089975D01*
X125810204Y-90051771D01*
X125782852Y-90017814D01*
X125750273Y-89988109D01*
X125713301Y-89963122D01*
X125671212Y-89942149D01*
X125626126Y-89926014D01*
X125577069Y-89914287D01*
X125525061Y-89907470D01*
X125462128Y-89905000D01*
X125161917Y-89905000D01*
X125142329Y-89908335D01*
X125123259Y-89918732D01*
X125110152Y-89936378D01*
X125105081Y-89967074D01*
X124139125Y-89967074D01*
X124126736Y-89931830D01*
X124116973Y-89915874D01*
X124099668Y-89906111D01*
X124071250Y-89901269D01*
X124028227Y-89899919D01*
X123993935Y-89900396D01*
X123968693Y-89902618D01*
X123950515Y-89906587D01*
X123937576Y-89912302D01*
X123929162Y-89920717D01*
X123923367Y-89932703D01*
X123547746Y-90998762D01*
X123540205Y-91030275D01*
X123229126Y-91030275D01*
X123269523Y-91002810D01*
X123307070Y-90965305D01*
X123338821Y-90920177D01*
X123364097Y-90869390D01*
X123384543Y-90810396D01*
X123399212Y-90747577D01*
X123409389Y-90677515D01*
X123416930Y-90526933D01*
X123408039Y-90375875D01*
X123395957Y-90300511D01*
X123377796Y-90228786D01*
X123352742Y-90160108D01*
X123320564Y-90096382D01*
X123279947Y-90038521D01*
X123229993Y-89988427D01*
X123171106Y-89947683D01*
X123100287Y-89915954D01*
X123021667Y-89896690D01*
X122925812Y-89889759D01*
X122851673Y-89894680D01*
X122786820Y-89906587D01*
X122738478Y-89921590D01*
X122710061Y-89937545D01*
X122697122Y-89959295D01*
X122693153Y-89996127D01*
X122694502Y-90027084D01*
X122698471Y-90044865D01*
X122706012Y-90053359D01*
X122718078Y-90055581D01*
X122745543Y-90048913D01*
X122790392Y-90034228D01*
X122853895Y-90019543D01*
X122935655Y-90012955D01*
X123017580Y-90021748D01*
X123083459Y-90046373D01*
X123139702Y-90085691D01*
X123184270Y-90136072D01*
X123218040Y-90195903D01*
X123242852Y-90266412D01*
X123257909Y-90341780D01*
X123264205Y-90422233D01*
X123214223Y-90397000D01*
X123151407Y-90373335D01*
X123082828Y-90357670D01*
X123000429Y-90352062D01*
X122908943Y-90359149D01*
X122839210Y-90378257D01*
X122779365Y-90409917D01*
X122734430Y-90449698D01*
X122700744Y-90498683D01*
X122677595Y-90557018D01*
X122664759Y-90620917D01*
X122660290Y-90692756D01*
X122515846Y-90692756D01*
X122515846Y-87424281D01*
X122723396Y-87424281D01*
X122723396Y-87983903D01*
X122723396Y-88541857D01*
X122726016Y-88554716D01*
X122736653Y-88563131D01*
X122757053Y-88568052D01*
X122787296Y-88569401D01*
X122817937Y-88568052D01*
X122837940Y-88563289D01*
X122849053Y-88555034D01*
X122852149Y-88542413D01*
X122852149Y-88437156D01*
X122922320Y-88502009D01*
X122990189Y-88547731D01*
X123060360Y-88575275D01*
X123136325Y-88584642D01*
X123218933Y-88575716D01*
X123284605Y-88550827D01*
X123340188Y-88510880D01*
X123384464Y-88458430D01*
X123417457Y-88396059D01*
X123440902Y-88321977D01*
X123454141Y-88242817D01*
X123458683Y-88157187D01*
X123457541Y-88137659D01*
X123622521Y-88137659D01*
X123623158Y-88146947D01*
X123629055Y-88232913D01*
X123647843Y-88317532D01*
X123680030Y-88394899D01*
X123724206Y-88459303D01*
X123781128Y-88511902D01*
X123851609Y-88551779D01*
X123932099Y-88575993D01*
X124030132Y-88584642D01*
X124124817Y-88576878D01*
X124201987Y-88555272D01*
X124223586Y-88543683D01*
X124542206Y-88543683D01*
X124545698Y-88556463D01*
X124557684Y-88564480D01*
X124580387Y-88568528D01*
X124614996Y-88569401D01*
X124655003Y-88568052D01*
X124678023Y-88563607D01*
X124689612Y-88554716D01*
X124695804Y-88540984D01*
X124888536Y-87881424D01*
X124890282Y-87873407D01*
X124892108Y-87881424D01*
X125068805Y-88540984D01*
X125074600Y-88554716D01*
X125086586Y-88563607D01*
X125108336Y-88568052D01*
X125144295Y-88569401D01*
X125179380Y-88568052D01*
X125201130Y-88563607D01*
X125212640Y-88555193D01*
X125218038Y-88542730D01*
X125408944Y-87881424D01*
X125410690Y-87873407D01*
X125411643Y-87881424D01*
X125601676Y-88540984D01*
X125607391Y-88554716D01*
X125619854Y-88563607D01*
X125642874Y-88568052D01*
X125680658Y-88569401D01*
X125714870Y-88568528D01*
X125735271Y-88564083D01*
X125745908Y-88556066D01*
X125749083Y-88543683D01*
X125747257Y-88528601D01*
X125741065Y-88506375D01*
X125627770Y-88141232D01*
X125861721Y-88141232D01*
X125867581Y-88225214D01*
X125868690Y-88241106D01*
X125888393Y-88326423D01*
X125921541Y-88403518D01*
X125965232Y-88465971D01*
X126020508Y-88516594D01*
X126086443Y-88554002D01*
X126160445Y-88576739D01*
X126245360Y-88584642D01*
X126335153Y-88576613D01*
X126405626Y-88554558D01*
X126466537Y-88518804D01*
X126514454Y-88473512D01*
X126551143Y-88418741D01*
X126577084Y-88354046D01*
X126591980Y-88283901D01*
X126597088Y-88207513D01*
X126597088Y-88181000D01*
X126592236Y-88150076D01*
X126579704Y-88131865D01*
X126561133Y-88120890D01*
X126540252Y-88117259D01*
X126016272Y-88117259D01*
X126019775Y-88052114D01*
X126029608Y-87996683D01*
X126047675Y-87946261D01*
X126073981Y-87904682D01*
X126109322Y-87871034D01*
X126154788Y-87845704D01*
X126207823Y-87830677D01*
X126276476Y-87825145D01*
X126331696Y-87827627D01*
X126377684Y-87834511D01*
X126454523Y-87855626D01*
X126507786Y-87876662D01*
X126539379Y-87886108D01*
X126550413Y-87882933D01*
X126557954Y-87873566D01*
X126562002Y-87856261D01*
X126563352Y-87829114D01*
X126562399Y-87809031D01*
X126560177Y-87793869D01*
X126555731Y-87781804D01*
X126547714Y-87771564D01*
X126518900Y-87755529D01*
X126484569Y-87743384D01*
X126820619Y-87743384D01*
X126820619Y-88541936D01*
X126823238Y-88553843D01*
X126833875Y-88562734D01*
X126854275Y-88568052D01*
X126887218Y-88569401D01*
X126919604Y-88568052D01*
X126939528Y-88562734D01*
X126949768Y-88553843D01*
X126952943Y-88541857D01*
X126952943Y-88425646D01*
X127014621Y-88505105D01*
X127069234Y-88553446D01*
X127120274Y-88577816D01*
X127171394Y-88584642D01*
X127197510Y-88583293D01*
X127228150Y-88578371D01*
X127257044Y-88570433D01*
X127275301Y-88561543D01*
X127282366Y-88553129D01*
X127285462Y-88542889D01*
X127287208Y-88524711D01*
X127287684Y-88492325D01*
X127286811Y-88459462D01*
X127283239Y-88438585D01*
X127276571Y-88427075D01*
X127265538Y-88423106D01*
X127248154Y-88427075D01*
X127225054Y-88435013D01*
X127196240Y-88442633D01*
X127161631Y-88446205D01*
X127118052Y-88437156D01*
X127073203Y-88407468D01*
X127023908Y-88352459D01*
X126967152Y-88268635D01*
X126967152Y-87743384D01*
X126963580Y-87731398D01*
X126951991Y-87722984D01*
X126929844Y-87717745D01*
X126893409Y-87715919D01*
X126857927Y-87717745D01*
X126835225Y-87722984D01*
X126823715Y-87731398D01*
X126820619Y-87743384D01*
X126484569Y-87743384D01*
X126456746Y-87733541D01*
X126368397Y-87714332D01*
X126261394Y-87705759D01*
X126166495Y-87713037D01*
X126088666Y-87733303D01*
X126019911Y-87767837D01*
X125963882Y-87815064D01*
X125920139Y-87874946D01*
X125887440Y-87951040D01*
X125868548Y-88036584D01*
X125861721Y-88141232D01*
X125627770Y-88141232D01*
X125505707Y-87747830D01*
X125497293Y-87731874D01*
X125481258Y-87722111D01*
X125453317Y-87717269D01*
X125408944Y-87715919D01*
X125362745Y-87717745D01*
X125332978Y-87722984D01*
X125316547Y-87732748D01*
X125308609Y-87747909D01*
X125140723Y-88327693D01*
X125138976Y-88335710D01*
X125137230Y-88327693D01*
X124981806Y-87747909D01*
X124973312Y-87731874D01*
X124956008Y-87722111D01*
X124926241Y-87717269D01*
X124881471Y-87715919D01*
X124836543Y-87717745D01*
X124808125Y-87722984D01*
X124791773Y-87732748D01*
X124783756Y-87747830D01*
X124550223Y-88506375D01*
X124543952Y-88528601D01*
X124542206Y-88543683D01*
X124223586Y-88543683D01*
X124269596Y-88518996D01*
X124324072Y-88470019D01*
X124366258Y-88409043D01*
X124397339Y-88334043D01*
X124415389Y-88251016D01*
X124421788Y-88153615D01*
X124415136Y-88058371D01*
X124395990Y-87973663D01*
X124363483Y-87896357D01*
X124319151Y-87831971D01*
X124262176Y-87779361D01*
X124191271Y-87739098D01*
X124110515Y-87714499D01*
X124013224Y-87705759D01*
X123918605Y-87713501D01*
X123841448Y-87735050D01*
X123773823Y-87771384D01*
X123719284Y-87820382D01*
X123677207Y-87881372D01*
X123646494Y-87956358D01*
X123628813Y-88039463D01*
X123622521Y-88137659D01*
X123457541Y-88137659D01*
X123452726Y-88055338D01*
X123435981Y-87968741D01*
X123407305Y-87890053D01*
X123369382Y-87827050D01*
X123320178Y-87775456D01*
X123260633Y-87737272D01*
X123192480Y-87713925D01*
X123112353Y-87705759D01*
X123046627Y-87712903D01*
X122987569Y-87735050D01*
X122930258Y-87773310D01*
X122869930Y-87827526D01*
X122869930Y-87424519D01*
X122869862Y-87424281D01*
X127864610Y-87424281D01*
X127864610Y-87983903D01*
X127864610Y-88541857D01*
X127867230Y-88554716D01*
X127877867Y-88563131D01*
X127898267Y-88568052D01*
X127928510Y-88569401D01*
X127959151Y-88568052D01*
X127979154Y-88563289D01*
X127990267Y-88555034D01*
X127993363Y-88542413D01*
X127993363Y-88437156D01*
X128063534Y-88502009D01*
X128131403Y-88547731D01*
X128201574Y-88575275D01*
X128277540Y-88584642D01*
X128360147Y-88575716D01*
X128425819Y-88550827D01*
X128481402Y-88510880D01*
X128525678Y-88458430D01*
X128558671Y-88396059D01*
X128582117Y-88321977D01*
X128595355Y-88242817D01*
X128599897Y-88157187D01*
X128593940Y-88055338D01*
X128577195Y-87968741D01*
X128548519Y-87890053D01*
X128510596Y-87827050D01*
X128461392Y-87775456D01*
X128411378Y-87743384D01*
X128819698Y-87743384D01*
X128819698Y-88541936D01*
X128822317Y-88553843D01*
X128832954Y-88562734D01*
X128853354Y-88568052D01*
X128886297Y-88569401D01*
X128918683Y-88568052D01*
X128938607Y-88562734D01*
X128948847Y-88553843D01*
X128952022Y-88541857D01*
X128952022Y-88425646D01*
X129013700Y-88505105D01*
X129068312Y-88553446D01*
X129119353Y-88577816D01*
X129170473Y-88584642D01*
X129196589Y-88583293D01*
X129227229Y-88578371D01*
X129256123Y-88570433D01*
X129274380Y-88561543D01*
X129281445Y-88553129D01*
X129284541Y-88542889D01*
X129286287Y-88524711D01*
X129286763Y-88492325D01*
X129285890Y-88459462D01*
X129282318Y-88438585D01*
X129275650Y-88427075D01*
X129264617Y-88423106D01*
X129247233Y-88427075D01*
X129224133Y-88435013D01*
X129195319Y-88442633D01*
X129160710Y-88446205D01*
X129117131Y-88437156D01*
X129072281Y-88407468D01*
X129022987Y-88352459D01*
X128966231Y-88268635D01*
X128966231Y-88141232D01*
X129375985Y-88141232D01*
X129381844Y-88225214D01*
X129382953Y-88241106D01*
X129402657Y-88326423D01*
X129435805Y-88403518D01*
X129479495Y-88465971D01*
X129534772Y-88516594D01*
X129600707Y-88554002D01*
X129674709Y-88576739D01*
X129759624Y-88584642D01*
X129849417Y-88576613D01*
X129919890Y-88554558D01*
X129980801Y-88518804D01*
X130028718Y-88473512D01*
X130065407Y-88418741D01*
X130091348Y-88354046D01*
X130106244Y-88283901D01*
X130111352Y-88207513D01*
X130111352Y-88181000D01*
X130106499Y-88150076D01*
X130093968Y-88131865D01*
X130075397Y-88120890D01*
X130054516Y-88117259D01*
X129530536Y-88117259D01*
X129534038Y-88052114D01*
X129543872Y-87996683D01*
X129561278Y-87948103D01*
X130280667Y-87948103D01*
X130281460Y-87955167D01*
X130287849Y-88012090D01*
X130308211Y-88064790D01*
X130341390Y-88109740D01*
X130387273Y-88147026D01*
X130442755Y-88174999D01*
X130513326Y-88196162D01*
X130590424Y-88208210D01*
X130681213Y-88212514D01*
X130791311Y-88212514D01*
X130791311Y-88275223D01*
X130788725Y-88320345D01*
X130781548Y-88357698D01*
X130768504Y-88391075D01*
X130750034Y-88417311D01*
X130725511Y-88437835D01*
X130693596Y-88453111D01*
X130656777Y-88461957D01*
X130608343Y-88465256D01*
X130555831Y-88461827D01*
X130511104Y-88452159D01*
X130435614Y-88423344D01*
X130381478Y-88394450D01*
X130349091Y-88381432D01*
X130336629Y-88385004D01*
X130327262Y-88395641D01*
X130321547Y-88413898D01*
X130319801Y-88438426D01*
X130322896Y-88473591D01*
X130337978Y-88498119D01*
X130379255Y-88525505D01*
X130446728Y-88554399D01*
X130530234Y-88576069D01*
X130621679Y-88584642D01*
X130704295Y-88579341D01*
X130768212Y-88565036D01*
X130823930Y-88540283D01*
X130865928Y-88507645D01*
X130897786Y-88465846D01*
X130920064Y-88413739D01*
X130932472Y-88355090D01*
X130936972Y-88282923D01*
X130936972Y-87743384D01*
X131206146Y-87743384D01*
X131206146Y-88541936D01*
X131208765Y-88553843D01*
X131219402Y-88562734D01*
X131239802Y-88568052D01*
X131272745Y-88569401D01*
X131305131Y-88568052D01*
X131325055Y-88562734D01*
X131335295Y-88553843D01*
X131338470Y-88541857D01*
X131338470Y-88436283D01*
X131407876Y-88505399D01*
X131469446Y-88548922D01*
X131534203Y-88575971D01*
X131597722Y-88584642D01*
X131646001Y-88581563D01*
X131687023Y-88572894D01*
X131724693Y-88558557D01*
X131756718Y-88539952D01*
X131784710Y-88516664D01*
X131808155Y-88489387D01*
X131843717Y-88423900D01*
X131919683Y-88498834D01*
X131988901Y-88548525D01*
X132053754Y-88576069D01*
X132117257Y-88584642D01*
X132190511Y-88577379D01*
X132246883Y-88557495D01*
X132294631Y-88525526D01*
X132331739Y-88484942D01*
X132359138Y-88436392D01*
X132377858Y-88378575D01*
X132388150Y-88316564D01*
X132391670Y-88249981D01*
X132391670Y-87743543D01*
X132388098Y-87731478D01*
X132376588Y-87723063D01*
X132354362Y-87717745D01*
X132318879Y-87715919D01*
X132282445Y-87717745D01*
X132259742Y-87723063D01*
X132247756Y-87731478D01*
X132244263Y-87743543D01*
X132244263Y-88230612D01*
X132241942Y-88280131D01*
X132235373Y-88323168D01*
X132223515Y-88362881D01*
X132206955Y-88395244D01*
X132184589Y-88422144D01*
X132157185Y-88441601D01*
X132125151Y-88453447D01*
X132086220Y-88457636D01*
X132037031Y-88448430D01*
X131984456Y-88418423D01*
X131933921Y-88373256D01*
X131872135Y-88303561D01*
X131872135Y-87743543D01*
X131868563Y-87731478D01*
X131856577Y-87723063D01*
X131833954Y-87717745D01*
X131798471Y-87715919D01*
X131763306Y-87717745D01*
X131740286Y-87723063D01*
X131728697Y-87731478D01*
X131725601Y-87743543D01*
X131725601Y-88230612D01*
X131723055Y-88280097D01*
X131715838Y-88323168D01*
X131703306Y-88362903D01*
X131686547Y-88395244D01*
X131664264Y-88422179D01*
X131637253Y-88441601D01*
X131605559Y-88453436D01*
X131566685Y-88457636D01*
X131517436Y-88448442D01*
X131464524Y-88418423D01*
X131413778Y-88373175D01*
X131352679Y-88303561D01*
X131352679Y-87743543D01*
X131349107Y-87731478D01*
X131337518Y-87723063D01*
X131315371Y-87717745D01*
X131278936Y-87715919D01*
X131243454Y-87717745D01*
X131220751Y-87722984D01*
X131209241Y-87731398D01*
X131206146Y-87743384D01*
X130936972Y-87743384D01*
X130936972Y-87742591D01*
X130929828Y-87726556D01*
X130910300Y-87718618D01*
X130873945Y-87715919D01*
X130837034Y-87718618D01*
X130817030Y-87726556D01*
X130810839Y-87742591D01*
X130810839Y-87822446D01*
X130754931Y-87772549D01*
X130694072Y-87736161D01*
X130627895Y-87713378D01*
X130557779Y-87705759D01*
X130496518Y-87710016D01*
X130443632Y-87722111D01*
X130395709Y-87742471D01*
X130356632Y-87769421D01*
X130324795Y-87803731D01*
X130300670Y-87845466D01*
X130285858Y-87892743D01*
X130280667Y-87948103D01*
X129561278Y-87948103D01*
X129561938Y-87946261D01*
X129588244Y-87904682D01*
X129623586Y-87871034D01*
X129669052Y-87845704D01*
X129722086Y-87830677D01*
X129790740Y-87825145D01*
X129845960Y-87827627D01*
X129891948Y-87834511D01*
X129968787Y-87855626D01*
X130022050Y-87876662D01*
X130053643Y-87886108D01*
X130064677Y-87882933D01*
X130072218Y-87873566D01*
X130076266Y-87856261D01*
X130077616Y-87829114D01*
X130076663Y-87809031D01*
X130074440Y-87793869D01*
X130069995Y-87781804D01*
X130061978Y-87771564D01*
X130033163Y-87755529D01*
X129971010Y-87733541D01*
X129882661Y-87714332D01*
X129775658Y-87705759D01*
X129680759Y-87713037D01*
X129602930Y-87733303D01*
X129534175Y-87767837D01*
X129478146Y-87815064D01*
X129434402Y-87874946D01*
X129401704Y-87951040D01*
X129382812Y-88036584D01*
X129375985Y-88141232D01*
X128966231Y-88141232D01*
X128966231Y-87743384D01*
X128962659Y-87731398D01*
X128951070Y-87722984D01*
X128928923Y-87717745D01*
X128892488Y-87715919D01*
X128857006Y-87717745D01*
X128834303Y-87722984D01*
X128822793Y-87731398D01*
X128819698Y-87743384D01*
X128411378Y-87743384D01*
X128401847Y-87737272D01*
X128333694Y-87713925D01*
X128253567Y-87705759D01*
X128187841Y-87712903D01*
X128128784Y-87735050D01*
X128071472Y-87773310D01*
X128011144Y-87827526D01*
X128011144Y-87424519D01*
X128011076Y-87424281D01*
X132659098Y-87424281D01*
X132659098Y-87983903D01*
X132659098Y-88541857D01*
X132661717Y-88554716D01*
X132672354Y-88563131D01*
X132692754Y-88568052D01*
X132722998Y-88569401D01*
X132753638Y-88568052D01*
X132773641Y-88563289D01*
X132784754Y-88555034D01*
X132787850Y-88542413D01*
X132787850Y-88437156D01*
X132858021Y-88502009D01*
X132925890Y-88547731D01*
X132996061Y-88575275D01*
X133072027Y-88584642D01*
X133154634Y-88575716D01*
X133220307Y-88550827D01*
X133275889Y-88510880D01*
X133320165Y-88458430D01*
X133353158Y-88396059D01*
X133376604Y-88321977D01*
X133389842Y-88242817D01*
X133394385Y-88157187D01*
X133388427Y-88055338D01*
X133371682Y-87968741D01*
X133343006Y-87890053D01*
X133305083Y-87827050D01*
X133255879Y-87775456D01*
X133196334Y-87737272D01*
X133128181Y-87713925D01*
X133048054Y-87705759D01*
X132982329Y-87712903D01*
X132923271Y-87735050D01*
X132865959Y-87773310D01*
X132805631Y-87827526D01*
X132805631Y-87424519D01*
X132802059Y-87411977D01*
X132790470Y-87403008D01*
X132768323Y-87397689D01*
X132731888Y-87395863D01*
X132696406Y-87397689D01*
X132673703Y-87403008D01*
X132662193Y-87411898D01*
X132659098Y-87424281D01*
X128011076Y-87424281D01*
X128007572Y-87411977D01*
X127995983Y-87403008D01*
X127973836Y-87397689D01*
X127937401Y-87395863D01*
X127901919Y-87397689D01*
X127879216Y-87403008D01*
X127867706Y-87411898D01*
X127864610Y-87424281D01*
X122869862Y-87424281D01*
X122866358Y-87411977D01*
X122854768Y-87403008D01*
X122832622Y-87397689D01*
X122796187Y-87395863D01*
X122760704Y-87397689D01*
X122738002Y-87403008D01*
X122726492Y-87411898D01*
X122723396Y-87424281D01*
X122515846Y-87424281D01*
X122515846Y-87251419D01*
X133538829Y-87251419D01*
X133538829Y-91217901D01*
G37*
D11*
G36*
X117743621Y-78916667D02*
G01*
X144201885Y-78916667D01*
X149493619Y-78916667D01*
X149538921Y-78917816D01*
X149583634Y-78921224D01*
X149627703Y-78926837D01*
X149671072Y-78934599D01*
X149713686Y-78944453D01*
X149755487Y-78956345D01*
X149796422Y-78970218D01*
X149836434Y-78986017D01*
X149875467Y-79003686D01*
X149913466Y-79023169D01*
X149950375Y-79044411D01*
X149986138Y-79067356D01*
X150020700Y-79091947D01*
X150054005Y-79118131D01*
X150085996Y-79145850D01*
X150116620Y-79175049D01*
X150145819Y-79205672D01*
X150173537Y-79237664D01*
X150199721Y-79270968D01*
X150224312Y-79305530D01*
X150247257Y-79341293D01*
X150268498Y-79378202D01*
X150287982Y-79416201D01*
X150305650Y-79455234D01*
X150321449Y-79495246D01*
X150335322Y-79536181D01*
X150347214Y-79577982D01*
X150357068Y-79620595D01*
X150364830Y-79663964D01*
X150370443Y-79708033D01*
X150373851Y-79752746D01*
X150375000Y-79798047D01*
X150375000Y-80681078D01*
X152139452Y-80681078D01*
X152184754Y-80682222D01*
X152229467Y-80685617D01*
X152273536Y-80691208D01*
X152316905Y-80698942D01*
X152359519Y-80708762D01*
X152401320Y-80720614D01*
X152442255Y-80734444D01*
X152482267Y-80750196D01*
X152521300Y-80767815D01*
X152559299Y-80787247D01*
X152596208Y-80808438D01*
X152631971Y-80831331D01*
X152666533Y-80855873D01*
X152699838Y-80882008D01*
X152731830Y-80909683D01*
X152762453Y-80938841D01*
X152791652Y-80969428D01*
X152819370Y-81001389D01*
X152845554Y-81034670D01*
X152870145Y-81069216D01*
X152893090Y-81104972D01*
X152914331Y-81141882D01*
X152933815Y-81179893D01*
X152951483Y-81218950D01*
X152967282Y-81258997D01*
X152981155Y-81299979D01*
X152993047Y-81341843D01*
X153002901Y-81384533D01*
X153010662Y-81427994D01*
X153016275Y-81472172D01*
X153019684Y-81517012D01*
X153020833Y-81562459D01*
X153020833Y-86854182D01*
X153019684Y-86899630D01*
X153016275Y-86944470D01*
X153010662Y-86988648D01*
X153002901Y-87032109D01*
X152993046Y-87074800D01*
X152981155Y-87116664D01*
X152967281Y-87157647D01*
X152951483Y-87197694D01*
X152933814Y-87236750D01*
X152914330Y-87274761D01*
X152893089Y-87311672D01*
X152870144Y-87347427D01*
X152845552Y-87381973D01*
X152819369Y-87415254D01*
X152791650Y-87447215D01*
X152762451Y-87477802D01*
X152731827Y-87506960D01*
X152699836Y-87534634D01*
X152666531Y-87560770D01*
X152631969Y-87585311D01*
X152596206Y-87608205D01*
X152559297Y-87629395D01*
X152521298Y-87648827D01*
X152482265Y-87666446D01*
X152442253Y-87682198D01*
X152401318Y-87696027D01*
X152359517Y-87707880D01*
X152316904Y-87717700D01*
X152273535Y-87725433D01*
X152229466Y-87731025D01*
X152184754Y-87734420D01*
X152139452Y-87735564D01*
X150375000Y-87735564D01*
X150375000Y-92483246D01*
X150862806Y-92238507D01*
X150885902Y-92227384D01*
X150909290Y-92216961D01*
X150932948Y-92207241D01*
X150956859Y-92198226D01*
X150981002Y-92189918D01*
X151005358Y-92182319D01*
X151029907Y-92175433D01*
X151054631Y-92169262D01*
X151079510Y-92163807D01*
X151104525Y-92159072D01*
X151129656Y-92155059D01*
X151154883Y-92151770D01*
X151180188Y-92149207D01*
X151205552Y-92147374D01*
X151230954Y-92146272D01*
X151256375Y-92145905D01*
X151256379Y-92145905D01*
X152139406Y-92145905D01*
X152184707Y-92147053D01*
X152229421Y-92150462D01*
X152273490Y-92156075D01*
X152316859Y-92163836D01*
X152359472Y-92173691D01*
X152401274Y-92185583D01*
X152442208Y-92199456D01*
X152482220Y-92215255D01*
X152521253Y-92232923D01*
X152559252Y-92252407D01*
X152596161Y-92273648D01*
X152631925Y-92296593D01*
X152666486Y-92321185D01*
X152699791Y-92347368D01*
X152731783Y-92375087D01*
X152762406Y-92404286D01*
X152791605Y-92434910D01*
X152819324Y-92466901D01*
X152845507Y-92500206D01*
X152870099Y-92534768D01*
X152893043Y-92570531D01*
X152914285Y-92607440D01*
X152933768Y-92645439D01*
X152951437Y-92684472D01*
X152967235Y-92724484D01*
X152981108Y-92765419D01*
X152993000Y-92807221D01*
X153002854Y-92849834D01*
X153010616Y-92893202D01*
X153016229Y-92937271D01*
X153019637Y-92981984D01*
X153020786Y-93027286D01*
X153020786Y-96556149D01*
X153019637Y-96601451D01*
X153016229Y-96646164D01*
X153010616Y-96690233D01*
X153002854Y-96733601D01*
X152993000Y-96776214D01*
X152981108Y-96818016D01*
X152967235Y-96858951D01*
X152951436Y-96898962D01*
X152933767Y-96937995D01*
X152914284Y-96975994D01*
X152893042Y-97012903D01*
X152870098Y-97048666D01*
X152845506Y-97083228D01*
X152819322Y-97116533D01*
X152791603Y-97148524D01*
X152762404Y-97179147D01*
X152731781Y-97208346D01*
X152699789Y-97236065D01*
X152666485Y-97262248D01*
X152631923Y-97286840D01*
X152596160Y-97309784D01*
X152559251Y-97331026D01*
X152521252Y-97350509D01*
X152482219Y-97368178D01*
X152442207Y-97383977D01*
X152401272Y-97397850D01*
X152359471Y-97409741D01*
X152316857Y-97419596D01*
X152273489Y-97427357D01*
X152229420Y-97432970D01*
X152184707Y-97436379D01*
X152139406Y-97437527D01*
X151256375Y-97437527D01*
X151230953Y-97437160D01*
X151205551Y-97436058D01*
X151180188Y-97434225D01*
X151154882Y-97431662D01*
X151129654Y-97428373D01*
X151104523Y-97424360D01*
X151079508Y-97419625D01*
X151054629Y-97414170D01*
X151029905Y-97407999D01*
X151005355Y-97401113D01*
X150980999Y-97393514D01*
X150956857Y-97385206D01*
X150932947Y-97376191D01*
X150909288Y-97366471D01*
X150885902Y-97356048D01*
X150862806Y-97344925D01*
X150375000Y-97100189D01*
X150375000Y-99201953D01*
X150373851Y-99247255D01*
X150370443Y-99291968D01*
X150364830Y-99336037D01*
X150357068Y-99379405D01*
X150347213Y-99422018D01*
X150335322Y-99463820D01*
X150321449Y-99504755D01*
X150305650Y-99544767D01*
X150287981Y-99583800D01*
X150268498Y-99621799D01*
X150247256Y-99658708D01*
X150224311Y-99694471D01*
X150199719Y-99729033D01*
X150173536Y-99762338D01*
X150145817Y-99794329D01*
X150116618Y-99824953D01*
X150085995Y-99854152D01*
X150054003Y-99881871D01*
X150020698Y-99908054D01*
X149986136Y-99932646D01*
X149950373Y-99955591D01*
X149913464Y-99976832D01*
X149875465Y-99996316D01*
X149836432Y-100013984D01*
X149796420Y-100029783D01*
X149755486Y-100043656D01*
X149713684Y-100055548D01*
X149671071Y-100065403D01*
X149627702Y-100073164D01*
X149583634Y-100078777D01*
X149538921Y-100082186D01*
X149493619Y-100083334D01*
X116860549Y-100083334D01*
X116815247Y-100082186D01*
X116770534Y-100078777D01*
X116726465Y-100073164D01*
X116683096Y-100065402D01*
X116640483Y-100055548D01*
X116598681Y-100043656D01*
X116557746Y-100029783D01*
X116517734Y-100013984D01*
X116478701Y-99996315D01*
X116440702Y-99976832D01*
X116403793Y-99955590D01*
X116368030Y-99932645D01*
X116333468Y-99908053D01*
X116300163Y-99881870D01*
X116268171Y-99854151D01*
X116237548Y-99824952D01*
X116208349Y-99794328D01*
X116180630Y-99762336D01*
X116154447Y-99729032D01*
X116129855Y-99694470D01*
X116106911Y-99658706D01*
X116085669Y-99621797D01*
X116066186Y-99583798D01*
X116048517Y-99544765D01*
X116032718Y-99504754D01*
X116018845Y-99463819D01*
X116006954Y-99422017D01*
X115997099Y-99379404D01*
X115989338Y-99336036D01*
X115983725Y-99291967D01*
X115980316Y-99247254D01*
X115979168Y-99201953D01*
X115979168Y-98318713D01*
X117743621Y-98318713D01*
X138027213Y-98318713D01*
X138027213Y-94791541D01*
X141556069Y-94791541D01*
X141557149Y-94835152D01*
X141560370Y-94878494D01*
X141565702Y-94921492D01*
X141573118Y-94964071D01*
X141582588Y-95006155D01*
X141594082Y-95047670D01*
X141607573Y-95088540D01*
X141623031Y-95128691D01*
X141640427Y-95168047D01*
X141659733Y-95206534D01*
X141680918Y-95244075D01*
X141703956Y-95280597D01*
X141728815Y-95316024D01*
X141755469Y-95350281D01*
X141783887Y-95383292D01*
X141814040Y-95414984D01*
X141845736Y-95445133D01*
X141878752Y-95473547D01*
X141913011Y-95500197D01*
X141948440Y-95525055D01*
X141984964Y-95548092D01*
X142022506Y-95569277D01*
X142060993Y-95588583D01*
X142100348Y-95605980D01*
X142140498Y-95621440D01*
X142181367Y-95634932D01*
X142222881Y-95646428D01*
X142264963Y-95655899D01*
X142307539Y-95663316D01*
X142350534Y-95668650D01*
X142393874Y-95671872D01*
X142437482Y-95672952D01*
X143318862Y-95672952D01*
X143318862Y-96555985D01*
X143319961Y-96599596D01*
X143323235Y-96642938D01*
X143328651Y-96685937D01*
X143336174Y-96728516D01*
X143345770Y-96770600D01*
X143357406Y-96812116D01*
X143371048Y-96852986D01*
X143386662Y-96893137D01*
X143404213Y-96932494D01*
X143423669Y-96970980D01*
X143444994Y-97008522D01*
X143468155Y-97045043D01*
X143493119Y-97080470D01*
X143519850Y-97114726D01*
X143548316Y-97147737D01*
X143578483Y-97179428D01*
X143610161Y-97209577D01*
X143643127Y-97237992D01*
X143677313Y-97264643D01*
X143712652Y-97289501D01*
X143749074Y-97312538D01*
X143786514Y-97333724D01*
X143824902Y-97353030D01*
X143864172Y-97370427D01*
X143904255Y-97385886D01*
X143945085Y-97399379D01*
X143986592Y-97410875D01*
X144028709Y-97420346D01*
X144071369Y-97427763D01*
X144114504Y-97433097D01*
X144158046Y-97436319D01*
X144201928Y-97437399D01*
X144245539Y-97436319D01*
X144288882Y-97433098D01*
X144331880Y-97427766D01*
X144374459Y-97420350D01*
X144416543Y-97410881D01*
X144458058Y-97399386D01*
X144498928Y-97385895D01*
X144539079Y-97370437D01*
X144578435Y-97353041D01*
X144616921Y-97333736D01*
X144654463Y-97312550D01*
X144690984Y-97289513D01*
X144726411Y-97264653D01*
X144760668Y-97238000D01*
X144793680Y-97209582D01*
X144825371Y-97179428D01*
X144855520Y-97147732D01*
X144883934Y-97114716D01*
X144910585Y-97080456D01*
X144935443Y-97045027D01*
X144958479Y-97008504D01*
X144979665Y-96970961D01*
X144998971Y-96932475D01*
X145016368Y-96893119D01*
X145031828Y-96852969D01*
X145045320Y-96812100D01*
X145056816Y-96770587D01*
X145066288Y-96728505D01*
X145073705Y-96685928D01*
X145079039Y-96642933D01*
X145082261Y-96599593D01*
X145083341Y-96555985D01*
X145083341Y-95672952D01*
X145964722Y-95672952D01*
X146008606Y-95671872D01*
X146052151Y-95668650D01*
X146095289Y-95663316D01*
X146137951Y-95655899D01*
X146180070Y-95646427D01*
X146221579Y-95634931D01*
X146262409Y-95621439D01*
X146302493Y-95605979D01*
X146341763Y-95588582D01*
X146380151Y-95569276D01*
X146417590Y-95548090D01*
X146454011Y-95525054D01*
X146489346Y-95500196D01*
X146523529Y-95473546D01*
X146556491Y-95445132D01*
X146588164Y-95414984D01*
X146618331Y-95383288D01*
X146646797Y-95350272D01*
X146673529Y-95316012D01*
X146698493Y-95280583D01*
X146721654Y-95244060D01*
X146742979Y-95206518D01*
X146762435Y-95168031D01*
X146779986Y-95128675D01*
X146795600Y-95088525D01*
X146809242Y-95047656D01*
X146820878Y-95006143D01*
X146830475Y-94964061D01*
X146837998Y-94921484D01*
X146843413Y-94878489D01*
X146846688Y-94835149D01*
X146847786Y-94791541D01*
X146847652Y-94791541D01*
X146846504Y-94746093D01*
X146843095Y-94701253D01*
X146837481Y-94657075D01*
X146829717Y-94613614D01*
X146819860Y-94570923D01*
X146807963Y-94529059D01*
X146794084Y-94488076D01*
X146780724Y-94454230D01*
X150375000Y-94454230D01*
X150375000Y-95127243D01*
X151256379Y-95568781D01*
X151256379Y-94012692D01*
X150375000Y-94454230D01*
X146780724Y-94454230D01*
X146778276Y-94448029D01*
X146760597Y-94408973D01*
X146741100Y-94370962D01*
X146719841Y-94334051D01*
X146696877Y-94298296D01*
X146672261Y-94263750D01*
X146646050Y-94230469D01*
X146618300Y-94198508D01*
X146589064Y-94167921D01*
X146558400Y-94138763D01*
X146526362Y-94111089D01*
X146493005Y-94084953D01*
X146458386Y-94060412D01*
X146422559Y-94037518D01*
X146385581Y-94016328D01*
X146347505Y-93996896D01*
X146308389Y-93979277D01*
X146268286Y-93963525D01*
X146227253Y-93949696D01*
X146185345Y-93937843D01*
X146142618Y-93928023D01*
X146099127Y-93920290D01*
X146054926Y-93914698D01*
X146010073Y-93911303D01*
X145964621Y-93910159D01*
X145083242Y-93910159D01*
X145083242Y-93027130D01*
X145082093Y-92981828D01*
X145078685Y-92937115D01*
X145073072Y-92893046D01*
X145065310Y-92849677D01*
X145055455Y-92807064D01*
X145043564Y-92765262D01*
X145029691Y-92724327D01*
X145013892Y-92684315D01*
X144996223Y-92645282D01*
X144976739Y-92607283D01*
X144955498Y-92570374D01*
X144932553Y-92534611D01*
X144907961Y-92500049D01*
X144881778Y-92466744D01*
X144854059Y-92434753D01*
X144824860Y-92404129D01*
X144794236Y-92374931D01*
X144762244Y-92347212D01*
X144728940Y-92321028D01*
X144694378Y-92296437D01*
X144658614Y-92273492D01*
X144621705Y-92252250D01*
X144583707Y-92232767D01*
X144544673Y-92215098D01*
X144504662Y-92199300D01*
X144463727Y-92185427D01*
X144421925Y-92173535D01*
X144379312Y-92163681D01*
X144335944Y-92155919D01*
X144291875Y-92150306D01*
X144247162Y-92146898D01*
X144201861Y-92145749D01*
X144156409Y-92146898D01*
X144111555Y-92150306D01*
X144067354Y-92155919D01*
X144023863Y-92163681D01*
X143981135Y-92173535D01*
X143939227Y-92185427D01*
X143898194Y-92199300D01*
X143858092Y-92215099D01*
X143818975Y-92232768D01*
X143780899Y-92252251D01*
X143743921Y-92273493D01*
X143708094Y-92296437D01*
X143673475Y-92321029D01*
X143640118Y-92347213D01*
X143608080Y-92374932D01*
X143577416Y-92404131D01*
X143548181Y-92434754D01*
X143520430Y-92466746D01*
X143494219Y-92500050D01*
X143469604Y-92534612D01*
X143446640Y-92570376D01*
X143425381Y-92607285D01*
X143405885Y-92645284D01*
X143388205Y-92684317D01*
X143372398Y-92724329D01*
X143358518Y-92765263D01*
X143346622Y-92807065D01*
X143336765Y-92849678D01*
X143329001Y-92893047D01*
X143323387Y-92937116D01*
X143319978Y-92981829D01*
X143318830Y-93027130D01*
X143318830Y-93910159D01*
X142437450Y-93910159D01*
X142392003Y-93911303D01*
X142347163Y-93914698D01*
X142302985Y-93920290D01*
X142259523Y-93928024D01*
X142216833Y-93937844D01*
X142174969Y-93949696D01*
X142133986Y-93963526D01*
X142093939Y-93979278D01*
X142054883Y-93996897D01*
X142016872Y-94016329D01*
X141979961Y-94037520D01*
X141944205Y-94060413D01*
X141909660Y-94084955D01*
X141876379Y-94111091D01*
X141844417Y-94138765D01*
X141813830Y-94167923D01*
X141784672Y-94198510D01*
X141756998Y-94230472D01*
X141730863Y-94263753D01*
X141706321Y-94298299D01*
X141683428Y-94334054D01*
X141662238Y-94370965D01*
X141642806Y-94408976D01*
X141625186Y-94448032D01*
X141609435Y-94488079D01*
X141595605Y-94529062D01*
X141583753Y-94570925D01*
X141573933Y-94613615D01*
X141566200Y-94657077D01*
X141560608Y-94701254D01*
X141557213Y-94746094D01*
X141556069Y-94791541D01*
X138027213Y-94791541D01*
X138027213Y-82443755D01*
X143318854Y-82443755D01*
X143318854Y-85972618D01*
X143319953Y-86016230D01*
X143323227Y-86059572D01*
X143328643Y-86102571D01*
X143336166Y-86145150D01*
X143345763Y-86187234D01*
X143357399Y-86228749D01*
X143371041Y-86269620D01*
X143386654Y-86309771D01*
X143404206Y-86349127D01*
X143423661Y-86387613D01*
X143444987Y-86425155D01*
X143468148Y-86461676D01*
X143493112Y-86497102D01*
X143519844Y-86531359D01*
X143548310Y-86564370D01*
X143578476Y-86596060D01*
X143610155Y-86626209D01*
X143643121Y-86654623D01*
X143677306Y-86681274D01*
X143712644Y-86706132D01*
X143749067Y-86729169D01*
X143786506Y-86750355D01*
X143824894Y-86769661D01*
X143864164Y-86787058D01*
X143904247Y-86802518D01*
X143945076Y-86816010D01*
X143986583Y-86827507D01*
X144028700Y-86836978D01*
X144071360Y-86844395D01*
X144114495Y-86849729D01*
X144158037Y-86852951D01*
X144201861Y-86854030D01*
X144201919Y-86854031D01*
X144245530Y-86852951D01*
X144288873Y-86849731D01*
X144331871Y-86844398D01*
X144374450Y-86836982D01*
X144416534Y-86827513D01*
X144458049Y-86816018D01*
X144498919Y-86802527D01*
X144539070Y-86787069D01*
X144578426Y-86769673D01*
X144616912Y-86750368D01*
X144654454Y-86729182D01*
X144690975Y-86706145D01*
X144726402Y-86681285D01*
X144760658Y-86654632D01*
X144793669Y-86626214D01*
X144825361Y-86596060D01*
X144855510Y-86564364D01*
X144883924Y-86531349D01*
X144910575Y-86497089D01*
X144935434Y-86461660D01*
X144958471Y-86425137D01*
X144979657Y-86387595D01*
X144998963Y-86349109D01*
X145016360Y-86309753D01*
X145031820Y-86269603D01*
X145045312Y-86228734D01*
X145056809Y-86187221D01*
X145066280Y-86145139D01*
X145073697Y-86102562D01*
X145079031Y-86059567D01*
X145082253Y-86016227D01*
X145083331Y-85972702D01*
X150375000Y-85972702D01*
X151256379Y-85972702D01*
X151256379Y-82443839D01*
X150375000Y-82443839D01*
X150375000Y-85972702D01*
X145083331Y-85972702D01*
X145083333Y-85972618D01*
X145083333Y-82443755D01*
X145083265Y-82443755D01*
X145082116Y-82398453D01*
X145078707Y-82353740D01*
X145073094Y-82309671D01*
X145065333Y-82266302D01*
X145055478Y-82223688D01*
X145043587Y-82181887D01*
X145029714Y-82140952D01*
X145013915Y-82100940D01*
X144996246Y-82061907D01*
X144976763Y-82023908D01*
X144955521Y-81986999D01*
X144932576Y-81951236D01*
X144907984Y-81916674D01*
X144881801Y-81883370D01*
X144854082Y-81851378D01*
X144824883Y-81820755D01*
X144794260Y-81791556D01*
X144762268Y-81763837D01*
X144728963Y-81737654D01*
X144694402Y-81713062D01*
X144658638Y-81690118D01*
X144621730Y-81668876D01*
X144583731Y-81649393D01*
X144544697Y-81631724D01*
X144504686Y-81615925D01*
X144463751Y-81602052D01*
X144421950Y-81590161D01*
X144379337Y-81580307D01*
X144335968Y-81572545D01*
X144291899Y-81566932D01*
X144247186Y-81563523D01*
X144201885Y-81562375D01*
X144156433Y-81563523D01*
X144111579Y-81566932D01*
X144067379Y-81572545D01*
X144023887Y-81580307D01*
X143981160Y-81590161D01*
X143939252Y-81602053D01*
X143898219Y-81615926D01*
X143858116Y-81631725D01*
X143818999Y-81649394D01*
X143780924Y-81668877D01*
X143743945Y-81690119D01*
X143708118Y-81713063D01*
X143673499Y-81737655D01*
X143640143Y-81763838D01*
X143608105Y-81791557D01*
X143577440Y-81820756D01*
X143548205Y-81851380D01*
X143520455Y-81883371D01*
X143494244Y-81916676D01*
X143469629Y-81951238D01*
X143446664Y-81987001D01*
X143425406Y-82023910D01*
X143405909Y-82061909D01*
X143388229Y-82100942D01*
X143372422Y-82140954D01*
X143358543Y-82181888D01*
X143346647Y-82223690D01*
X143336789Y-82266303D01*
X143329026Y-82309672D01*
X143323412Y-82353740D01*
X143320003Y-82398453D01*
X143318854Y-82443755D01*
X138027213Y-82443755D01*
X138027213Y-80680952D01*
X117743621Y-80680952D01*
X117743621Y-98318713D01*
X115979168Y-98318713D01*
X115979168Y-79798047D01*
X115980316Y-79752745D01*
X115983725Y-79708032D01*
X115989338Y-79663963D01*
X115997099Y-79620594D01*
X116006954Y-79577981D01*
X116018846Y-79536179D01*
X116032719Y-79495244D01*
X116048518Y-79455232D01*
X116066187Y-79416199D01*
X116085670Y-79378200D01*
X116106912Y-79341291D01*
X116129856Y-79305528D01*
X116154448Y-79270966D01*
X116180631Y-79237662D01*
X116208350Y-79205670D01*
X116237549Y-79175047D01*
X116268173Y-79145848D01*
X116300165Y-79118129D01*
X116333469Y-79091946D01*
X116368031Y-79067354D01*
X116403794Y-79044410D01*
X116440703Y-79023168D01*
X116478702Y-79003685D01*
X116517736Y-78986016D01*
X116557747Y-78970218D01*
X116598682Y-78956345D01*
X116640484Y-78944453D01*
X116683097Y-78934599D01*
X116726466Y-78926837D01*
X116770534Y-78921224D01*
X116815247Y-78917816D01*
X116860549Y-78916667D01*
X117743621Y-78916667D01*
G37*
D10*
G36*
X94969708Y-95483908D02*
G01*
X94952178Y-95542705D01*
X94923748Y-95589087D01*
X94883661Y-95624403D01*
X94831770Y-95646391D01*
X94764355Y-95654337D01*
X94712521Y-95649037D01*
X94669338Y-95634016D01*
X94631581Y-95610294D01*
X94600914Y-95580276D01*
X94576739Y-95544412D01*
X94558287Y-95502247D01*
X94546571Y-95456900D01*
X94541459Y-95409214D01*
X94974868Y-95409214D01*
X94969708Y-95483908D01*
G37*
G36*
X97862911Y-95483908D02*
G01*
X97845381Y-95542705D01*
X97816951Y-95589087D01*
X97776864Y-95624403D01*
X97724973Y-95646391D01*
X97657558Y-95654337D01*
X97605724Y-95649037D01*
X97562541Y-95634016D01*
X97524784Y-95610294D01*
X97494117Y-95580276D01*
X97469942Y-95544412D01*
X97451490Y-95502247D01*
X97439774Y-95456900D01*
X97434662Y-95409214D01*
X97868071Y-95409214D01*
X97862911Y-95483908D01*
G37*
G36*
X100520688Y-95011361D02*
G01*
X100572035Y-95033196D01*
X100620181Y-95068047D01*
X100675465Y-95122418D01*
X100675465Y-95291099D01*
X100550285Y-95291099D01*
X100491921Y-95288366D01*
X100445425Y-95280938D01*
X100403640Y-95267849D01*
X100371762Y-95250853D01*
X100345995Y-95228621D01*
X100328659Y-95203147D01*
X100318494Y-95173879D01*
X100314926Y-95139167D01*
X100319587Y-95099667D01*
X100332802Y-95067381D01*
X100354457Y-95040658D01*
X100382893Y-95021031D01*
X100419025Y-95008576D01*
X100465032Y-95004064D01*
X100520688Y-95011361D01*
G37*
G36*
X101517035Y-95022405D02*
G01*
X101559588Y-95042166D01*
X101595092Y-95073080D01*
X101623488Y-95113369D01*
X101644472Y-95159925D01*
X101659446Y-95213069D01*
X101668143Y-95268495D01*
X101671036Y-95324279D01*
X101661669Y-95443109D01*
X101648741Y-95498241D01*
X101629759Y-95544952D01*
X101602984Y-95585325D01*
X101568954Y-95616155D01*
X101527303Y-95635877D01*
X101473938Y-95642906D01*
X101417976Y-95634412D01*
X101362014Y-95607662D01*
X101302479Y-95559558D01*
X101236833Y-95486053D01*
X101236833Y-95167903D01*
X101298312Y-95099960D01*
X101351297Y-95054708D01*
X101407680Y-95025012D01*
X101465047Y-95015495D01*
X101517035Y-95022405D01*
G37*
G36*
X104648857Y-95483908D02*
G01*
X104631327Y-95542705D01*
X104602896Y-95589087D01*
X104562809Y-95624403D01*
X104510919Y-95646391D01*
X104443504Y-95654337D01*
X104391669Y-95649037D01*
X104348487Y-95634016D01*
X104310730Y-95610294D01*
X104280062Y-95580276D01*
X104255888Y-95544412D01*
X104237436Y-95502247D01*
X104225720Y-95456900D01*
X104220607Y-95409214D01*
X104654016Y-95409214D01*
X104648857Y-95483908D01*
G37*
G36*
X96884199Y-92835021D02*
G01*
X96934098Y-92852054D01*
X96977027Y-92879888D01*
X97011334Y-92916907D01*
X97037176Y-92961773D01*
X97055786Y-93016368D01*
X97066304Y-93075808D01*
X97069995Y-93143454D01*
X97066927Y-93207246D01*
X97058009Y-93266015D01*
X97041801Y-93321018D01*
X97018478Y-93367223D01*
X96986218Y-93406085D01*
X96943862Y-93436124D01*
X96893064Y-93454668D01*
X96826699Y-93461446D01*
X96764844Y-93455346D01*
X96715171Y-93438347D01*
X96672674Y-93410456D01*
X96638412Y-93373018D01*
X96612508Y-93327825D01*
X96593563Y-93273080D01*
X96582678Y-93213793D01*
X96578878Y-93146947D01*
X96581955Y-93082376D01*
X96590864Y-93023433D01*
X96607180Y-92968518D01*
X96630792Y-92922622D01*
X96663390Y-92884193D01*
X96705884Y-92854277D01*
X96756691Y-92835735D01*
X96823127Y-92828955D01*
X96884199Y-92835021D01*
G37*
G36*
X97866875Y-92838405D02*
G01*
X97909427Y-92858166D01*
X97944931Y-92889080D01*
X97973327Y-92929369D01*
X97994312Y-92975925D01*
X98009286Y-93029069D01*
X98017982Y-93084495D01*
X98020875Y-93140279D01*
X98011509Y-93259109D01*
X97998580Y-93314241D01*
X97979598Y-93360952D01*
X97952824Y-93401325D01*
X97918794Y-93432155D01*
X97877143Y-93451877D01*
X97823777Y-93458906D01*
X97767815Y-93450412D01*
X97711853Y-93423662D01*
X97652319Y-93375558D01*
X97586673Y-93302053D01*
X97586673Y-92983903D01*
X97648152Y-92915960D01*
X97701137Y-92870708D01*
X97757519Y-92841012D01*
X97814887Y-92831495D01*
X97866875Y-92838405D01*
G37*
G36*
X99753271Y-92835021D02*
G01*
X99803170Y-92852054D01*
X99846099Y-92879888D01*
X99880406Y-92916907D01*
X99906247Y-92961773D01*
X99924858Y-93016368D01*
X99935376Y-93075808D01*
X99939067Y-93143454D01*
X99935999Y-93207246D01*
X99927081Y-93266015D01*
X99910873Y-93321018D01*
X99887550Y-93367223D01*
X99855290Y-93406085D01*
X99812934Y-93436124D01*
X99762136Y-93454668D01*
X99695771Y-93461446D01*
X99633916Y-93455346D01*
X99584243Y-93438347D01*
X99541746Y-93410456D01*
X99507484Y-93373018D01*
X99481580Y-93327825D01*
X99462635Y-93273080D01*
X99451750Y-93213793D01*
X99447950Y-93146947D01*
X99451027Y-93082376D01*
X99459936Y-93023433D01*
X99476252Y-92968518D01*
X99499863Y-92922622D01*
X99532462Y-92884193D01*
X99574956Y-92854277D01*
X99625763Y-92835735D01*
X99692199Y-92828955D01*
X99753271Y-92835021D01*
G37*
G36*
X101793756Y-93299908D02*
G01*
X101776226Y-93358705D01*
X101747795Y-93405087D01*
X101707708Y-93440403D01*
X101655818Y-93462391D01*
X101588402Y-93470337D01*
X101536568Y-93465037D01*
X101493386Y-93450016D01*
X101455629Y-93426294D01*
X101424961Y-93396276D01*
X101400787Y-93360412D01*
X101382335Y-93318247D01*
X101370619Y-93272900D01*
X101365506Y-93225214D01*
X101798915Y-93225214D01*
X101793756Y-93299908D01*
G37*
G36*
X104945867Y-96289025D02*
G01*
X93008281Y-96289025D01*
X93008281Y-94967074D01*
X93152725Y-94967074D01*
X93152725Y-95991062D01*
X93157799Y-96021743D01*
X93170902Y-96039324D01*
X93189977Y-96049783D01*
X93209560Y-96053136D01*
X93754814Y-96053136D01*
X93767673Y-96049564D01*
X93777040Y-96037975D01*
X93782834Y-96018051D01*
X93785057Y-95988284D01*
X93782834Y-95960342D01*
X93777040Y-95940815D01*
X93767673Y-95929702D01*
X93754814Y-95926130D01*
X93305529Y-95926130D01*
X93305529Y-95566702D01*
X93690914Y-95566702D01*
X93703773Y-95562733D01*
X93713537Y-95551620D01*
X93719331Y-95532093D01*
X93721078Y-95502882D01*
X93719331Y-95475416D01*
X93713537Y-95456762D01*
X93703773Y-95446602D01*
X93690914Y-95443506D01*
X93305529Y-95443506D01*
X93305529Y-95032006D01*
X93761085Y-95032006D01*
X93773944Y-95028434D01*
X93784184Y-95017321D01*
X93790375Y-94997793D01*
X93792122Y-94968026D01*
X93790375Y-94940085D01*
X93786469Y-94927464D01*
X94023670Y-94927464D01*
X94023670Y-96116084D01*
X94026766Y-96128546D01*
X94038276Y-96137437D01*
X94060978Y-96142755D01*
X94096461Y-96144581D01*
X94132896Y-96142755D01*
X94155042Y-96137437D01*
X94166632Y-96128546D01*
X94170204Y-96116084D01*
X94170204Y-95325232D01*
X94386908Y-95325232D01*
X94392767Y-95409214D01*
X94393876Y-95425106D01*
X94413579Y-95510423D01*
X94446728Y-95587518D01*
X94490418Y-95649971D01*
X94545695Y-95700594D01*
X94611630Y-95738002D01*
X94685632Y-95760739D01*
X94770546Y-95768642D01*
X94860340Y-95760613D01*
X94930812Y-95738558D01*
X94991724Y-95702804D01*
X95039641Y-95657512D01*
X95076330Y-95602741D01*
X95102271Y-95538046D01*
X95117166Y-95467901D01*
X95122274Y-95391513D01*
X95122274Y-95365000D01*
X95117422Y-95334076D01*
X95105600Y-95316897D01*
X95289843Y-95316897D01*
X95297575Y-95429866D01*
X95318658Y-95518995D01*
X95353827Y-95597500D01*
X95397719Y-95657432D01*
X95452423Y-95704486D01*
X95515835Y-95737446D01*
X95585821Y-95756901D01*
X95662845Y-95763562D01*
X95736985Y-95756338D01*
X95803107Y-95737367D01*
X95856847Y-95710299D01*
X95887431Y-95686882D01*
X96007588Y-95686882D01*
X96009810Y-95715379D01*
X96015605Y-95734509D01*
X96024892Y-95745225D01*
X96037831Y-95748321D01*
X96148803Y-95748321D01*
X96148803Y-95938354D01*
X96151898Y-95949864D01*
X96163408Y-95959231D01*
X96186111Y-95964946D01*
X96221593Y-95966772D01*
X96258028Y-95964946D01*
X96280175Y-95959231D01*
X96291764Y-95949864D01*
X96295336Y-95938354D01*
X96295336Y-95748321D01*
X96500451Y-95748321D01*
X96512914Y-95745225D01*
X96522201Y-95734509D01*
X96527996Y-95715379D01*
X96529742Y-95686882D01*
X96527364Y-95657288D01*
X96521725Y-95640604D01*
X96512143Y-95629754D01*
X96500451Y-95626395D01*
X96295336Y-95626395D01*
X96295336Y-95181953D01*
X96302313Y-95105388D01*
X96319706Y-95057566D01*
X96339385Y-95034891D01*
X96367543Y-95020732D01*
X96407260Y-95015495D01*
X96443616Y-95019464D01*
X96472034Y-95027957D01*
X96493387Y-95036372D01*
X96509342Y-95040420D01*
X96517756Y-95038197D01*
X96524027Y-95029704D01*
X96527996Y-95012796D01*
X96529742Y-94986045D01*
X96526170Y-94945006D01*
X96517736Y-94927384D01*
X96723824Y-94927384D01*
X96723824Y-95725936D01*
X96726443Y-95737843D01*
X96737080Y-95746734D01*
X96757480Y-95752052D01*
X96790423Y-95753401D01*
X96822809Y-95752052D01*
X96842733Y-95746734D01*
X96852973Y-95737843D01*
X96856148Y-95725857D01*
X96856148Y-95609646D01*
X96917826Y-95689105D01*
X96972438Y-95737446D01*
X97023479Y-95761816D01*
X97074599Y-95768642D01*
X97100715Y-95767293D01*
X97131355Y-95762371D01*
X97160249Y-95754433D01*
X97178506Y-95745543D01*
X97185571Y-95737129D01*
X97188667Y-95726889D01*
X97190413Y-95708711D01*
X97190889Y-95676325D01*
X97190016Y-95643462D01*
X97186444Y-95622585D01*
X97179776Y-95611075D01*
X97168743Y-95607106D01*
X97151359Y-95611075D01*
X97128259Y-95619013D01*
X97099445Y-95626633D01*
X97064836Y-95630205D01*
X97021256Y-95621156D01*
X96976407Y-95591468D01*
X96927113Y-95536459D01*
X96870357Y-95452635D01*
X96870357Y-95325232D01*
X97280111Y-95325232D01*
X97285970Y-95409214D01*
X97287079Y-95425106D01*
X97306782Y-95510423D01*
X97339931Y-95587518D01*
X97383621Y-95649971D01*
X97438898Y-95700594D01*
X97504833Y-95738002D01*
X97578835Y-95760739D01*
X97663750Y-95768642D01*
X97753543Y-95760613D01*
X97824016Y-95738558D01*
X97884927Y-95702804D01*
X97901772Y-95686882D01*
X98122242Y-95686882D01*
X98124465Y-95715379D01*
X98130259Y-95734509D01*
X98139547Y-95745225D01*
X98152486Y-95748321D01*
X98263457Y-95748321D01*
X98263457Y-95938354D01*
X98266553Y-95949864D01*
X98278063Y-95959231D01*
X98300765Y-95964946D01*
X98336248Y-95966772D01*
X98372683Y-95964946D01*
X98394829Y-95959231D01*
X98406419Y-95949864D01*
X98409991Y-95938354D01*
X98409991Y-95748321D01*
X98615106Y-95748321D01*
X98627568Y-95745225D01*
X98636856Y-95734509D01*
X98642650Y-95715379D01*
X98644397Y-95686882D01*
X98642019Y-95657288D01*
X98636379Y-95640604D01*
X98626797Y-95629754D01*
X98615106Y-95626395D01*
X98409991Y-95626395D01*
X98409991Y-95463986D01*
X99198938Y-95463986D01*
X99203311Y-95558876D01*
X99215831Y-95643497D01*
X99235770Y-95719030D01*
X99264450Y-95791555D01*
X99299009Y-95854464D01*
X99339280Y-95908825D01*
X99386760Y-95956733D01*
X99439710Y-95996135D01*
X99498673Y-96027497D01*
X99561706Y-96049918D01*
X99629943Y-96063660D01*
X99704264Y-96068377D01*
X99801027Y-96058931D01*
X99888026Y-96035197D01*
X99959071Y-96002096D01*
X100002173Y-95971217D01*
X100017732Y-95952881D01*
X100023526Y-95938275D01*
X100027019Y-95918271D01*
X100028368Y-95890727D01*
X100026622Y-95860563D01*
X100021304Y-95839686D01*
X100012810Y-95827224D01*
X100000903Y-95823255D01*
X99987875Y-95826699D01*
X99966215Y-95840639D01*
X99908982Y-95879138D01*
X99871592Y-95898597D01*
X99823729Y-95917557D01*
X99770734Y-95930333D01*
X99703391Y-95935020D01*
X99629689Y-95927169D01*
X99564398Y-95904301D01*
X99506737Y-95866774D01*
X99457316Y-95814047D01*
X99418723Y-95749622D01*
X99388495Y-95668704D01*
X99370557Y-95579448D01*
X99364125Y-95472559D01*
X99370348Y-95366680D01*
X99387622Y-95279112D01*
X99417142Y-95200250D01*
X99455173Y-95138612D01*
X99504262Y-95088955D01*
X99563049Y-95053279D01*
X99629973Y-95031863D01*
X99707836Y-95024385D01*
X99773682Y-95028960D01*
X99827222Y-95041611D01*
X99876015Y-95060580D01*
X99914301Y-95080268D01*
X99973359Y-95118846D01*
X99995869Y-95132681D01*
X100009714Y-95136151D01*
X100020430Y-95133452D01*
X100021361Y-95132103D01*
X100164821Y-95132103D01*
X100165614Y-95139167D01*
X100172003Y-95196090D01*
X100192365Y-95248790D01*
X100225544Y-95293740D01*
X100271427Y-95331026D01*
X100326908Y-95358999D01*
X100397480Y-95380162D01*
X100474578Y-95392210D01*
X100565367Y-95396514D01*
X100675465Y-95396514D01*
X100675465Y-95459223D01*
X100672879Y-95504345D01*
X100665702Y-95541698D01*
X100652658Y-95575075D01*
X100634188Y-95601311D01*
X100609665Y-95621835D01*
X100577750Y-95637111D01*
X100540931Y-95645957D01*
X100492497Y-95649256D01*
X100439985Y-95645827D01*
X100395258Y-95636159D01*
X100319768Y-95607344D01*
X100265632Y-95578450D01*
X100233245Y-95565432D01*
X100220783Y-95569004D01*
X100211416Y-95579641D01*
X100205701Y-95597898D01*
X100203954Y-95622426D01*
X100207050Y-95657591D01*
X100222132Y-95682119D01*
X100263409Y-95709505D01*
X100330881Y-95738399D01*
X100414388Y-95760069D01*
X100505833Y-95768642D01*
X100588449Y-95763341D01*
X100652366Y-95749036D01*
X100708084Y-95724283D01*
X100750081Y-95691645D01*
X100781940Y-95649846D01*
X100804218Y-95597739D01*
X100816626Y-95539090D01*
X100821126Y-95466923D01*
X100821126Y-94926591D01*
X100813982Y-94910556D01*
X100794454Y-94902618D01*
X100758099Y-94899919D01*
X100721188Y-94902618D01*
X100701184Y-94910556D01*
X100694993Y-94926591D01*
X100694993Y-95006446D01*
X100639085Y-94956549D01*
X100578226Y-94920161D01*
X100512048Y-94897378D01*
X100441933Y-94889759D01*
X100380672Y-94894016D01*
X100327786Y-94906111D01*
X100279862Y-94926471D01*
X100240786Y-94953421D01*
X100208949Y-94987731D01*
X100184824Y-95029466D01*
X100170012Y-95076743D01*
X100164821Y-95132103D01*
X100021361Y-95132103D01*
X100027495Y-95123212D01*
X100031464Y-95102177D01*
X100032814Y-95068361D01*
X100031940Y-95043357D01*
X100028845Y-95024544D01*
X100023050Y-95010256D01*
X100010587Y-94995015D01*
X99973359Y-94967550D01*
X99902711Y-94931591D01*
X99805949Y-94901904D01*
X99749898Y-94892910D01*
X99686483Y-94889759D01*
X99612660Y-94894105D01*
X99545621Y-94906691D01*
X99484464Y-94927067D01*
X99427121Y-94956050D01*
X99376100Y-94992675D01*
X99330786Y-95037324D01*
X99292595Y-95088383D01*
X99259988Y-95147991D01*
X99233150Y-95217276D01*
X99214694Y-95289498D01*
X99203032Y-95371313D01*
X99198938Y-95463986D01*
X98409991Y-95463986D01*
X98409991Y-95181953D01*
X98416967Y-95105388D01*
X98434360Y-95057566D01*
X98454040Y-95034891D01*
X98482198Y-95020732D01*
X98521915Y-95015495D01*
X98558271Y-95019464D01*
X98586688Y-95027957D01*
X98608041Y-95036372D01*
X98623996Y-95040420D01*
X98632411Y-95038197D01*
X98638681Y-95029704D01*
X98642650Y-95012796D01*
X98644397Y-94986045D01*
X98640825Y-94945006D01*
X98630188Y-94922780D01*
X98608914Y-94909365D01*
X98576448Y-94899125D01*
X98537870Y-94892458D01*
X98496990Y-94889759D01*
X98437390Y-94894140D01*
X98390384Y-94906111D01*
X98349648Y-94926990D01*
X98317594Y-94955802D01*
X98293543Y-94992520D01*
X98276317Y-95040023D01*
X98266909Y-95093364D01*
X98263457Y-95160123D01*
X98263457Y-95626395D01*
X98151533Y-95626395D01*
X98139894Y-95629746D01*
X98130259Y-95640604D01*
X98124620Y-95657288D01*
X98122242Y-95686882D01*
X97901772Y-95686882D01*
X97932844Y-95657512D01*
X97969533Y-95602741D01*
X97995474Y-95538046D01*
X98010370Y-95467901D01*
X98015478Y-95391513D01*
X98015478Y-95365000D01*
X98010625Y-95334076D01*
X97998094Y-95315865D01*
X97979523Y-95304890D01*
X97958642Y-95301259D01*
X97434662Y-95301259D01*
X97438164Y-95236114D01*
X97447998Y-95180683D01*
X97466064Y-95130261D01*
X97492370Y-95088682D01*
X97527712Y-95055034D01*
X97573178Y-95029704D01*
X97626212Y-95014677D01*
X97694866Y-95009145D01*
X97750086Y-95011627D01*
X97796074Y-95018511D01*
X97872913Y-95039626D01*
X97926176Y-95060662D01*
X97957769Y-95070108D01*
X97968803Y-95066933D01*
X97976344Y-95057566D01*
X97980392Y-95040261D01*
X97981741Y-95013114D01*
X97980789Y-94993031D01*
X97978566Y-94977869D01*
X97974121Y-94965804D01*
X97966104Y-94955564D01*
X97937289Y-94939529D01*
X97875136Y-94917541D01*
X97786787Y-94898332D01*
X97679784Y-94889759D01*
X97584885Y-94897037D01*
X97507056Y-94917303D01*
X97438301Y-94951837D01*
X97382272Y-94999064D01*
X97338528Y-95058946D01*
X97305830Y-95135040D01*
X97286938Y-95220584D01*
X97280111Y-95325232D01*
X96870357Y-95325232D01*
X96870357Y-94927384D01*
X96866785Y-94915398D01*
X96855196Y-94906984D01*
X96833049Y-94901745D01*
X96796614Y-94899919D01*
X96761132Y-94901745D01*
X96738429Y-94906984D01*
X96726919Y-94915398D01*
X96723824Y-94927384D01*
X96517736Y-94927384D01*
X96515533Y-94922780D01*
X96494260Y-94909365D01*
X96461794Y-94899125D01*
X96423216Y-94892458D01*
X96382336Y-94889759D01*
X96322736Y-94894140D01*
X96275730Y-94906111D01*
X96234993Y-94926990D01*
X96202939Y-94955802D01*
X96178889Y-94992520D01*
X96161662Y-95040023D01*
X96152254Y-95093364D01*
X96148803Y-95160123D01*
X96148803Y-95626395D01*
X96036878Y-95626395D01*
X96025239Y-95629746D01*
X96015605Y-95640604D01*
X96009965Y-95657288D01*
X96007588Y-95686882D01*
X95887431Y-95686882D01*
X95891059Y-95684104D01*
X95905665Y-95666958D01*
X95912333Y-95652193D01*
X95915905Y-95633063D01*
X95916778Y-95606312D01*
X95914337Y-95574259D01*
X95908761Y-95557653D01*
X95899476Y-95546995D01*
X95889234Y-95543841D01*
X95876070Y-95547059D01*
X95858593Y-95558844D01*
X95814617Y-95592103D01*
X95750241Y-95625284D01*
X95710438Y-95636362D01*
X95661019Y-95640366D01*
X95609928Y-95635021D01*
X95566914Y-95619785D01*
X95530259Y-95594943D01*
X95498927Y-95559558D01*
X95469520Y-95502764D01*
X95449900Y-95426415D01*
X95442568Y-95324993D01*
X95446466Y-95250668D01*
X95457174Y-95190287D01*
X95475878Y-95135917D01*
X95500277Y-95093604D01*
X95532161Y-95059481D01*
X95569972Y-95035737D01*
X95613377Y-95021696D01*
X95664591Y-95016765D01*
X95713246Y-95020980D01*
X95753416Y-95032800D01*
X95819539Y-95067964D01*
X95866611Y-95102732D01*
X95885278Y-95115297D01*
X95896378Y-95118370D01*
X95907015Y-95114798D01*
X95914556Y-95102891D01*
X95919001Y-95081618D01*
X95920350Y-95051136D01*
X95919477Y-95025020D01*
X95916381Y-95006446D01*
X95910983Y-94993110D01*
X95896775Y-94976123D01*
X95859070Y-94948340D01*
X95799059Y-94918811D01*
X95726745Y-94897855D01*
X95645937Y-94889759D01*
X95563028Y-94897135D01*
X95493212Y-94918018D01*
X95431870Y-94952999D01*
X95381764Y-95000730D01*
X95342911Y-95059981D01*
X95313340Y-95134246D01*
X95296063Y-95216875D01*
X95289843Y-95316897D01*
X95105600Y-95316897D01*
X95104890Y-95315865D01*
X95086320Y-95304890D01*
X95065439Y-95301259D01*
X94541459Y-95301259D01*
X94544961Y-95236114D01*
X94554795Y-95180683D01*
X94572861Y-95130261D01*
X94599167Y-95088682D01*
X94634509Y-95055034D01*
X94679975Y-95029704D01*
X94733009Y-95014677D01*
X94801663Y-95009145D01*
X94856883Y-95011627D01*
X94902871Y-95018511D01*
X94979710Y-95039626D01*
X95032973Y-95060662D01*
X95064566Y-95070108D01*
X95075600Y-95066933D01*
X95083141Y-95057566D01*
X95087189Y-95040261D01*
X95088538Y-95013114D01*
X95087586Y-94993031D01*
X95085363Y-94977869D01*
X95080918Y-94965804D01*
X95072901Y-94955564D01*
X95044086Y-94939529D01*
X94981933Y-94917541D01*
X94893584Y-94898332D01*
X94786581Y-94889759D01*
X94691681Y-94897037D01*
X94613852Y-94917303D01*
X94545098Y-94951837D01*
X94489069Y-94999064D01*
X94445325Y-95058946D01*
X94412627Y-95135040D01*
X94393734Y-95220584D01*
X94386908Y-95325232D01*
X94170204Y-95325232D01*
X94170204Y-94927464D01*
X94166632Y-94915478D01*
X94155042Y-94906984D01*
X94132896Y-94901745D01*
X94096461Y-94899919D01*
X94060978Y-94901745D01*
X94038276Y-94906984D01*
X94026766Y-94915478D01*
X94023670Y-94927464D01*
X93786469Y-94927464D01*
X93784184Y-94920081D01*
X93773944Y-94908572D01*
X93761085Y-94905000D01*
X93209560Y-94905000D01*
X93189972Y-94908335D01*
X93170902Y-94918732D01*
X93157795Y-94936378D01*
X93152725Y-94967074D01*
X93008281Y-94967074D01*
X93008281Y-94608281D01*
X101090300Y-94608281D01*
X101090300Y-95167903D01*
X101090300Y-95725857D01*
X101092919Y-95738716D01*
X101103556Y-95747131D01*
X101123956Y-95752052D01*
X101154200Y-95753401D01*
X101184840Y-95752052D01*
X101204843Y-95747289D01*
X101215956Y-95739034D01*
X101219052Y-95726413D01*
X101219052Y-95621156D01*
X101289223Y-95686009D01*
X101357092Y-95731731D01*
X101427263Y-95759275D01*
X101503229Y-95768642D01*
X101585836Y-95759716D01*
X101651509Y-95734827D01*
X101707091Y-95694880D01*
X101751367Y-95642430D01*
X101784360Y-95580059D01*
X101807806Y-95505977D01*
X101821044Y-95426817D01*
X101825587Y-95341187D01*
X101819629Y-95239338D01*
X101802884Y-95152741D01*
X101774208Y-95074053D01*
X101743261Y-95022639D01*
X101972517Y-95022639D01*
X101974263Y-95050977D01*
X101978709Y-95069552D01*
X101986250Y-95079713D01*
X101997363Y-95082808D01*
X102026256Y-95070822D01*
X102073328Y-95044706D01*
X102139451Y-95018511D01*
X102179356Y-95009748D01*
X102227403Y-95006605D01*
X102294875Y-95014622D01*
X102323560Y-95024755D01*
X102347265Y-95038277D01*
X102366954Y-95056045D01*
X102381477Y-95077966D01*
X102390309Y-95103520D01*
X102393463Y-95135040D01*
X102388964Y-95166678D01*
X102376159Y-95191875D01*
X102356490Y-95213312D01*
X102330437Y-95232755D01*
X102266457Y-95264269D01*
X102193190Y-95293162D01*
X102119527Y-95327375D01*
X102085342Y-95348689D01*
X102055150Y-95374050D01*
X102029654Y-95404021D01*
X102009349Y-95439775D01*
X101996638Y-95480413D01*
X101992044Y-95531379D01*
X101996595Y-95577492D01*
X102010222Y-95621553D01*
X102032873Y-95661795D01*
X102064835Y-95697042D01*
X102104831Y-95725710D01*
X102155882Y-95749036D01*
X102213204Y-95763450D01*
X102283365Y-95768642D01*
X102347265Y-95763086D01*
X102404973Y-95749115D01*
X102448949Y-95731017D01*
X102476494Y-95713791D01*
X102488956Y-95701091D01*
X102493322Y-95689105D01*
X102496021Y-95672594D01*
X102497370Y-95648621D01*
X102496021Y-95622426D01*
X102491576Y-95604169D01*
X102484035Y-95593929D01*
X102474271Y-95590833D01*
X102451172Y-95600915D01*
X102412117Y-95622585D01*
X102355679Y-95644176D01*
X102321932Y-95651660D01*
X102281539Y-95654337D01*
X102245547Y-95652107D01*
X102215893Y-95645922D01*
X102189386Y-95635417D01*
X102169218Y-95622029D01*
X102153202Y-95605106D01*
X102141673Y-95585356D01*
X102132386Y-95539396D01*
X102136996Y-95506885D01*
X102150088Y-95481132D01*
X102170160Y-95459394D01*
X102196286Y-95439855D01*
X102261139Y-95407865D01*
X102335279Y-95378495D01*
X102409895Y-95344759D01*
X102444850Y-95323942D01*
X102475144Y-95299433D01*
X102500634Y-95270312D01*
X102516904Y-95242281D01*
X102743286Y-95242281D01*
X102743286Y-95725936D01*
X102746382Y-95737843D01*
X102758368Y-95746734D01*
X102781468Y-95752052D01*
X102816950Y-95753401D01*
X102852512Y-95752052D01*
X102875135Y-95746734D01*
X102887121Y-95737843D01*
X102890693Y-95725936D01*
X102890693Y-95261728D01*
X102893562Y-95195275D01*
X102900853Y-95149725D01*
X102914099Y-95109956D01*
X102931970Y-95077966D01*
X102955655Y-95051567D01*
X102984836Y-95031847D01*
X103018688Y-95019760D01*
X103059453Y-95015495D01*
X103112993Y-95024701D01*
X103169075Y-95054232D01*
X103222532Y-95099250D01*
X103284968Y-95167823D01*
X103284968Y-95725936D01*
X103288064Y-95737843D01*
X103300050Y-95746734D01*
X103322673Y-95752052D01*
X103358711Y-95753401D01*
X103394193Y-95752052D01*
X103416420Y-95746734D01*
X103428406Y-95737843D01*
X103432375Y-95725936D01*
X103432375Y-94927464D01*
X103702819Y-94927464D01*
X103702819Y-96116084D01*
X103705915Y-96128546D01*
X103717424Y-96137437D01*
X103740127Y-96142755D01*
X103775609Y-96144581D01*
X103812044Y-96142755D01*
X103834191Y-96137437D01*
X103845780Y-96128546D01*
X103849352Y-96116084D01*
X103849352Y-95325232D01*
X104066057Y-95325232D01*
X104071916Y-95409214D01*
X104073025Y-95425106D01*
X104092728Y-95510423D01*
X104125876Y-95587518D01*
X104169567Y-95649971D01*
X104224844Y-95700594D01*
X104290778Y-95738002D01*
X104364781Y-95760739D01*
X104449695Y-95768642D01*
X104539488Y-95760613D01*
X104609961Y-95738558D01*
X104670872Y-95702804D01*
X104718790Y-95657512D01*
X104755479Y-95602741D01*
X104781420Y-95538046D01*
X104796315Y-95467901D01*
X104801423Y-95391513D01*
X104801423Y-95365000D01*
X104796571Y-95334076D01*
X104784039Y-95315865D01*
X104765468Y-95304890D01*
X104744588Y-95301259D01*
X104220607Y-95301259D01*
X104224110Y-95236114D01*
X104233943Y-95180683D01*
X104252010Y-95130261D01*
X104278316Y-95088682D01*
X104313658Y-95055034D01*
X104359124Y-95029704D01*
X104412158Y-95014677D01*
X104480812Y-95009145D01*
X104536031Y-95011627D01*
X104582020Y-95018511D01*
X104658859Y-95039626D01*
X104712122Y-95060662D01*
X104743715Y-95070108D01*
X104754748Y-95066933D01*
X104762289Y-95057566D01*
X104766338Y-95040261D01*
X104767687Y-95013114D01*
X104766734Y-94993031D01*
X104764512Y-94977869D01*
X104760067Y-94965804D01*
X104752049Y-94955564D01*
X104723235Y-94939529D01*
X104661081Y-94917541D01*
X104572732Y-94898332D01*
X104465730Y-94889759D01*
X104370830Y-94897037D01*
X104293001Y-94917303D01*
X104224246Y-94951837D01*
X104168217Y-94999064D01*
X104124474Y-95058946D01*
X104091775Y-95135040D01*
X104072883Y-95220584D01*
X104066057Y-95325232D01*
X103849352Y-95325232D01*
X103849352Y-94927464D01*
X103845780Y-94915478D01*
X103834191Y-94906984D01*
X103812044Y-94901745D01*
X103775609Y-94899919D01*
X103740127Y-94901745D01*
X103717424Y-94906984D01*
X103705915Y-94915478D01*
X103702819Y-94927464D01*
X103432375Y-94927464D01*
X103432375Y-94927384D01*
X103429279Y-94915398D01*
X103418166Y-94906984D01*
X103397289Y-94901745D01*
X103365776Y-94899919D01*
X103332437Y-94901745D01*
X103312036Y-94906984D01*
X103301796Y-94915398D01*
X103299177Y-94927464D01*
X103299177Y-95033038D01*
X103228616Y-94966316D01*
X103164233Y-94924050D01*
X103096424Y-94898142D01*
X103029209Y-94889759D01*
X102953240Y-94896884D01*
X102894662Y-94916351D01*
X102844894Y-94947992D01*
X102806313Y-94988506D01*
X102777622Y-95037283D01*
X102757892Y-95094795D01*
X102747263Y-95158830D01*
X102743286Y-95242281D01*
X102516904Y-95242281D01*
X102520867Y-95235454D01*
X102533653Y-95195856D01*
X102538251Y-95146629D01*
X102532370Y-95087624D01*
X102515548Y-95037245D01*
X102488155Y-94993066D01*
X102451172Y-94956358D01*
X102406188Y-94927865D01*
X102351710Y-94906587D01*
X102292233Y-94894117D01*
X102224704Y-94889759D01*
X102143420Y-94896427D01*
X102074201Y-94913255D01*
X102022208Y-94934528D01*
X101991171Y-94954532D01*
X101976962Y-94979298D01*
X101972517Y-95022639D01*
X101743261Y-95022639D01*
X101736285Y-95011050D01*
X101687081Y-94959456D01*
X101627536Y-94921272D01*
X101559383Y-94897925D01*
X101479256Y-94889759D01*
X101413531Y-94896903D01*
X101354473Y-94919050D01*
X101297161Y-94957310D01*
X101236833Y-95011526D01*
X101236833Y-94608519D01*
X101233261Y-94595977D01*
X101221672Y-94587008D01*
X101199525Y-94581689D01*
X101163090Y-94579863D01*
X101127608Y-94581689D01*
X101104905Y-94587008D01*
X101093395Y-94595898D01*
X101090300Y-94608281D01*
X93008281Y-94608281D01*
X93008281Y-92744337D01*
X93152725Y-92744337D01*
X93152725Y-93799918D01*
X93158137Y-93833282D01*
X93172252Y-93853181D01*
X93193096Y-93865201D01*
X93215831Y-93869136D01*
X93308148Y-93869136D01*
X93357840Y-93863818D01*
X93395148Y-93846910D01*
X93421819Y-93817699D01*
X93440473Y-93776025D01*
X93773468Y-92944769D01*
X93777913Y-92944769D01*
X94124243Y-93773326D01*
X94145517Y-93818572D01*
X94170839Y-93848260D01*
X94201479Y-93864215D01*
X94240613Y-93869136D01*
X94337376Y-93869136D01*
X94362698Y-93865088D01*
X94383098Y-93852705D01*
X94396910Y-93831431D01*
X94400768Y-93808570D01*
X94673942Y-93808570D01*
X94679719Y-93854738D01*
X94693469Y-93878503D01*
X94718039Y-93891560D01*
X94765387Y-93897078D01*
X94811931Y-93891669D01*
X94835955Y-93878900D01*
X94849417Y-93855680D01*
X94855085Y-93810316D01*
X94849309Y-93764149D01*
X94835558Y-93740384D01*
X94810988Y-93727327D01*
X94763640Y-93721809D01*
X94717075Y-93727194D01*
X94692993Y-93739907D01*
X94679586Y-93763184D01*
X94673942Y-93808570D01*
X94400768Y-93808570D01*
X94402228Y-93799918D01*
X94402228Y-92744337D01*
X94401955Y-92743384D01*
X94691723Y-92743384D01*
X94691723Y-93541936D01*
X94694819Y-93553446D01*
X94706329Y-93562257D01*
X94729031Y-93567576D01*
X94764514Y-93569401D01*
X94800949Y-93567576D01*
X94823095Y-93562257D01*
X94834685Y-93553446D01*
X94838257Y-93541936D01*
X94838257Y-93132897D01*
X95052342Y-93132897D01*
X95060073Y-93245866D01*
X95081156Y-93334995D01*
X95116325Y-93413500D01*
X95160218Y-93473432D01*
X95214921Y-93520486D01*
X95278333Y-93553446D01*
X95348320Y-93572901D01*
X95425343Y-93579562D01*
X95499483Y-93572338D01*
X95565606Y-93553367D01*
X95619345Y-93526299D01*
X95653558Y-93500104D01*
X95668163Y-93482958D01*
X95674831Y-93468193D01*
X95678403Y-93449063D01*
X95679276Y-93422312D01*
X95676835Y-93390259D01*
X95671259Y-93373653D01*
X95661975Y-93362995D01*
X95651732Y-93359841D01*
X95638568Y-93363059D01*
X95621092Y-93374844D01*
X95577116Y-93408103D01*
X95512739Y-93441284D01*
X95472936Y-93452362D01*
X95423517Y-93456366D01*
X95372426Y-93451021D01*
X95329412Y-93435785D01*
X95292757Y-93410943D01*
X95261426Y-93375558D01*
X95232019Y-93318764D01*
X95212398Y-93242415D01*
X95205067Y-93140993D01*
X95208964Y-93066668D01*
X95219672Y-93006287D01*
X95238377Y-92951917D01*
X95262775Y-92909604D01*
X95294659Y-92875481D01*
X95332470Y-92851737D01*
X95375875Y-92837696D01*
X95427090Y-92832765D01*
X95475745Y-92836980D01*
X95515915Y-92848800D01*
X95582037Y-92883964D01*
X95629109Y-92918732D01*
X95647776Y-92931297D01*
X95658876Y-92934370D01*
X95669513Y-92930798D01*
X95677054Y-92918891D01*
X95681499Y-92897618D01*
X95682848Y-92867136D01*
X95681975Y-92841020D01*
X95678879Y-92822446D01*
X95673482Y-92809110D01*
X95659273Y-92792123D01*
X95621568Y-92764340D01*
X95578980Y-92743384D01*
X95876692Y-92743384D01*
X95876692Y-93541936D01*
X95879311Y-93553843D01*
X95889948Y-93562734D01*
X95910348Y-93568052D01*
X95943291Y-93569401D01*
X95975677Y-93568052D01*
X95995601Y-93562734D01*
X96005841Y-93553843D01*
X96009016Y-93541857D01*
X96009016Y-93425646D01*
X96070694Y-93505105D01*
X96125307Y-93553446D01*
X96176347Y-93577816D01*
X96227467Y-93584642D01*
X96253583Y-93583293D01*
X96284223Y-93578371D01*
X96313117Y-93570433D01*
X96331374Y-93561543D01*
X96338439Y-93553129D01*
X96341535Y-93542889D01*
X96343281Y-93524711D01*
X96343757Y-93492325D01*
X96342884Y-93459462D01*
X96339312Y-93438585D01*
X96332644Y-93427075D01*
X96321611Y-93423106D01*
X96304227Y-93427075D01*
X96281127Y-93435013D01*
X96252313Y-93442633D01*
X96217704Y-93446205D01*
X96174125Y-93437156D01*
X96129275Y-93407468D01*
X96079981Y-93352459D01*
X96023225Y-93268635D01*
X96023225Y-93137659D01*
X96425280Y-93137659D01*
X96425917Y-93146947D01*
X96431813Y-93232913D01*
X96450601Y-93317532D01*
X96482788Y-93394899D01*
X96526964Y-93459303D01*
X96583886Y-93511902D01*
X96654367Y-93551779D01*
X96734858Y-93575993D01*
X96832890Y-93584642D01*
X96927576Y-93576878D01*
X97004746Y-93555272D01*
X97072354Y-93518996D01*
X97126830Y-93470019D01*
X97169016Y-93409043D01*
X97200097Y-93334043D01*
X97218147Y-93251016D01*
X97224546Y-93153615D01*
X97217894Y-93058371D01*
X97198748Y-92973663D01*
X97166242Y-92896357D01*
X97121909Y-92831971D01*
X97064934Y-92779361D01*
X96994030Y-92739098D01*
X96913273Y-92714499D01*
X96815983Y-92705759D01*
X96721363Y-92713501D01*
X96644207Y-92735050D01*
X96576581Y-92771384D01*
X96522042Y-92820382D01*
X96479965Y-92881372D01*
X96449252Y-92956358D01*
X96431571Y-93039463D01*
X96425280Y-93137659D01*
X96023225Y-93137659D01*
X96023225Y-92743384D01*
X96019653Y-92731398D01*
X96008064Y-92722984D01*
X95985917Y-92717745D01*
X95949482Y-92715919D01*
X95914000Y-92717745D01*
X95891297Y-92722984D01*
X95879788Y-92731398D01*
X95876692Y-92743384D01*
X95578980Y-92743384D01*
X95561557Y-92734811D01*
X95489243Y-92713855D01*
X95408435Y-92705759D01*
X95325526Y-92713135D01*
X95255710Y-92734018D01*
X95194368Y-92768999D01*
X95144262Y-92816730D01*
X95105409Y-92875981D01*
X95075838Y-92950246D01*
X95058561Y-93032875D01*
X95052342Y-93132897D01*
X94838257Y-93132897D01*
X94838257Y-92743384D01*
X94834685Y-92731398D01*
X94823095Y-92722984D01*
X94800949Y-92717745D01*
X94764514Y-92715919D01*
X94729031Y-92717745D01*
X94706329Y-92722984D01*
X94694819Y-92731398D01*
X94691723Y-92743384D01*
X94401955Y-92743384D01*
X94398656Y-92731874D01*
X94386273Y-92723460D01*
X94363571Y-92718142D01*
X94327612Y-92715919D01*
X94292527Y-92718142D01*
X94269427Y-92723460D01*
X94257441Y-92731874D01*
X94253948Y-92744337D01*
X94253948Y-93744035D01*
X94252123Y-93744035D01*
X93842766Y-92739892D01*
X93835145Y-92729255D01*
X93820936Y-92721714D01*
X93798790Y-92717269D01*
X93768149Y-92715919D01*
X93736160Y-92717745D01*
X93714013Y-92722587D01*
X93700201Y-92730128D01*
X93693533Y-92739892D01*
X93301957Y-93744035D01*
X93301084Y-93744035D01*
X93301084Y-92744337D01*
X93297512Y-92731874D01*
X93285049Y-92723460D01*
X93261950Y-92718142D01*
X93225594Y-92715919D01*
X93190033Y-92718142D01*
X93167410Y-92723460D01*
X93155820Y-92731874D01*
X93152725Y-92744337D01*
X93008281Y-92744337D01*
X93008281Y-92424281D01*
X97440139Y-92424281D01*
X97440139Y-92983903D01*
X97440139Y-93541857D01*
X97442759Y-93554716D01*
X97453395Y-93563131D01*
X97473796Y-93568052D01*
X97504039Y-93569401D01*
X97534679Y-93568052D01*
X97554683Y-93563289D01*
X97565796Y-93555034D01*
X97568892Y-93542413D01*
X97568892Y-93437156D01*
X97639063Y-93502009D01*
X97706932Y-93547731D01*
X97777103Y-93575275D01*
X97853068Y-93584642D01*
X97935676Y-93575716D01*
X98001348Y-93550827D01*
X98056931Y-93510880D01*
X98101207Y-93458430D01*
X98134200Y-93396059D01*
X98157645Y-93321977D01*
X98170884Y-93242817D01*
X98175426Y-93157187D01*
X98169469Y-93055338D01*
X98152724Y-92968741D01*
X98124048Y-92890053D01*
X98086125Y-92827050D01*
X98036921Y-92775456D01*
X97987032Y-92743464D01*
X98395226Y-92743464D01*
X98395226Y-93932084D01*
X98398322Y-93944546D01*
X98409832Y-93953437D01*
X98432534Y-93958755D01*
X98468017Y-93960581D01*
X98504452Y-93958755D01*
X98526598Y-93953437D01*
X98538188Y-93944546D01*
X98541760Y-93932163D01*
X98541760Y-93452873D01*
X98607030Y-93512632D01*
X98668687Y-93552097D01*
X98733691Y-93576708D01*
X98797519Y-93584642D01*
X98873450Y-93577376D01*
X98932066Y-93557495D01*
X98981868Y-93525447D01*
X99020415Y-93484942D01*
X99049062Y-93436319D01*
X99068756Y-93378575D01*
X99079452Y-93314373D01*
X99083442Y-93231247D01*
X99083442Y-93137659D01*
X99294351Y-93137659D01*
X99294988Y-93146947D01*
X99300885Y-93232913D01*
X99319673Y-93317532D01*
X99351860Y-93394899D01*
X99396036Y-93459303D01*
X99452958Y-93511902D01*
X99523439Y-93551779D01*
X99603929Y-93575993D01*
X99701962Y-93584642D01*
X99796647Y-93576878D01*
X99873818Y-93555272D01*
X99941426Y-93518996D01*
X99995902Y-93470019D01*
X100038088Y-93409043D01*
X100069169Y-93334043D01*
X100087219Y-93251016D01*
X100093618Y-93153615D01*
X100086966Y-93058371D01*
X100067820Y-92973663D01*
X100035313Y-92896357D01*
X99990981Y-92831971D01*
X99934006Y-92779361D01*
X99870649Y-92743384D01*
X100309211Y-92743384D01*
X100309211Y-93541936D01*
X100311830Y-93553843D01*
X100322467Y-93562734D01*
X100342868Y-93568052D01*
X100375810Y-93569401D01*
X100408196Y-93568052D01*
X100428121Y-93562734D01*
X100438360Y-93553843D01*
X100441536Y-93541857D01*
X100441536Y-93436283D01*
X100511502Y-93505076D01*
X100576004Y-93548922D01*
X100644295Y-93575942D01*
X100711503Y-93584642D01*
X100787435Y-93577376D01*
X100846051Y-93557495D01*
X100895852Y-93525447D01*
X100934399Y-93484942D01*
X100963047Y-93436319D01*
X100982741Y-93378575D01*
X100993448Y-93314484D01*
X100997426Y-93232200D01*
X100997426Y-93141232D01*
X101210956Y-93141232D01*
X101216815Y-93225214D01*
X101217924Y-93241106D01*
X101237627Y-93326423D01*
X101270775Y-93403518D01*
X101314466Y-93465971D01*
X101369742Y-93516594D01*
X101435677Y-93554002D01*
X101509680Y-93576739D01*
X101594594Y-93584642D01*
X101684387Y-93576613D01*
X101754860Y-93554558D01*
X101815771Y-93518804D01*
X101863688Y-93473512D01*
X101900377Y-93418741D01*
X101926318Y-93354046D01*
X101941214Y-93283901D01*
X101946322Y-93207513D01*
X101946322Y-93181000D01*
X101941470Y-93150076D01*
X101928938Y-93131865D01*
X101910367Y-93120890D01*
X101889487Y-93117259D01*
X101365506Y-93117259D01*
X101369009Y-93052114D01*
X101378842Y-92996683D01*
X101396909Y-92946261D01*
X101423215Y-92904682D01*
X101458556Y-92871034D01*
X101504023Y-92845704D01*
X101557057Y-92830677D01*
X101625710Y-92825145D01*
X101680930Y-92827627D01*
X101726919Y-92834511D01*
X101803757Y-92855626D01*
X101857021Y-92876662D01*
X101888613Y-92886108D01*
X101899647Y-92882933D01*
X101907188Y-92873566D01*
X101911236Y-92856261D01*
X101912586Y-92829114D01*
X101911633Y-92809031D01*
X101909411Y-92793869D01*
X101904965Y-92781804D01*
X101896948Y-92771564D01*
X101868134Y-92755529D01*
X101805980Y-92733541D01*
X101717631Y-92714332D01*
X101610628Y-92705759D01*
X101515729Y-92713037D01*
X101437900Y-92733303D01*
X101369145Y-92767837D01*
X101313116Y-92815064D01*
X101269373Y-92874946D01*
X101236674Y-92951040D01*
X101217782Y-93036584D01*
X101210956Y-93141232D01*
X100997426Y-93141232D01*
X100997426Y-92743543D01*
X100993854Y-92731478D01*
X100982344Y-92723063D01*
X100960118Y-92717745D01*
X100924636Y-92715919D01*
X100888201Y-92717745D01*
X100865975Y-92723063D01*
X100854465Y-92731478D01*
X100850893Y-92743543D01*
X100850893Y-93212752D01*
X100847900Y-93277982D01*
X100840256Y-93323168D01*
X100826832Y-93362857D01*
X100809139Y-93395244D01*
X100785693Y-93422021D01*
X100756273Y-93441601D01*
X100722099Y-93453460D01*
X100681260Y-93457636D01*
X100627678Y-93448341D01*
X100571161Y-93418423D01*
X100517509Y-93372856D01*
X100455744Y-93303561D01*
X100455744Y-92743543D01*
X100452172Y-92731478D01*
X100440583Y-92723063D01*
X100418436Y-92717745D01*
X100382001Y-92715919D01*
X100346519Y-92717745D01*
X100323817Y-92722984D01*
X100312307Y-92731398D01*
X100309211Y-92743384D01*
X99870649Y-92743384D01*
X99863101Y-92739098D01*
X99782345Y-92714499D01*
X99685054Y-92705759D01*
X99590435Y-92713501D01*
X99513278Y-92735050D01*
X99445653Y-92771384D01*
X99391114Y-92820382D01*
X99349037Y-92881372D01*
X99318324Y-92956358D01*
X99300643Y-93039463D01*
X99294351Y-93137659D01*
X99083442Y-93137659D01*
X99083442Y-92743543D01*
X99079870Y-92731478D01*
X99068360Y-92723063D01*
X99046133Y-92717745D01*
X99010651Y-92715919D01*
X98974216Y-92717745D01*
X98951990Y-92723063D01*
X98940480Y-92731478D01*
X98936908Y-92743543D01*
X98936908Y-93212752D01*
X98933915Y-93277982D01*
X98926271Y-93323168D01*
X98912847Y-93362857D01*
X98895155Y-93395244D01*
X98871708Y-93422021D01*
X98842288Y-93441601D01*
X98808115Y-93453460D01*
X98767275Y-93457636D01*
X98713693Y-93448341D01*
X98657177Y-93418423D01*
X98603525Y-93372856D01*
X98541760Y-93303561D01*
X98541760Y-92743543D01*
X98538188Y-92731478D01*
X98526598Y-92723063D01*
X98504452Y-92717745D01*
X98468017Y-92715919D01*
X98432534Y-92717745D01*
X98409832Y-92722984D01*
X98398322Y-92731478D01*
X98395226Y-92743464D01*
X97987032Y-92743464D01*
X97977376Y-92737272D01*
X97909223Y-92713925D01*
X97829096Y-92705759D01*
X97763370Y-92712903D01*
X97704312Y-92735050D01*
X97647001Y-92773310D01*
X97586673Y-92827526D01*
X97586673Y-92424519D01*
X97583101Y-92411977D01*
X97571511Y-92403008D01*
X97549364Y-92397689D01*
X97512930Y-92395863D01*
X97477447Y-92397689D01*
X97454745Y-92403008D01*
X97443235Y-92411898D01*
X97440139Y-92424281D01*
X93008281Y-92424281D01*
X93008281Y-92251419D01*
X104945867Y-92251419D01*
X104945867Y-96289025D01*
G37*
G36*
X131194285Y-77528821D02*
G01*
X126361747Y-77528821D01*
X126361747Y-76314508D01*
X126506191Y-76314508D01*
X126507540Y-76346894D01*
X126512383Y-76367295D01*
X126520797Y-76377932D01*
X126532862Y-76381027D01*
X126551040Y-76374677D01*
X126577711Y-76360706D01*
X126613670Y-76346736D01*
X126661615Y-76340385D01*
X126713132Y-76347926D01*
X126732490Y-76358519D01*
X126748694Y-76375868D01*
X126760571Y-76398718D01*
X126769967Y-76432147D01*
X126777111Y-76525656D01*
X126777111Y-77346751D01*
X126780604Y-77358261D01*
X126793066Y-77367072D01*
X126816563Y-77372391D01*
X126853474Y-77374217D01*
X126889829Y-77372391D01*
X126913405Y-77367072D01*
X126925788Y-77358261D01*
X126929836Y-77346751D01*
X126929836Y-76510733D01*
X126926591Y-76444053D01*
X126917374Y-76385711D01*
X126900131Y-76332272D01*
X126874747Y-76289027D01*
X126868872Y-76283074D01*
X127231873Y-76283074D01*
X127231873Y-77345799D01*
X127235445Y-77358261D01*
X127247908Y-77366676D01*
X127271880Y-77371994D01*
X127308236Y-77374217D01*
X127345068Y-77371994D01*
X127368643Y-77366676D01*
X127381106Y-77358261D01*
X127384678Y-77345799D01*
X127384678Y-76779986D01*
X127910801Y-76779986D01*
X127915174Y-76874876D01*
X127927694Y-76959497D01*
X127947633Y-77035030D01*
X127976313Y-77107555D01*
X128010872Y-77170464D01*
X128051143Y-77224825D01*
X128098624Y-77272733D01*
X128151573Y-77312135D01*
X128210536Y-77343497D01*
X128273569Y-77365918D01*
X128341806Y-77379660D01*
X128416127Y-77384377D01*
X128512890Y-77374931D01*
X128599890Y-77351197D01*
X128670934Y-77318096D01*
X128714036Y-77287217D01*
X128729595Y-77268881D01*
X128735389Y-77254275D01*
X128738882Y-77234271D01*
X128740232Y-77206727D01*
X128738485Y-77176563D01*
X128733167Y-77155686D01*
X128724673Y-77143224D01*
X128712766Y-77139255D01*
X128699738Y-77142699D01*
X128678078Y-77156639D01*
X128620846Y-77195138D01*
X128583455Y-77214597D01*
X128535593Y-77233557D01*
X128482598Y-77246333D01*
X128415254Y-77251020D01*
X128341552Y-77243169D01*
X128276262Y-77220301D01*
X128218600Y-77182774D01*
X128169180Y-77130047D01*
X128130586Y-77065622D01*
X128100358Y-76984704D01*
X128082420Y-76895448D01*
X128075989Y-76788559D01*
X128082212Y-76682680D01*
X128099485Y-76595112D01*
X128129005Y-76516250D01*
X128167036Y-76454612D01*
X128216126Y-76404955D01*
X128274912Y-76369279D01*
X128341836Y-76347863D01*
X128419699Y-76340385D01*
X128485545Y-76344960D01*
X128539085Y-76357611D01*
X128587878Y-76376580D01*
X128626164Y-76396268D01*
X128685222Y-76434846D01*
X128707733Y-76448681D01*
X128721577Y-76452151D01*
X128732294Y-76449452D01*
X128739358Y-76439212D01*
X128743327Y-76418177D01*
X128744677Y-76384361D01*
X128743804Y-76359357D01*
X128740708Y-76340544D01*
X128734913Y-76326256D01*
X128725307Y-76314508D01*
X128811355Y-76314508D01*
X128812704Y-76346894D01*
X128817547Y-76367295D01*
X128825961Y-76377932D01*
X128838026Y-76381027D01*
X128856204Y-76374677D01*
X128882875Y-76360706D01*
X128918834Y-76346736D01*
X128966779Y-76340385D01*
X129018296Y-76347926D01*
X129037654Y-76358519D01*
X129053858Y-76375868D01*
X129065735Y-76398718D01*
X129075131Y-76432147D01*
X129082275Y-76525656D01*
X129082275Y-77346751D01*
X129085768Y-77358261D01*
X129098230Y-77367072D01*
X129121727Y-77372391D01*
X129158638Y-77374217D01*
X129194993Y-77372391D01*
X129218569Y-77367072D01*
X129230952Y-77358261D01*
X129235000Y-77346751D01*
X129235000Y-76510733D01*
X129231755Y-76444053D01*
X129222538Y-76385711D01*
X129205295Y-76332272D01*
X129179911Y-76289027D01*
X129174036Y-76283074D01*
X129537037Y-76283074D01*
X129537037Y-77345799D01*
X129540609Y-77358261D01*
X129553072Y-77366676D01*
X129577044Y-77371994D01*
X129613400Y-77374217D01*
X129650232Y-77371994D01*
X129673807Y-77366676D01*
X129686270Y-77358261D01*
X129689842Y-77345799D01*
X129689842Y-76779986D01*
X130215965Y-76779986D01*
X130220338Y-76874876D01*
X130232858Y-76959497D01*
X130252797Y-77035030D01*
X130281477Y-77107555D01*
X130316036Y-77170464D01*
X130356307Y-77224825D01*
X130403788Y-77272733D01*
X130456737Y-77312135D01*
X130515700Y-77343497D01*
X130578733Y-77365918D01*
X130646970Y-77379660D01*
X130721291Y-77384377D01*
X130818054Y-77374931D01*
X130905054Y-77351197D01*
X130976098Y-77318096D01*
X131019200Y-77287217D01*
X131034759Y-77268881D01*
X131040553Y-77254275D01*
X131044046Y-77234271D01*
X131045396Y-77206727D01*
X131043649Y-77176563D01*
X131038331Y-77155686D01*
X131029837Y-77143224D01*
X131017930Y-77139255D01*
X131004902Y-77142699D01*
X130983242Y-77156639D01*
X130926010Y-77195138D01*
X130888619Y-77214597D01*
X130840757Y-77233557D01*
X130787762Y-77246333D01*
X130720418Y-77251020D01*
X130646716Y-77243169D01*
X130581426Y-77220301D01*
X130523764Y-77182774D01*
X130474344Y-77130047D01*
X130435750Y-77065622D01*
X130405522Y-76984704D01*
X130387584Y-76895448D01*
X130381153Y-76788559D01*
X130387376Y-76682680D01*
X130404649Y-76595112D01*
X130434169Y-76516250D01*
X130472200Y-76454612D01*
X130521290Y-76404955D01*
X130580076Y-76369279D01*
X130647000Y-76347863D01*
X130724863Y-76340385D01*
X130790709Y-76344960D01*
X130844249Y-76357611D01*
X130893042Y-76376580D01*
X130931328Y-76396268D01*
X130990386Y-76434846D01*
X131012897Y-76448681D01*
X131026741Y-76452151D01*
X131037458Y-76449452D01*
X131044522Y-76439212D01*
X131048491Y-76418177D01*
X131049841Y-76384361D01*
X131048968Y-76359357D01*
X131045872Y-76340544D01*
X131040077Y-76326256D01*
X131027615Y-76311015D01*
X130990386Y-76283550D01*
X130919739Y-76247591D01*
X130822976Y-76217904D01*
X130766926Y-76208910D01*
X130703510Y-76205759D01*
X130629687Y-76210105D01*
X130562648Y-76222691D01*
X130501491Y-76243067D01*
X130444148Y-76272050D01*
X130393127Y-76308675D01*
X130347814Y-76353324D01*
X130309622Y-76404383D01*
X130277015Y-76463991D01*
X130250177Y-76533276D01*
X130231721Y-76605498D01*
X130220059Y-76687313D01*
X130215965Y-76779986D01*
X129689842Y-76779986D01*
X129689842Y-76353086D01*
X130101898Y-76353086D01*
X130115630Y-76349038D01*
X130125394Y-76337528D01*
X130131109Y-76317604D01*
X130132935Y-76287519D01*
X130131109Y-76257752D01*
X130125394Y-76237431D01*
X130115630Y-76224968D01*
X130101898Y-76221000D01*
X129593872Y-76221000D01*
X129574284Y-76224335D01*
X129555215Y-76234732D01*
X129542114Y-76252323D01*
X129537037Y-76283074D01*
X129174036Y-76283074D01*
X129145333Y-76253990D01*
X129100453Y-76227429D01*
X129047662Y-76211608D01*
X128978368Y-76205759D01*
X128928995Y-76209569D01*
X128884146Y-76219571D01*
X128848663Y-76232906D01*
X128828660Y-76245369D01*
X128820722Y-76256006D01*
X128815403Y-76268865D01*
X128812228Y-76287440D01*
X128811355Y-76314508D01*
X128725307Y-76314508D01*
X128722451Y-76311015D01*
X128685222Y-76283550D01*
X128614575Y-76247591D01*
X128517812Y-76217904D01*
X128461762Y-76208910D01*
X128398346Y-76205759D01*
X128324523Y-76210105D01*
X128257484Y-76222691D01*
X128196327Y-76243067D01*
X128138984Y-76272050D01*
X128087963Y-76308675D01*
X128042650Y-76353324D01*
X128004458Y-76404383D01*
X127971851Y-76463991D01*
X127945013Y-76533276D01*
X127926557Y-76605498D01*
X127914895Y-76687313D01*
X127910801Y-76779986D01*
X127384678Y-76779986D01*
X127384678Y-76353086D01*
X127796734Y-76353086D01*
X127810466Y-76349038D01*
X127820230Y-76337528D01*
X127825945Y-76317604D01*
X127827771Y-76287519D01*
X127825945Y-76257752D01*
X127820230Y-76237431D01*
X127810466Y-76224968D01*
X127796734Y-76221000D01*
X127288709Y-76221000D01*
X127269120Y-76224335D01*
X127250051Y-76234732D01*
X127236950Y-76252323D01*
X127231873Y-76283074D01*
X126868872Y-76283074D01*
X126840169Y-76253990D01*
X126795289Y-76227429D01*
X126742498Y-76211608D01*
X126673204Y-76205759D01*
X126623831Y-76209569D01*
X126578982Y-76219571D01*
X126543499Y-76232906D01*
X126523496Y-76245369D01*
X126515558Y-76256006D01*
X126510239Y-76268865D01*
X126507064Y-76287440D01*
X126506191Y-76314508D01*
X126361747Y-76314508D01*
X126361747Y-76061315D01*
X131194285Y-76061315D01*
X131194285Y-77528821D01*
G37*
%LPC*%
D12*
%TO.C,M1*%
X95500000Y-79000000D03*
%TD*%
%TO.C,M4*%
X168500000Y-79000000D03*
%TD*%
%TO.C,M2*%
X95500000Y-99000000D03*
%TD*%
D13*
%TO.C,J4*%
X94000000Y-89000000D03*
X100000000Y-89000000D03*
%TD*%
D14*
%TO.C,J3*%
X167100000Y-91200000D03*
X167100000Y-86800000D03*
%TD*%
D12*
%TO.C,M3*%
X168500000Y-99000000D03*
%TD*%
%LPD*%
M02*
