%TF.GenerationSoftware,KiCad,Pcbnew,9.0.1*%
%TF.CreationDate,2025-05-09T23:00:38+01:00*%
%TF.ProjectId,aom-preamp,616f6d2d-7072-4656-916d-702e6b696361,rev?*%
%TF.SameCoordinates,Original*%
%TF.FileFunction,Legend,Top*%
%TF.FilePolarity,Positive*%
%FSLAX46Y46*%
G04 Gerber Fmt 4.6, Leading zero omitted, Abs format (unit mm)*
G04 Created by KiCad (PCBNEW 9.0.1) date 2025-05-09 23:00:38*
%MOMM*%
%LPD*%
G01*
G04 APERTURE LIST*
G04 Aperture macros list*
%AMRoundRect*
0 Rectangle with rounded corners*
0 $1 Rounding radius*
0 $2 $3 $4 $5 $6 $7 $8 $9 X,Y pos of 4 corners*
0 Add a 4 corners polygon primitive as box body*
4,1,4,$2,$3,$4,$5,$6,$7,$8,$9,$2,$3,0*
0 Add four circle primitives for the rounded corners*
1,1,$1+$1,$2,$3*
1,1,$1+$1,$4,$5*
1,1,$1+$1,$6,$7*
1,1,$1+$1,$8,$9*
0 Add four rect primitives between the rounded corners*
20,1,$1+$1,$2,$3,$4,$5,0*
20,1,$1+$1,$4,$5,$6,$7,0*
20,1,$1+$1,$6,$7,$8,$9,0*
20,1,$1+$1,$8,$9,$2,$3,0*%
%AMFreePoly0*
4,1,23,0.500000,-0.750000,0.000000,-0.750000,0.000000,-0.745722,-0.065263,-0.745722,-0.191342,-0.711940,-0.304381,-0.646677,-0.396677,-0.554381,-0.461940,-0.441342,-0.495722,-0.315263,-0.495722,-0.250000,-0.500000,-0.250000,-0.500000,0.250000,-0.495722,0.250000,-0.495722,0.315263,-0.461940,0.441342,-0.396677,0.554381,-0.304381,0.646677,-0.191342,0.711940,-0.065263,0.745722,0.000000,0.745722,
0.000000,0.750000,0.500000,0.750000,0.500000,-0.750000,0.500000,-0.750000,$1*%
%AMFreePoly1*
4,1,23,0.000000,0.745722,0.065263,0.745722,0.191342,0.711940,0.304381,0.646677,0.396677,0.554381,0.461940,0.441342,0.495722,0.315263,0.495722,0.250000,0.500000,0.250000,0.500000,-0.250000,0.495722,-0.250000,0.495722,-0.315263,0.461940,-0.441342,0.396677,-0.554381,0.304381,-0.646677,0.191342,-0.711940,0.065263,-0.745722,0.000000,-0.745722,0.000000,-0.750000,-0.500000,-0.750000,
-0.500000,0.750000,0.000000,0.750000,0.000000,0.745722,0.000000,0.745722,$1*%
G04 Aperture macros list end*
%ADD10C,0.100000*%
%ADD11C,0.150000*%
%ADD12C,0.120000*%
%ADD13C,0.203200*%
%ADD14C,0.127000*%
%ADD15C,0.200000*%
%ADD16RoundRect,0.250000X1.250000X0.550000X-1.250000X0.550000X-1.250000X-0.550000X1.250000X-0.550000X0*%
%ADD17RoundRect,0.150000X0.150000X-0.587500X0.150000X0.587500X-0.150000X0.587500X-0.150000X-0.587500X0*%
%ADD18C,2.700000*%
%ADD19RoundRect,0.250000X0.450000X-0.262500X0.450000X0.262500X-0.450000X0.262500X-0.450000X-0.262500X0*%
%ADD20RoundRect,0.250000X0.262500X0.450000X-0.262500X0.450000X-0.262500X-0.450000X0.262500X-0.450000X0*%
%ADD21RoundRect,0.102000X-0.629325X-0.431335X-0.431335X-0.629325X0.629325X0.431335X0.431335X0.629325X0*%
%ADD22RoundRect,0.102000X-0.629325X0.431335X0.431335X-0.629325X0.629325X-0.431335X-0.431335X0.629325X0*%
%ADD23RoundRect,0.250000X0.475000X-0.250000X0.475000X0.250000X-0.475000X0.250000X-0.475000X-0.250000X0*%
%ADD24RoundRect,0.250000X-0.262500X-0.450000X0.262500X-0.450000X0.262500X0.450000X-0.262500X0.450000X0*%
%ADD25RoundRect,0.250000X-0.550000X-0.550000X0.550000X-0.550000X0.550000X0.550000X-0.550000X0.550000X0*%
%ADD26RoundRect,0.218750X-0.256250X0.218750X-0.256250X-0.218750X0.256250X-0.218750X0.256250X0.218750X0*%
%ADD27RoundRect,0.150000X0.587500X0.150000X-0.587500X0.150000X-0.587500X-0.150000X0.587500X-0.150000X0*%
%ADD28RoundRect,0.250000X-0.450000X0.262500X-0.450000X-0.262500X0.450000X-0.262500X0.450000X0.262500X0*%
%ADD29FreePoly0,270.000000*%
%ADD30FreePoly1,270.000000*%
%ADD31RoundRect,0.250000X-1.250000X-0.550000X1.250000X-0.550000X1.250000X0.550000X-1.250000X0.550000X0*%
%ADD32C,1.200000*%
%ADD33RoundRect,0.102000X-0.750000X-1.750000X0.750000X-1.750000X0.750000X1.750000X-0.750000X1.750000X0*%
%ADD34RoundRect,0.250000X-1.500000X-0.550000X1.500000X-0.550000X1.500000X0.550000X-1.500000X0.550000X0*%
%ADD35RoundRect,0.150000X-0.587500X-0.150000X0.587500X-0.150000X0.587500X0.150000X-0.587500X0.150000X0*%
%ADD36C,0.900000*%
%ADD37R,2.500000X0.500000*%
%ADD38R,2.500000X2.000000*%
%ADD39RoundRect,0.250000X-0.475000X0.250000X-0.475000X-0.250000X0.475000X-0.250000X0.475000X0.250000X0*%
%ADD40RoundRect,0.250000X0.250000X0.475000X-0.250000X0.475000X-0.250000X-0.475000X0.250000X-0.475000X0*%
%ADD41RoundRect,0.218750X0.256250X-0.218750X0.256250X0.218750X-0.256250X0.218750X-0.256250X-0.218750X0*%
%ADD42RoundRect,0.218750X-0.218750X-0.256250X0.218750X-0.256250X0.218750X0.256250X-0.218750X0.256250X0*%
%ADD43RoundRect,0.250000X-0.250000X-2.500000X0.250000X-2.500000X0.250000X2.500000X-0.250000X2.500000X0*%
%ADD44RoundRect,0.250000X-0.550000X-1.250000X0.550000X-1.250000X0.550000X1.250000X-0.550000X1.250000X0*%
G04 APERTURE END LIST*
D10*
G36*
X147168895Y-83468871D02*
G01*
X147192627Y-83527838D01*
X147207545Y-83590957D01*
X147212551Y-83656670D01*
X147208113Y-83712546D01*
X147196120Y-83755259D01*
X147175968Y-83791814D01*
X147149525Y-83820032D01*
X147116671Y-83841138D01*
X147075940Y-83855990D01*
X147031154Y-83864216D01*
X146980051Y-83867103D01*
X146933604Y-83863993D01*
X146888685Y-83854720D01*
X146846387Y-83838704D01*
X146809227Y-83816063D01*
X146777872Y-83786387D01*
X146753344Y-83748988D01*
X146737995Y-83705329D01*
X146732468Y-83650399D01*
X146738022Y-83596786D01*
X146753821Y-83551810D01*
X146781047Y-83513265D01*
X146823039Y-83479893D01*
X146875531Y-83455163D01*
X146948537Y-83435520D01*
X147030631Y-83424576D01*
X147139761Y-83420438D01*
X147168895Y-83468871D01*
G37*
G36*
X147938684Y-85082290D02*
G01*
X146466098Y-85082290D01*
X146466098Y-84547063D01*
X146849314Y-84547063D01*
X146851536Y-84577783D01*
X146857807Y-84598183D01*
X146867571Y-84609296D01*
X146880509Y-84612789D01*
X147204931Y-84612789D01*
X147204931Y-84904983D01*
X147208503Y-84917842D01*
X147220092Y-84928082D01*
X147240017Y-84935226D01*
X147267958Y-84937846D01*
X147296852Y-84935226D01*
X147316855Y-84928082D01*
X147328365Y-84917842D01*
X147331937Y-84904110D01*
X147331937Y-84612789D01*
X147654136Y-84612789D01*
X147666123Y-84609296D01*
X147674537Y-84598183D01*
X147680252Y-84577783D01*
X147682475Y-84547063D01*
X147680252Y-84516026D01*
X147674537Y-84496023D01*
X147666123Y-84484910D01*
X147654136Y-84481338D01*
X147331937Y-84481338D01*
X147331937Y-84190096D01*
X147328365Y-84176761D01*
X147316855Y-84166124D01*
X147296852Y-84159059D01*
X147267958Y-84156360D01*
X147240017Y-84158583D01*
X147220092Y-84165727D01*
X147208503Y-84176364D01*
X147204931Y-84189223D01*
X147204931Y-84481338D01*
X146880509Y-84481338D01*
X146867571Y-84484910D01*
X146857807Y-84496023D01*
X146851536Y-84516026D01*
X146849314Y-84547063D01*
X146466098Y-84547063D01*
X146466098Y-83636190D01*
X146610542Y-83636190D01*
X146611753Y-83650399D01*
X146618799Y-83733096D01*
X146641579Y-83810268D01*
X146678555Y-83877489D01*
X146725006Y-83930130D01*
X146781297Y-83970883D01*
X146846138Y-83999428D01*
X146916299Y-84016023D01*
X146991243Y-84021654D01*
X147063082Y-84017185D01*
X147126981Y-84004350D01*
X147185316Y-83981200D01*
X147234301Y-83947514D01*
X147274082Y-83902579D01*
X147305742Y-83842734D01*
X147324850Y-83773001D01*
X147331937Y-83681516D01*
X147326329Y-83599117D01*
X147310664Y-83530537D01*
X147286999Y-83467721D01*
X147261766Y-83417739D01*
X147342219Y-83424036D01*
X147417587Y-83439092D01*
X147488096Y-83463904D01*
X147547927Y-83497674D01*
X147598308Y-83542242D01*
X147637626Y-83598485D01*
X147662251Y-83664364D01*
X147671044Y-83746289D01*
X147664456Y-83828049D01*
X147649771Y-83891552D01*
X147635086Y-83936401D01*
X147628418Y-83963866D01*
X147630640Y-83975932D01*
X147639134Y-83983473D01*
X147656915Y-83987442D01*
X147687872Y-83988791D01*
X147724704Y-83984822D01*
X147746454Y-83971884D01*
X147762409Y-83943466D01*
X147777412Y-83895124D01*
X147789319Y-83830272D01*
X147794240Y-83756132D01*
X147787309Y-83660278D01*
X147768045Y-83581657D01*
X147736316Y-83510839D01*
X147695572Y-83451952D01*
X147645478Y-83401997D01*
X147587617Y-83361380D01*
X147523891Y-83329203D01*
X147455213Y-83304148D01*
X147383488Y-83285987D01*
X147308124Y-83273905D01*
X147157066Y-83265014D01*
X147006484Y-83272555D01*
X146936422Y-83282733D01*
X146873603Y-83297401D01*
X146814609Y-83317847D01*
X146763822Y-83343123D01*
X146718694Y-83374874D01*
X146681189Y-83412421D01*
X146651278Y-83456416D01*
X146628799Y-83508787D01*
X146615352Y-83566691D01*
X146610542Y-83636190D01*
X146466098Y-83636190D01*
X146466098Y-82241661D01*
X146625782Y-82241661D01*
X146627132Y-82284367D01*
X146632053Y-82309213D01*
X146641738Y-82321675D01*
X146657693Y-82327867D01*
X147621750Y-82648399D01*
X147621750Y-82649351D01*
X146655946Y-82978774D01*
X146641341Y-82986394D01*
X146632053Y-82998381D01*
X146627132Y-83021004D01*
X146625782Y-83060455D01*
X146627608Y-83108479D01*
X146635546Y-83134198D01*
X146653724Y-83141739D01*
X146685237Y-83134198D01*
X147751296Y-82758577D01*
X147763282Y-82752782D01*
X147771697Y-82744368D01*
X147777412Y-82731429D01*
X147781381Y-82713251D01*
X147783603Y-82688009D01*
X147784080Y-82653717D01*
X147782730Y-82610694D01*
X147777888Y-82582276D01*
X147768125Y-82564972D01*
X147752169Y-82555208D01*
X146686110Y-82180460D01*
X146654597Y-82171967D01*
X146636419Y-82176412D01*
X146628005Y-82198241D01*
X146625782Y-82241661D01*
X146466098Y-82241661D01*
X146466098Y-82027523D01*
X147938684Y-82027523D01*
X147938684Y-85082290D01*
G37*
G36*
X162347233Y-76745595D02*
G01*
X162402305Y-76757462D01*
X162448553Y-76776047D01*
X162509432Y-76817619D01*
X162556429Y-76872492D01*
X162590518Y-76938447D01*
X162614138Y-77018232D01*
X162627030Y-77104156D01*
X162631522Y-77200010D01*
X162626980Y-77291812D01*
X162613741Y-77376866D01*
X162589542Y-77456436D01*
X162554207Y-77523955D01*
X162505972Y-77580776D01*
X162444108Y-77624846D01*
X162397127Y-77644888D01*
X162341453Y-77657621D01*
X162275348Y-77662154D01*
X162208505Y-77657939D01*
X162153041Y-77646200D01*
X162107065Y-77627941D01*
X162046671Y-77586712D01*
X162000062Y-77531972D01*
X161966483Y-77465808D01*
X161943227Y-77384883D01*
X161930773Y-77297381D01*
X161926399Y-77198184D01*
X161931025Y-77107985D01*
X161944576Y-77023550D01*
X161969213Y-76944562D01*
X162004904Y-76878287D01*
X162053278Y-76822436D01*
X162114606Y-76778746D01*
X162161076Y-76758656D01*
X162216168Y-76745899D01*
X162281619Y-76741358D01*
X162347233Y-76745595D01*
G37*
G36*
X163407927Y-76762790D02*
G01*
X163448167Y-76773076D01*
X163487782Y-76792081D01*
X163522594Y-76820311D01*
X163552635Y-76862094D01*
X163571832Y-76912797D01*
X163578830Y-76978939D01*
X163574748Y-77028985D01*
X163562875Y-77074194D01*
X163542981Y-77115172D01*
X163515803Y-77149525D01*
X163481574Y-77177205D01*
X163438964Y-77198660D01*
X163389959Y-77211526D01*
X163324023Y-77216362D01*
X163186380Y-77216362D01*
X163186380Y-76756599D01*
X163327516Y-76756599D01*
X163407927Y-76762790D01*
G37*
G36*
X160192307Y-76762020D02*
G01*
X160256289Y-76773405D01*
X160307704Y-76790732D01*
X160377203Y-76830355D01*
X160432487Y-76882018D01*
X160474843Y-76945213D01*
X160504881Y-77020772D01*
X160522049Y-77103077D01*
X160527980Y-77194136D01*
X160521193Y-77306863D01*
X160502658Y-77396711D01*
X160470247Y-77476492D01*
X160426693Y-77539037D01*
X160370333Y-77588139D01*
X160300639Y-77623258D01*
X160220313Y-77643278D01*
X160115051Y-77650723D01*
X159957881Y-77650723D01*
X159957881Y-76757869D01*
X160113225Y-76757869D01*
X160192307Y-76762020D01*
G37*
G36*
X163884016Y-78248580D02*
G01*
X158008281Y-78248580D01*
X158008281Y-78047062D01*
X160765085Y-78047062D01*
X160767453Y-78075386D01*
X160773023Y-78090959D01*
X160782842Y-78100862D01*
X160796122Y-78104136D01*
X161651351Y-78104136D01*
X161664364Y-78100664D01*
X161673497Y-78090086D01*
X161678523Y-78073812D01*
X161680642Y-78045236D01*
X161678428Y-78017533D01*
X161673101Y-78001340D01*
X161663718Y-77990691D01*
X161651351Y-77987290D01*
X160796122Y-77987290D01*
X160782993Y-77990901D01*
X160773023Y-78002213D01*
X160767383Y-78019202D01*
X160765085Y-78047062D01*
X158008281Y-78047062D01*
X158008281Y-76654200D01*
X158152725Y-76654200D01*
X158152725Y-77716925D01*
X158157802Y-77747676D01*
X158170902Y-77765267D01*
X158189972Y-77775664D01*
X158209560Y-77779000D01*
X158717585Y-77779000D01*
X158731318Y-77775031D01*
X158741081Y-77762568D01*
X158746796Y-77742247D01*
X158748622Y-77712480D01*
X158746796Y-77682395D01*
X158741081Y-77662471D01*
X158731318Y-77650961D01*
X158717585Y-77646913D01*
X158305529Y-77646913D01*
X158305529Y-76692937D01*
X158917302Y-76692937D01*
X158917302Y-77716925D01*
X158922373Y-77747621D01*
X158935480Y-77765267D01*
X158954549Y-77775664D01*
X158974138Y-77779000D01*
X159525662Y-77779000D01*
X159538522Y-77775427D01*
X159548762Y-77763918D01*
X159554953Y-77743914D01*
X159556700Y-77715973D01*
X159554953Y-77686206D01*
X159548762Y-77666678D01*
X159538522Y-77655565D01*
X159525662Y-77651993D01*
X159070107Y-77651993D01*
X159070107Y-77240493D01*
X159455491Y-77240493D01*
X159468351Y-77237397D01*
X159478114Y-77227237D01*
X159483909Y-77208583D01*
X159485655Y-77181117D01*
X159483909Y-77151906D01*
X159478114Y-77132379D01*
X159468351Y-77121266D01*
X159455491Y-77117297D01*
X159070107Y-77117297D01*
X159070107Y-76757869D01*
X159519392Y-76757869D01*
X159532251Y-76754297D01*
X159541618Y-76743184D01*
X159547412Y-76723657D01*
X159549635Y-76695715D01*
X159549428Y-76692937D01*
X159805076Y-76692937D01*
X159805076Y-77650723D01*
X159805076Y-77716925D01*
X159810147Y-77747621D01*
X159823254Y-77765267D01*
X159842323Y-77775664D01*
X159861912Y-77779000D01*
X160105287Y-77779000D01*
X160203270Y-77774564D01*
X160287304Y-77762096D01*
X160359221Y-77742644D01*
X160427583Y-77713761D01*
X160487213Y-77677246D01*
X160539093Y-77633022D01*
X160583248Y-77581089D01*
X160620419Y-77519984D01*
X160650541Y-77448466D01*
X160671080Y-77373278D01*
X160684121Y-77287017D01*
X160687769Y-77208583D01*
X161764783Y-77208583D01*
X161772775Y-77346288D01*
X161794947Y-77460134D01*
X161819352Y-77530945D01*
X161850052Y-77591535D01*
X161886789Y-77643182D01*
X161931230Y-77688127D01*
X161983036Y-77725511D01*
X162043086Y-77755583D01*
X162107300Y-77776381D01*
X162181537Y-77789576D01*
X162267411Y-77794240D01*
X162354212Y-77789207D01*
X162430376Y-77774855D01*
X162497371Y-77752011D01*
X162559974Y-77719456D01*
X162614308Y-77679283D01*
X162661209Y-77631196D01*
X162700420Y-77576263D01*
X162733206Y-77513089D01*
X162759401Y-77440607D01*
X162783671Y-77324567D01*
X162792264Y-77189055D01*
X162784166Y-77053926D01*
X162761624Y-76941552D01*
X162736898Y-76871707D01*
X162705737Y-76811703D01*
X162668353Y-76760330D01*
X162623412Y-76715603D01*
X162596650Y-76696509D01*
X163033576Y-76696509D01*
X163033576Y-77216362D01*
X163033576Y-77755662D01*
X163037148Y-77768125D01*
X163049610Y-77776539D01*
X163073107Y-77781857D01*
X163109938Y-77784080D01*
X163146770Y-77781857D01*
X163169870Y-77776539D01*
X163182332Y-77768125D01*
X163186380Y-77755662D01*
X163186380Y-77342098D01*
X163316879Y-77342098D01*
X163419252Y-77334972D01*
X163500245Y-77315506D01*
X163572059Y-77282801D01*
X163629870Y-77240175D01*
X163676436Y-77186551D01*
X163711154Y-77122218D01*
X163732219Y-77050137D01*
X163739572Y-76966953D01*
X163734877Y-76904045D01*
X163721394Y-76848599D01*
X163699096Y-76797770D01*
X163669401Y-76754138D01*
X163632265Y-76716779D01*
X163587244Y-76685396D01*
X163538390Y-76661529D01*
X163492227Y-76647294D01*
X163411420Y-76633959D01*
X163339979Y-76630863D01*
X163093983Y-76630863D01*
X163072095Y-76634597D01*
X163052230Y-76645945D01*
X163038746Y-76664803D01*
X163033576Y-76696509D01*
X162596650Y-76696509D01*
X162571429Y-76678515D01*
X162511580Y-76648802D01*
X162447709Y-76628168D01*
X162374507Y-76615132D01*
X162290510Y-76610542D01*
X162203654Y-76615576D01*
X162127465Y-76629929D01*
X162060470Y-76652771D01*
X161997789Y-76685251D01*
X161943292Y-76725169D01*
X161896155Y-76772792D01*
X161856714Y-76827142D01*
X161823800Y-76889731D01*
X161797567Y-76961635D01*
X161773313Y-77076409D01*
X161765454Y-77198184D01*
X161764783Y-77208583D01*
X160687769Y-77208583D01*
X160688722Y-77188103D01*
X160684484Y-77102287D01*
X160672294Y-77025126D01*
X160652764Y-76955602D01*
X160624560Y-76889441D01*
X160589334Y-76831306D01*
X160547031Y-76780333D01*
X160497570Y-76736407D01*
X160440311Y-76699465D01*
X160374303Y-76669441D01*
X160304601Y-76648909D01*
X160221304Y-76635629D01*
X160122116Y-76630863D01*
X159861912Y-76630863D01*
X159842329Y-76634216D01*
X159823254Y-76644675D01*
X159810150Y-76662256D01*
X159805076Y-76692937D01*
X159549428Y-76692937D01*
X159547412Y-76665948D01*
X159541618Y-76646024D01*
X159532251Y-76634435D01*
X159519392Y-76630863D01*
X158974138Y-76630863D01*
X158954555Y-76634216D01*
X158935480Y-76644675D01*
X158922376Y-76662256D01*
X158917302Y-76692937D01*
X158305529Y-76692937D01*
X158305529Y-76654200D01*
X158301957Y-76641738D01*
X158289494Y-76633323D01*
X158265919Y-76628005D01*
X158229087Y-76625782D01*
X158192732Y-76628005D01*
X158168759Y-76633323D01*
X158156297Y-76641738D01*
X158152725Y-76654200D01*
X158008281Y-76654200D01*
X158008281Y-76466098D01*
X163884016Y-76466098D01*
X163884016Y-78248580D01*
G37*
G36*
X159242130Y-84783818D02*
G01*
X159237979Y-84862900D01*
X159226594Y-84926882D01*
X159209267Y-84978297D01*
X159169644Y-85047796D01*
X159117981Y-85103080D01*
X159054786Y-85145436D01*
X158979227Y-85175474D01*
X158896922Y-85192642D01*
X158805863Y-85198573D01*
X158693136Y-85191786D01*
X158603288Y-85173251D01*
X158523507Y-85140840D01*
X158460962Y-85097286D01*
X158411860Y-85040926D01*
X158376741Y-84971232D01*
X158356721Y-84890906D01*
X158349276Y-84785644D01*
X158349276Y-84628474D01*
X159242130Y-84628474D01*
X159242130Y-84783818D01*
G37*
G36*
X159528821Y-85503760D02*
G01*
X158061315Y-85503760D01*
X158061315Y-84532505D01*
X158221000Y-84532505D01*
X158221000Y-84775881D01*
X158221442Y-84785644D01*
X158225435Y-84873863D01*
X158237903Y-84957898D01*
X158257355Y-85029814D01*
X158286238Y-85098176D01*
X158322753Y-85157806D01*
X158366977Y-85209686D01*
X158418910Y-85253841D01*
X158480015Y-85291012D01*
X158551533Y-85321134D01*
X158626721Y-85341673D01*
X158712982Y-85354714D01*
X158811896Y-85359316D01*
X158897712Y-85355077D01*
X158974873Y-85342887D01*
X159044397Y-85323357D01*
X159110558Y-85295153D01*
X159168693Y-85259928D01*
X159219666Y-85217624D01*
X159263592Y-85168163D01*
X159300534Y-85110905D01*
X159330558Y-85044896D01*
X159351090Y-84975194D01*
X159364370Y-84891897D01*
X159369136Y-84792709D01*
X159369136Y-84532505D01*
X159365783Y-84512922D01*
X159355324Y-84493847D01*
X159337743Y-84480743D01*
X159307062Y-84475669D01*
X158283074Y-84475669D01*
X158252378Y-84480740D01*
X158234732Y-84493847D01*
X158224335Y-84512916D01*
X158221000Y-84532505D01*
X158061315Y-84532505D01*
X158061315Y-83372779D01*
X158215919Y-83372779D01*
X158218142Y-83407864D01*
X158223460Y-83430090D01*
X158232271Y-83442076D01*
X158244337Y-83445648D01*
X158937156Y-83445648D01*
X159069322Y-83444696D01*
X159199742Y-83442076D01*
X159199742Y-83443823D01*
X159091945Y-83497562D01*
X158985974Y-83554874D01*
X158333003Y-83917159D01*
X158275453Y-83951372D01*
X158239257Y-83982409D01*
X158221000Y-84015272D01*
X158215919Y-84055755D01*
X158215919Y-84104573D01*
X158219491Y-84127593D01*
X158231081Y-84148469D01*
X158251560Y-84163631D01*
X158281883Y-84169426D01*
X159345719Y-84169426D01*
X159357229Y-84165853D01*
X159366596Y-84154264D01*
X159372391Y-84132117D01*
X159374217Y-84098381D01*
X159372391Y-84062343D01*
X159366596Y-84040197D01*
X159357309Y-84028210D01*
X159345719Y-84024638D01*
X158721404Y-84024638D01*
X158575109Y-84025035D01*
X158428814Y-84027337D01*
X158428814Y-84026385D01*
X158511765Y-83983361D01*
X158595589Y-83939385D01*
X158682032Y-83893187D01*
X158772127Y-83843496D01*
X159276025Y-83564637D01*
X159321668Y-83536617D01*
X159350006Y-83510025D01*
X159364691Y-83478908D01*
X159369136Y-83435885D01*
X159369136Y-83363015D01*
X159365434Y-83341042D01*
X159354054Y-83320389D01*
X159335104Y-83306235D01*
X159303490Y-83300861D01*
X158244337Y-83300861D01*
X158232271Y-83304433D01*
X158223460Y-83315943D01*
X158218142Y-83337693D01*
X158215919Y-83372779D01*
X158061315Y-83372779D01*
X158061315Y-82644715D01*
X158205759Y-82644715D01*
X158211077Y-82732588D01*
X158227032Y-82820539D01*
X158252830Y-82904919D01*
X158280851Y-82971518D01*
X158295581Y-82993805D01*
X158310618Y-83005254D01*
X158350625Y-83013271D01*
X158788718Y-83013271D01*
X158817135Y-83008826D01*
X158836662Y-82996364D01*
X158847379Y-82978662D01*
X158850951Y-82959135D01*
X158850951Y-82594071D01*
X158847379Y-82580815D01*
X158836186Y-82571448D01*
X158816580Y-82565654D01*
X158787606Y-82563907D01*
X158757789Y-82566126D01*
X158740376Y-82571448D01*
X158728883Y-82581059D01*
X158725214Y-82594071D01*
X158725214Y-82860546D01*
X158390632Y-82860546D01*
X158368172Y-82811860D01*
X158351975Y-82758862D01*
X158342291Y-82704238D01*
X158339115Y-82650907D01*
X158346827Y-82563885D01*
X158369200Y-82486195D01*
X158406444Y-82416272D01*
X158457707Y-82356967D01*
X158521661Y-82309367D01*
X158601145Y-82272190D01*
X158689946Y-82249590D01*
X158795862Y-82241550D01*
X158891741Y-82248714D01*
X158978195Y-82269491D01*
X159057429Y-82304086D01*
X159123379Y-82349902D01*
X159177674Y-82407828D01*
X159219031Y-82477781D01*
X159244637Y-82556727D01*
X159253561Y-82648287D01*
X159249082Y-82725289D01*
X159236891Y-82786327D01*
X159200218Y-82886265D01*
X159163465Y-82952864D01*
X159149981Y-82976508D01*
X159146875Y-82988426D01*
X159150447Y-82999936D01*
X159162434Y-83008826D01*
X159183866Y-83014145D01*
X159213792Y-83015970D01*
X159257450Y-83011525D01*
X159283963Y-82995491D01*
X159313174Y-82953340D01*
X159346355Y-82877851D01*
X159373026Y-82775293D01*
X159381459Y-82716441D01*
X159384377Y-82651859D01*
X159379397Y-82567463D01*
X159364912Y-82490063D01*
X159341354Y-82418723D01*
X159308479Y-82351309D01*
X159268219Y-82291460D01*
X159220380Y-82238454D01*
X159165534Y-82192740D01*
X159102911Y-82153960D01*
X159031617Y-82122084D01*
X158956734Y-82099570D01*
X158874672Y-82085626D01*
X158784431Y-82080807D01*
X158697648Y-82085271D01*
X158618794Y-82098179D01*
X158546929Y-82118989D01*
X158478512Y-82148686D01*
X158417923Y-82185519D01*
X158364358Y-82229563D01*
X158317853Y-82280899D01*
X158278767Y-82339673D01*
X158246956Y-82406737D01*
X158224561Y-82477717D01*
X158210609Y-82556655D01*
X158205759Y-82644715D01*
X158061315Y-82644715D01*
X158061315Y-81936363D01*
X159528821Y-81936363D01*
X159528821Y-85503760D01*
G37*
D11*
X115133333Y-102059580D02*
X115085714Y-102107200D01*
X115085714Y-102107200D02*
X114942857Y-102154819D01*
X114942857Y-102154819D02*
X114847619Y-102154819D01*
X114847619Y-102154819D02*
X114704762Y-102107200D01*
X114704762Y-102107200D02*
X114609524Y-102011961D01*
X114609524Y-102011961D02*
X114561905Y-101916723D01*
X114561905Y-101916723D02*
X114514286Y-101726247D01*
X114514286Y-101726247D02*
X114514286Y-101583390D01*
X114514286Y-101583390D02*
X114561905Y-101392914D01*
X114561905Y-101392914D02*
X114609524Y-101297676D01*
X114609524Y-101297676D02*
X114704762Y-101202438D01*
X114704762Y-101202438D02*
X114847619Y-101154819D01*
X114847619Y-101154819D02*
X114942857Y-101154819D01*
X114942857Y-101154819D02*
X115085714Y-101202438D01*
X115085714Y-101202438D02*
X115133333Y-101250057D01*
X115466667Y-101154819D02*
X116085714Y-101154819D01*
X116085714Y-101154819D02*
X115752381Y-101535771D01*
X115752381Y-101535771D02*
X115895238Y-101535771D01*
X115895238Y-101535771D02*
X115990476Y-101583390D01*
X115990476Y-101583390D02*
X116038095Y-101631009D01*
X116038095Y-101631009D02*
X116085714Y-101726247D01*
X116085714Y-101726247D02*
X116085714Y-101964342D01*
X116085714Y-101964342D02*
X116038095Y-102059580D01*
X116038095Y-102059580D02*
X115990476Y-102107200D01*
X115990476Y-102107200D02*
X115895238Y-102154819D01*
X115895238Y-102154819D02*
X115609524Y-102154819D01*
X115609524Y-102154819D02*
X115514286Y-102107200D01*
X115514286Y-102107200D02*
X115466667Y-102059580D01*
X113475057Y-83807738D02*
X113427438Y-83902976D01*
X113427438Y-83902976D02*
X113332200Y-83998214D01*
X113332200Y-83998214D02*
X113189342Y-84141071D01*
X113189342Y-84141071D02*
X113141723Y-84236309D01*
X113141723Y-84236309D02*
X113141723Y-84331547D01*
X113379819Y-84283928D02*
X113332200Y-84379166D01*
X113332200Y-84379166D02*
X113236961Y-84474404D01*
X113236961Y-84474404D02*
X113046485Y-84522023D01*
X113046485Y-84522023D02*
X112713152Y-84522023D01*
X112713152Y-84522023D02*
X112522676Y-84474404D01*
X112522676Y-84474404D02*
X112427438Y-84379166D01*
X112427438Y-84379166D02*
X112379819Y-84283928D01*
X112379819Y-84283928D02*
X112379819Y-84093452D01*
X112379819Y-84093452D02*
X112427438Y-83998214D01*
X112427438Y-83998214D02*
X112522676Y-83902976D01*
X112522676Y-83902976D02*
X112713152Y-83855357D01*
X112713152Y-83855357D02*
X113046485Y-83855357D01*
X113046485Y-83855357D02*
X113236961Y-83902976D01*
X113236961Y-83902976D02*
X113332200Y-83998214D01*
X113332200Y-83998214D02*
X113379819Y-84093452D01*
X113379819Y-84093452D02*
X113379819Y-84283928D01*
X112475057Y-83474404D02*
X112427438Y-83426785D01*
X112427438Y-83426785D02*
X112379819Y-83331547D01*
X112379819Y-83331547D02*
X112379819Y-83093452D01*
X112379819Y-83093452D02*
X112427438Y-82998214D01*
X112427438Y-82998214D02*
X112475057Y-82950595D01*
X112475057Y-82950595D02*
X112570295Y-82902976D01*
X112570295Y-82902976D02*
X112665533Y-82902976D01*
X112665533Y-82902976D02*
X112808390Y-82950595D01*
X112808390Y-82950595D02*
X113379819Y-83522023D01*
X113379819Y-83522023D02*
X113379819Y-82902976D01*
X98690476Y-79454819D02*
X98690476Y-78454819D01*
X98690476Y-78454819D02*
X99023809Y-79169104D01*
X99023809Y-79169104D02*
X99357142Y-78454819D01*
X99357142Y-78454819D02*
X99357142Y-79454819D01*
X100357142Y-79454819D02*
X99785714Y-79454819D01*
X100071428Y-79454819D02*
X100071428Y-78454819D01*
X100071428Y-78454819D02*
X99976190Y-78597676D01*
X99976190Y-78597676D02*
X99880952Y-78692914D01*
X99880952Y-78692914D02*
X99785714Y-78740533D01*
X124954819Y-100666666D02*
X124478628Y-100999999D01*
X124954819Y-101238094D02*
X123954819Y-101238094D01*
X123954819Y-101238094D02*
X123954819Y-100857142D01*
X123954819Y-100857142D02*
X124002438Y-100761904D01*
X124002438Y-100761904D02*
X124050057Y-100714285D01*
X124050057Y-100714285D02*
X124145295Y-100666666D01*
X124145295Y-100666666D02*
X124288152Y-100666666D01*
X124288152Y-100666666D02*
X124383390Y-100714285D01*
X124383390Y-100714285D02*
X124431009Y-100761904D01*
X124431009Y-100761904D02*
X124478628Y-100857142D01*
X124478628Y-100857142D02*
X124478628Y-101238094D01*
X123954819Y-99809523D02*
X123954819Y-99999999D01*
X123954819Y-99999999D02*
X124002438Y-100095237D01*
X124002438Y-100095237D02*
X124050057Y-100142856D01*
X124050057Y-100142856D02*
X124192914Y-100238094D01*
X124192914Y-100238094D02*
X124383390Y-100285713D01*
X124383390Y-100285713D02*
X124764342Y-100285713D01*
X124764342Y-100285713D02*
X124859580Y-100238094D01*
X124859580Y-100238094D02*
X124907200Y-100190475D01*
X124907200Y-100190475D02*
X124954819Y-100095237D01*
X124954819Y-100095237D02*
X124954819Y-99904761D01*
X124954819Y-99904761D02*
X124907200Y-99809523D01*
X124907200Y-99809523D02*
X124859580Y-99761904D01*
X124859580Y-99761904D02*
X124764342Y-99714285D01*
X124764342Y-99714285D02*
X124526247Y-99714285D01*
X124526247Y-99714285D02*
X124431009Y-99761904D01*
X124431009Y-99761904D02*
X124383390Y-99809523D01*
X124383390Y-99809523D02*
X124335771Y-99904761D01*
X124335771Y-99904761D02*
X124335771Y-100095237D01*
X124335771Y-100095237D02*
X124383390Y-100190475D01*
X124383390Y-100190475D02*
X124431009Y-100238094D01*
X124431009Y-100238094D02*
X124526247Y-100285713D01*
X136420833Y-98454819D02*
X136087500Y-97978628D01*
X135849405Y-98454819D02*
X135849405Y-97454819D01*
X135849405Y-97454819D02*
X136230357Y-97454819D01*
X136230357Y-97454819D02*
X136325595Y-97502438D01*
X136325595Y-97502438D02*
X136373214Y-97550057D01*
X136373214Y-97550057D02*
X136420833Y-97645295D01*
X136420833Y-97645295D02*
X136420833Y-97788152D01*
X136420833Y-97788152D02*
X136373214Y-97883390D01*
X136373214Y-97883390D02*
X136325595Y-97931009D01*
X136325595Y-97931009D02*
X136230357Y-97978628D01*
X136230357Y-97978628D02*
X135849405Y-97978628D01*
X136992262Y-97883390D02*
X136897024Y-97835771D01*
X136897024Y-97835771D02*
X136849405Y-97788152D01*
X136849405Y-97788152D02*
X136801786Y-97692914D01*
X136801786Y-97692914D02*
X136801786Y-97645295D01*
X136801786Y-97645295D02*
X136849405Y-97550057D01*
X136849405Y-97550057D02*
X136897024Y-97502438D01*
X136897024Y-97502438D02*
X136992262Y-97454819D01*
X136992262Y-97454819D02*
X137182738Y-97454819D01*
X137182738Y-97454819D02*
X137277976Y-97502438D01*
X137277976Y-97502438D02*
X137325595Y-97550057D01*
X137325595Y-97550057D02*
X137373214Y-97645295D01*
X137373214Y-97645295D02*
X137373214Y-97692914D01*
X137373214Y-97692914D02*
X137325595Y-97788152D01*
X137325595Y-97788152D02*
X137277976Y-97835771D01*
X137277976Y-97835771D02*
X137182738Y-97883390D01*
X137182738Y-97883390D02*
X136992262Y-97883390D01*
X136992262Y-97883390D02*
X136897024Y-97931009D01*
X136897024Y-97931009D02*
X136849405Y-97978628D01*
X136849405Y-97978628D02*
X136801786Y-98073866D01*
X136801786Y-98073866D02*
X136801786Y-98264342D01*
X136801786Y-98264342D02*
X136849405Y-98359580D01*
X136849405Y-98359580D02*
X136897024Y-98407200D01*
X136897024Y-98407200D02*
X136992262Y-98454819D01*
X136992262Y-98454819D02*
X137182738Y-98454819D01*
X137182738Y-98454819D02*
X137277976Y-98407200D01*
X137277976Y-98407200D02*
X137325595Y-98359580D01*
X137325595Y-98359580D02*
X137373214Y-98264342D01*
X137373214Y-98264342D02*
X137373214Y-98073866D01*
X137373214Y-98073866D02*
X137325595Y-97978628D01*
X137325595Y-97978628D02*
X137277976Y-97931009D01*
X137277976Y-97931009D02*
X137182738Y-97883390D01*
X108533333Y-83559580D02*
X108485714Y-83607200D01*
X108485714Y-83607200D02*
X108342857Y-83654819D01*
X108342857Y-83654819D02*
X108247619Y-83654819D01*
X108247619Y-83654819D02*
X108104762Y-83607200D01*
X108104762Y-83607200D02*
X108009524Y-83511961D01*
X108009524Y-83511961D02*
X107961905Y-83416723D01*
X107961905Y-83416723D02*
X107914286Y-83226247D01*
X107914286Y-83226247D02*
X107914286Y-83083390D01*
X107914286Y-83083390D02*
X107961905Y-82892914D01*
X107961905Y-82892914D02*
X108009524Y-82797676D01*
X108009524Y-82797676D02*
X108104762Y-82702438D01*
X108104762Y-82702438D02*
X108247619Y-82654819D01*
X108247619Y-82654819D02*
X108342857Y-82654819D01*
X108342857Y-82654819D02*
X108485714Y-82702438D01*
X108485714Y-82702438D02*
X108533333Y-82750057D01*
X109438095Y-82654819D02*
X108961905Y-82654819D01*
X108961905Y-82654819D02*
X108914286Y-83131009D01*
X108914286Y-83131009D02*
X108961905Y-83083390D01*
X108961905Y-83083390D02*
X109057143Y-83035771D01*
X109057143Y-83035771D02*
X109295238Y-83035771D01*
X109295238Y-83035771D02*
X109390476Y-83083390D01*
X109390476Y-83083390D02*
X109438095Y-83131009D01*
X109438095Y-83131009D02*
X109485714Y-83226247D01*
X109485714Y-83226247D02*
X109485714Y-83464342D01*
X109485714Y-83464342D02*
X109438095Y-83559580D01*
X109438095Y-83559580D02*
X109390476Y-83607200D01*
X109390476Y-83607200D02*
X109295238Y-83654819D01*
X109295238Y-83654819D02*
X109057143Y-83654819D01*
X109057143Y-83654819D02*
X108961905Y-83607200D01*
X108961905Y-83607200D02*
X108914286Y-83559580D01*
X153857142Y-89454819D02*
X153523809Y-88978628D01*
X153285714Y-89454819D02*
X153285714Y-88454819D01*
X153285714Y-88454819D02*
X153666666Y-88454819D01*
X153666666Y-88454819D02*
X153761904Y-88502438D01*
X153761904Y-88502438D02*
X153809523Y-88550057D01*
X153809523Y-88550057D02*
X153857142Y-88645295D01*
X153857142Y-88645295D02*
X153857142Y-88788152D01*
X153857142Y-88788152D02*
X153809523Y-88883390D01*
X153809523Y-88883390D02*
X153761904Y-88931009D01*
X153761904Y-88931009D02*
X153666666Y-88978628D01*
X153666666Y-88978628D02*
X153285714Y-88978628D01*
X154809523Y-89454819D02*
X154238095Y-89454819D01*
X154523809Y-89454819D02*
X154523809Y-88454819D01*
X154523809Y-88454819D02*
X154428571Y-88597676D01*
X154428571Y-88597676D02*
X154333333Y-88692914D01*
X154333333Y-88692914D02*
X154238095Y-88740533D01*
X155142857Y-88454819D02*
X155761904Y-88454819D01*
X155761904Y-88454819D02*
X155428571Y-88835771D01*
X155428571Y-88835771D02*
X155571428Y-88835771D01*
X155571428Y-88835771D02*
X155666666Y-88883390D01*
X155666666Y-88883390D02*
X155714285Y-88931009D01*
X155714285Y-88931009D02*
X155761904Y-89026247D01*
X155761904Y-89026247D02*
X155761904Y-89264342D01*
X155761904Y-89264342D02*
X155714285Y-89359580D01*
X155714285Y-89359580D02*
X155666666Y-89407200D01*
X155666666Y-89407200D02*
X155571428Y-89454819D01*
X155571428Y-89454819D02*
X155285714Y-89454819D01*
X155285714Y-89454819D02*
X155190476Y-89407200D01*
X155190476Y-89407200D02*
X155142857Y-89359580D01*
X163690476Y-79454819D02*
X163690476Y-78454819D01*
X163690476Y-78454819D02*
X164023809Y-79169104D01*
X164023809Y-79169104D02*
X164357142Y-78454819D01*
X164357142Y-78454819D02*
X164357142Y-79454819D01*
X165261904Y-78788152D02*
X165261904Y-79454819D01*
X165023809Y-78407200D02*
X164785714Y-79121485D01*
X164785714Y-79121485D02*
X165404761Y-79121485D01*
X150915667Y-86569185D02*
X150343247Y-87141605D01*
X150343247Y-87141605D02*
X150309575Y-87242620D01*
X150309575Y-87242620D02*
X150309575Y-87309964D01*
X150309575Y-87309964D02*
X150343247Y-87410979D01*
X150343247Y-87410979D02*
X150477934Y-87545666D01*
X150477934Y-87545666D02*
X150578949Y-87579338D01*
X150578949Y-87579338D02*
X150646293Y-87579338D01*
X150646293Y-87579338D02*
X150747308Y-87545666D01*
X150747308Y-87545666D02*
X151319728Y-86973246D01*
X151319728Y-88387460D02*
X150915667Y-87983399D01*
X151117697Y-88185429D02*
X151824804Y-87478323D01*
X151824804Y-87478323D02*
X151656445Y-87511994D01*
X151656445Y-87511994D02*
X151521758Y-87511994D01*
X151521758Y-87511994D02*
X151420743Y-87478323D01*
X115195833Y-78204819D02*
X114862500Y-77728628D01*
X114624405Y-78204819D02*
X114624405Y-77204819D01*
X114624405Y-77204819D02*
X115005357Y-77204819D01*
X115005357Y-77204819D02*
X115100595Y-77252438D01*
X115100595Y-77252438D02*
X115148214Y-77300057D01*
X115148214Y-77300057D02*
X115195833Y-77395295D01*
X115195833Y-77395295D02*
X115195833Y-77538152D01*
X115195833Y-77538152D02*
X115148214Y-77633390D01*
X115148214Y-77633390D02*
X115100595Y-77681009D01*
X115100595Y-77681009D02*
X115005357Y-77728628D01*
X115005357Y-77728628D02*
X114624405Y-77728628D01*
X115529167Y-77204819D02*
X116148214Y-77204819D01*
X116148214Y-77204819D02*
X115814881Y-77585771D01*
X115814881Y-77585771D02*
X115957738Y-77585771D01*
X115957738Y-77585771D02*
X116052976Y-77633390D01*
X116052976Y-77633390D02*
X116100595Y-77681009D01*
X116100595Y-77681009D02*
X116148214Y-77776247D01*
X116148214Y-77776247D02*
X116148214Y-78014342D01*
X116148214Y-78014342D02*
X116100595Y-78109580D01*
X116100595Y-78109580D02*
X116052976Y-78157200D01*
X116052976Y-78157200D02*
X115957738Y-78204819D01*
X115957738Y-78204819D02*
X115672024Y-78204819D01*
X115672024Y-78204819D02*
X115576786Y-78157200D01*
X115576786Y-78157200D02*
X115529167Y-78109580D01*
X140179580Y-99092857D02*
X140227200Y-99140476D01*
X140227200Y-99140476D02*
X140274819Y-99283333D01*
X140274819Y-99283333D02*
X140274819Y-99378571D01*
X140274819Y-99378571D02*
X140227200Y-99521428D01*
X140227200Y-99521428D02*
X140131961Y-99616666D01*
X140131961Y-99616666D02*
X140036723Y-99664285D01*
X140036723Y-99664285D02*
X139846247Y-99711904D01*
X139846247Y-99711904D02*
X139703390Y-99711904D01*
X139703390Y-99711904D02*
X139512914Y-99664285D01*
X139512914Y-99664285D02*
X139417676Y-99616666D01*
X139417676Y-99616666D02*
X139322438Y-99521428D01*
X139322438Y-99521428D02*
X139274819Y-99378571D01*
X139274819Y-99378571D02*
X139274819Y-99283333D01*
X139274819Y-99283333D02*
X139322438Y-99140476D01*
X139322438Y-99140476D02*
X139370057Y-99092857D01*
X140274819Y-98140476D02*
X140274819Y-98711904D01*
X140274819Y-98426190D02*
X139274819Y-98426190D01*
X139274819Y-98426190D02*
X139417676Y-98521428D01*
X139417676Y-98521428D02*
X139512914Y-98616666D01*
X139512914Y-98616666D02*
X139560533Y-98711904D01*
X139370057Y-97759523D02*
X139322438Y-97711904D01*
X139322438Y-97711904D02*
X139274819Y-97616666D01*
X139274819Y-97616666D02*
X139274819Y-97378571D01*
X139274819Y-97378571D02*
X139322438Y-97283333D01*
X139322438Y-97283333D02*
X139370057Y-97235714D01*
X139370057Y-97235714D02*
X139465295Y-97188095D01*
X139465295Y-97188095D02*
X139560533Y-97188095D01*
X139560533Y-97188095D02*
X139703390Y-97235714D01*
X139703390Y-97235714D02*
X140274819Y-97807142D01*
X140274819Y-97807142D02*
X140274819Y-97188095D01*
X115195833Y-91204819D02*
X114862500Y-90728628D01*
X114624405Y-91204819D02*
X114624405Y-90204819D01*
X114624405Y-90204819D02*
X115005357Y-90204819D01*
X115005357Y-90204819D02*
X115100595Y-90252438D01*
X115100595Y-90252438D02*
X115148214Y-90300057D01*
X115148214Y-90300057D02*
X115195833Y-90395295D01*
X115195833Y-90395295D02*
X115195833Y-90538152D01*
X115195833Y-90538152D02*
X115148214Y-90633390D01*
X115148214Y-90633390D02*
X115100595Y-90681009D01*
X115100595Y-90681009D02*
X115005357Y-90728628D01*
X115005357Y-90728628D02*
X114624405Y-90728628D01*
X115576786Y-90300057D02*
X115624405Y-90252438D01*
X115624405Y-90252438D02*
X115719643Y-90204819D01*
X115719643Y-90204819D02*
X115957738Y-90204819D01*
X115957738Y-90204819D02*
X116052976Y-90252438D01*
X116052976Y-90252438D02*
X116100595Y-90300057D01*
X116100595Y-90300057D02*
X116148214Y-90395295D01*
X116148214Y-90395295D02*
X116148214Y-90490533D01*
X116148214Y-90490533D02*
X116100595Y-90633390D01*
X116100595Y-90633390D02*
X115529167Y-91204819D01*
X115529167Y-91204819D02*
X116148214Y-91204819D01*
X134548095Y-76124820D02*
X134548095Y-76934343D01*
X134548095Y-76934343D02*
X134595714Y-77029581D01*
X134595714Y-77029581D02*
X134643333Y-77077201D01*
X134643333Y-77077201D02*
X134738571Y-77124820D01*
X134738571Y-77124820D02*
X134929047Y-77124820D01*
X134929047Y-77124820D02*
X135024285Y-77077201D01*
X135024285Y-77077201D02*
X135071904Y-77029581D01*
X135071904Y-77029581D02*
X135119523Y-76934343D01*
X135119523Y-76934343D02*
X135119523Y-76124820D01*
X135548095Y-76220058D02*
X135595714Y-76172439D01*
X135595714Y-76172439D02*
X135690952Y-76124820D01*
X135690952Y-76124820D02*
X135929047Y-76124820D01*
X135929047Y-76124820D02*
X136024285Y-76172439D01*
X136024285Y-76172439D02*
X136071904Y-76220058D01*
X136071904Y-76220058D02*
X136119523Y-76315296D01*
X136119523Y-76315296D02*
X136119523Y-76410534D01*
X136119523Y-76410534D02*
X136071904Y-76553391D01*
X136071904Y-76553391D02*
X135500476Y-77124820D01*
X135500476Y-77124820D02*
X136119523Y-77124820D01*
X160031009Y-96045833D02*
X160031009Y-96379166D01*
X160554819Y-96379166D02*
X159554819Y-96379166D01*
X159554819Y-96379166D02*
X159554819Y-95902976D01*
X160031009Y-95188690D02*
X160078628Y-95045833D01*
X160078628Y-95045833D02*
X160126247Y-94998214D01*
X160126247Y-94998214D02*
X160221485Y-94950595D01*
X160221485Y-94950595D02*
X160364342Y-94950595D01*
X160364342Y-94950595D02*
X160459580Y-94998214D01*
X160459580Y-94998214D02*
X160507200Y-95045833D01*
X160507200Y-95045833D02*
X160554819Y-95141071D01*
X160554819Y-95141071D02*
X160554819Y-95522023D01*
X160554819Y-95522023D02*
X159554819Y-95522023D01*
X159554819Y-95522023D02*
X159554819Y-95188690D01*
X159554819Y-95188690D02*
X159602438Y-95093452D01*
X159602438Y-95093452D02*
X159650057Y-95045833D01*
X159650057Y-95045833D02*
X159745295Y-94998214D01*
X159745295Y-94998214D02*
X159840533Y-94998214D01*
X159840533Y-94998214D02*
X159935771Y-95045833D01*
X159935771Y-95045833D02*
X159983390Y-95093452D01*
X159983390Y-95093452D02*
X160031009Y-95188690D01*
X160031009Y-95188690D02*
X160031009Y-95522023D01*
X160554819Y-93998214D02*
X160554819Y-94569642D01*
X160554819Y-94283928D02*
X159554819Y-94283928D01*
X159554819Y-94283928D02*
X159697676Y-94379166D01*
X159697676Y-94379166D02*
X159792914Y-94474404D01*
X159792914Y-94474404D02*
X159840533Y-94569642D01*
X134050057Y-86095238D02*
X134002438Y-86190476D01*
X134002438Y-86190476D02*
X133907200Y-86285714D01*
X133907200Y-86285714D02*
X133764342Y-86428571D01*
X133764342Y-86428571D02*
X133716723Y-86523809D01*
X133716723Y-86523809D02*
X133716723Y-86619047D01*
X133954819Y-86571428D02*
X133907200Y-86666666D01*
X133907200Y-86666666D02*
X133811961Y-86761904D01*
X133811961Y-86761904D02*
X133621485Y-86809523D01*
X133621485Y-86809523D02*
X133288152Y-86809523D01*
X133288152Y-86809523D02*
X133097676Y-86761904D01*
X133097676Y-86761904D02*
X133002438Y-86666666D01*
X133002438Y-86666666D02*
X132954819Y-86571428D01*
X132954819Y-86571428D02*
X132954819Y-86380952D01*
X132954819Y-86380952D02*
X133002438Y-86285714D01*
X133002438Y-86285714D02*
X133097676Y-86190476D01*
X133097676Y-86190476D02*
X133288152Y-86142857D01*
X133288152Y-86142857D02*
X133621485Y-86142857D01*
X133621485Y-86142857D02*
X133811961Y-86190476D01*
X133811961Y-86190476D02*
X133907200Y-86285714D01*
X133907200Y-86285714D02*
X133954819Y-86380952D01*
X133954819Y-86380952D02*
X133954819Y-86571428D01*
X132954819Y-85238095D02*
X132954819Y-85714285D01*
X132954819Y-85714285D02*
X133431009Y-85761904D01*
X133431009Y-85761904D02*
X133383390Y-85714285D01*
X133383390Y-85714285D02*
X133335771Y-85619047D01*
X133335771Y-85619047D02*
X133335771Y-85380952D01*
X133335771Y-85380952D02*
X133383390Y-85285714D01*
X133383390Y-85285714D02*
X133431009Y-85238095D01*
X133431009Y-85238095D02*
X133526247Y-85190476D01*
X133526247Y-85190476D02*
X133764342Y-85190476D01*
X133764342Y-85190476D02*
X133859580Y-85238095D01*
X133859580Y-85238095D02*
X133907200Y-85285714D01*
X133907200Y-85285714D02*
X133954819Y-85380952D01*
X133954819Y-85380952D02*
X133954819Y-85619047D01*
X133954819Y-85619047D02*
X133907200Y-85714285D01*
X133907200Y-85714285D02*
X133859580Y-85761904D01*
X145954819Y-80055357D02*
X145478628Y-80388690D01*
X145954819Y-80626785D02*
X144954819Y-80626785D01*
X144954819Y-80626785D02*
X144954819Y-80245833D01*
X144954819Y-80245833D02*
X145002438Y-80150595D01*
X145002438Y-80150595D02*
X145050057Y-80102976D01*
X145050057Y-80102976D02*
X145145295Y-80055357D01*
X145145295Y-80055357D02*
X145288152Y-80055357D01*
X145288152Y-80055357D02*
X145383390Y-80102976D01*
X145383390Y-80102976D02*
X145431009Y-80150595D01*
X145431009Y-80150595D02*
X145478628Y-80245833D01*
X145478628Y-80245833D02*
X145478628Y-80626785D01*
X145954819Y-79102976D02*
X145954819Y-79674404D01*
X145954819Y-79388690D02*
X144954819Y-79388690D01*
X144954819Y-79388690D02*
X145097676Y-79483928D01*
X145097676Y-79483928D02*
X145192914Y-79579166D01*
X145192914Y-79579166D02*
X145240533Y-79674404D01*
X144954819Y-78245833D02*
X144954819Y-78436309D01*
X144954819Y-78436309D02*
X145002438Y-78531547D01*
X145002438Y-78531547D02*
X145050057Y-78579166D01*
X145050057Y-78579166D02*
X145192914Y-78674404D01*
X145192914Y-78674404D02*
X145383390Y-78722023D01*
X145383390Y-78722023D02*
X145764342Y-78722023D01*
X145764342Y-78722023D02*
X145859580Y-78674404D01*
X145859580Y-78674404D02*
X145907200Y-78626785D01*
X145907200Y-78626785D02*
X145954819Y-78531547D01*
X145954819Y-78531547D02*
X145954819Y-78341071D01*
X145954819Y-78341071D02*
X145907200Y-78245833D01*
X145907200Y-78245833D02*
X145859580Y-78198214D01*
X145859580Y-78198214D02*
X145764342Y-78150595D01*
X145764342Y-78150595D02*
X145526247Y-78150595D01*
X145526247Y-78150595D02*
X145431009Y-78198214D01*
X145431009Y-78198214D02*
X145383390Y-78245833D01*
X145383390Y-78245833D02*
X145335771Y-78341071D01*
X145335771Y-78341071D02*
X145335771Y-78531547D01*
X145335771Y-78531547D02*
X145383390Y-78626785D01*
X145383390Y-78626785D02*
X145431009Y-78674404D01*
X145431009Y-78674404D02*
X145526247Y-78722023D01*
X156666666Y-88454819D02*
X156666666Y-89169104D01*
X156666666Y-89169104D02*
X156619047Y-89311961D01*
X156619047Y-89311961D02*
X156523809Y-89407200D01*
X156523809Y-89407200D02*
X156380952Y-89454819D01*
X156380952Y-89454819D02*
X156285714Y-89454819D01*
X157142857Y-89454819D02*
X157142857Y-88454819D01*
X157142857Y-88454819D02*
X157523809Y-88454819D01*
X157523809Y-88454819D02*
X157619047Y-88502438D01*
X157619047Y-88502438D02*
X157666666Y-88550057D01*
X157666666Y-88550057D02*
X157714285Y-88645295D01*
X157714285Y-88645295D02*
X157714285Y-88788152D01*
X157714285Y-88788152D02*
X157666666Y-88883390D01*
X157666666Y-88883390D02*
X157619047Y-88931009D01*
X157619047Y-88931009D02*
X157523809Y-88978628D01*
X157523809Y-88978628D02*
X157142857Y-88978628D01*
X158095238Y-88550057D02*
X158142857Y-88502438D01*
X158142857Y-88502438D02*
X158238095Y-88454819D01*
X158238095Y-88454819D02*
X158476190Y-88454819D01*
X158476190Y-88454819D02*
X158571428Y-88502438D01*
X158571428Y-88502438D02*
X158619047Y-88550057D01*
X158619047Y-88550057D02*
X158666666Y-88645295D01*
X158666666Y-88645295D02*
X158666666Y-88740533D01*
X158666666Y-88740533D02*
X158619047Y-88883390D01*
X158619047Y-88883390D02*
X158047619Y-89454819D01*
X158047619Y-89454819D02*
X158666666Y-89454819D01*
X98690476Y-99454819D02*
X98690476Y-98454819D01*
X98690476Y-98454819D02*
X99023809Y-99169104D01*
X99023809Y-99169104D02*
X99357142Y-98454819D01*
X99357142Y-98454819D02*
X99357142Y-99454819D01*
X99785714Y-98550057D02*
X99833333Y-98502438D01*
X99833333Y-98502438D02*
X99928571Y-98454819D01*
X99928571Y-98454819D02*
X100166666Y-98454819D01*
X100166666Y-98454819D02*
X100261904Y-98502438D01*
X100261904Y-98502438D02*
X100309523Y-98550057D01*
X100309523Y-98550057D02*
X100357142Y-98645295D01*
X100357142Y-98645295D02*
X100357142Y-98740533D01*
X100357142Y-98740533D02*
X100309523Y-98883390D01*
X100309523Y-98883390D02*
X99738095Y-99454819D01*
X99738095Y-99454819D02*
X100357142Y-99454819D01*
X108333333Y-85159580D02*
X108285714Y-85207200D01*
X108285714Y-85207200D02*
X108142857Y-85254819D01*
X108142857Y-85254819D02*
X108047619Y-85254819D01*
X108047619Y-85254819D02*
X107904762Y-85207200D01*
X107904762Y-85207200D02*
X107809524Y-85111961D01*
X107809524Y-85111961D02*
X107761905Y-85016723D01*
X107761905Y-85016723D02*
X107714286Y-84826247D01*
X107714286Y-84826247D02*
X107714286Y-84683390D01*
X107714286Y-84683390D02*
X107761905Y-84492914D01*
X107761905Y-84492914D02*
X107809524Y-84397676D01*
X107809524Y-84397676D02*
X107904762Y-84302438D01*
X107904762Y-84302438D02*
X108047619Y-84254819D01*
X108047619Y-84254819D02*
X108142857Y-84254819D01*
X108142857Y-84254819D02*
X108285714Y-84302438D01*
X108285714Y-84302438D02*
X108333333Y-84350057D01*
X109285714Y-85254819D02*
X108714286Y-85254819D01*
X109000000Y-85254819D02*
X109000000Y-84254819D01*
X109000000Y-84254819D02*
X108904762Y-84397676D01*
X108904762Y-84397676D02*
X108809524Y-84492914D01*
X108809524Y-84492914D02*
X108714286Y-84540533D01*
X114579819Y-88066666D02*
X114103628Y-88399999D01*
X114579819Y-88638094D02*
X113579819Y-88638094D01*
X113579819Y-88638094D02*
X113579819Y-88257142D01*
X113579819Y-88257142D02*
X113627438Y-88161904D01*
X113627438Y-88161904D02*
X113675057Y-88114285D01*
X113675057Y-88114285D02*
X113770295Y-88066666D01*
X113770295Y-88066666D02*
X113913152Y-88066666D01*
X113913152Y-88066666D02*
X114008390Y-88114285D01*
X114008390Y-88114285D02*
X114056009Y-88161904D01*
X114056009Y-88161904D02*
X114103628Y-88257142D01*
X114103628Y-88257142D02*
X114103628Y-88638094D01*
X114579819Y-87114285D02*
X114579819Y-87685713D01*
X114579819Y-87399999D02*
X113579819Y-87399999D01*
X113579819Y-87399999D02*
X113722676Y-87495237D01*
X113722676Y-87495237D02*
X113817914Y-87590475D01*
X113817914Y-87590475D02*
X113865533Y-87685713D01*
X123833333Y-77304819D02*
X123500000Y-76828628D01*
X123261905Y-77304819D02*
X123261905Y-76304819D01*
X123261905Y-76304819D02*
X123642857Y-76304819D01*
X123642857Y-76304819D02*
X123738095Y-76352438D01*
X123738095Y-76352438D02*
X123785714Y-76400057D01*
X123785714Y-76400057D02*
X123833333Y-76495295D01*
X123833333Y-76495295D02*
X123833333Y-76638152D01*
X123833333Y-76638152D02*
X123785714Y-76733390D01*
X123785714Y-76733390D02*
X123738095Y-76781009D01*
X123738095Y-76781009D02*
X123642857Y-76828628D01*
X123642857Y-76828628D02*
X123261905Y-76828628D01*
X124309524Y-77304819D02*
X124500000Y-77304819D01*
X124500000Y-77304819D02*
X124595238Y-77257200D01*
X124595238Y-77257200D02*
X124642857Y-77209580D01*
X124642857Y-77209580D02*
X124738095Y-77066723D01*
X124738095Y-77066723D02*
X124785714Y-76876247D01*
X124785714Y-76876247D02*
X124785714Y-76495295D01*
X124785714Y-76495295D02*
X124738095Y-76400057D01*
X124738095Y-76400057D02*
X124690476Y-76352438D01*
X124690476Y-76352438D02*
X124595238Y-76304819D01*
X124595238Y-76304819D02*
X124404762Y-76304819D01*
X124404762Y-76304819D02*
X124309524Y-76352438D01*
X124309524Y-76352438D02*
X124261905Y-76400057D01*
X124261905Y-76400057D02*
X124214286Y-76495295D01*
X124214286Y-76495295D02*
X124214286Y-76733390D01*
X124214286Y-76733390D02*
X124261905Y-76828628D01*
X124261905Y-76828628D02*
X124309524Y-76876247D01*
X124309524Y-76876247D02*
X124404762Y-76923866D01*
X124404762Y-76923866D02*
X124595238Y-76923866D01*
X124595238Y-76923866D02*
X124690476Y-76876247D01*
X124690476Y-76876247D02*
X124738095Y-76828628D01*
X124738095Y-76828628D02*
X124785714Y-76733390D01*
X122420833Y-86304819D02*
X122087500Y-85828628D01*
X121849405Y-86304819D02*
X121849405Y-85304819D01*
X121849405Y-85304819D02*
X122230357Y-85304819D01*
X122230357Y-85304819D02*
X122325595Y-85352438D01*
X122325595Y-85352438D02*
X122373214Y-85400057D01*
X122373214Y-85400057D02*
X122420833Y-85495295D01*
X122420833Y-85495295D02*
X122420833Y-85638152D01*
X122420833Y-85638152D02*
X122373214Y-85733390D01*
X122373214Y-85733390D02*
X122325595Y-85781009D01*
X122325595Y-85781009D02*
X122230357Y-85828628D01*
X122230357Y-85828628D02*
X121849405Y-85828628D01*
X122754167Y-85304819D02*
X123420833Y-85304819D01*
X123420833Y-85304819D02*
X122992262Y-86304819D01*
X97766666Y-88454819D02*
X97766666Y-89169104D01*
X97766666Y-89169104D02*
X97719047Y-89311961D01*
X97719047Y-89311961D02*
X97623809Y-89407200D01*
X97623809Y-89407200D02*
X97480952Y-89454819D01*
X97480952Y-89454819D02*
X97385714Y-89454819D01*
X98671428Y-88788152D02*
X98671428Y-89454819D01*
X98433333Y-88407200D02*
X98195238Y-89121485D01*
X98195238Y-89121485D02*
X98814285Y-89121485D01*
X132833333Y-88509580D02*
X132785714Y-88557200D01*
X132785714Y-88557200D02*
X132642857Y-88604819D01*
X132642857Y-88604819D02*
X132547619Y-88604819D01*
X132547619Y-88604819D02*
X132404762Y-88557200D01*
X132404762Y-88557200D02*
X132309524Y-88461961D01*
X132309524Y-88461961D02*
X132261905Y-88366723D01*
X132261905Y-88366723D02*
X132214286Y-88176247D01*
X132214286Y-88176247D02*
X132214286Y-88033390D01*
X132214286Y-88033390D02*
X132261905Y-87842914D01*
X132261905Y-87842914D02*
X132309524Y-87747676D01*
X132309524Y-87747676D02*
X132404762Y-87652438D01*
X132404762Y-87652438D02*
X132547619Y-87604819D01*
X132547619Y-87604819D02*
X132642857Y-87604819D01*
X132642857Y-87604819D02*
X132785714Y-87652438D01*
X132785714Y-87652438D02*
X132833333Y-87700057D01*
X133166667Y-87604819D02*
X133833333Y-87604819D01*
X133833333Y-87604819D02*
X133404762Y-88604819D01*
X156954819Y-96142857D02*
X156478628Y-96476190D01*
X156954819Y-96714285D02*
X155954819Y-96714285D01*
X155954819Y-96714285D02*
X155954819Y-96333333D01*
X155954819Y-96333333D02*
X156002438Y-96238095D01*
X156002438Y-96238095D02*
X156050057Y-96190476D01*
X156050057Y-96190476D02*
X156145295Y-96142857D01*
X156145295Y-96142857D02*
X156288152Y-96142857D01*
X156288152Y-96142857D02*
X156383390Y-96190476D01*
X156383390Y-96190476D02*
X156431009Y-96238095D01*
X156431009Y-96238095D02*
X156478628Y-96333333D01*
X156478628Y-96333333D02*
X156478628Y-96714285D01*
X156954819Y-95190476D02*
X156954819Y-95761904D01*
X156954819Y-95476190D02*
X155954819Y-95476190D01*
X155954819Y-95476190D02*
X156097676Y-95571428D01*
X156097676Y-95571428D02*
X156192914Y-95666666D01*
X156192914Y-95666666D02*
X156240533Y-95761904D01*
X156288152Y-94333333D02*
X156954819Y-94333333D01*
X155907200Y-94571428D02*
X156621485Y-94809523D01*
X156621485Y-94809523D02*
X156621485Y-94190476D01*
X121904761Y-89650057D02*
X121809523Y-89602438D01*
X121809523Y-89602438D02*
X121714285Y-89507200D01*
X121714285Y-89507200D02*
X121571428Y-89364342D01*
X121571428Y-89364342D02*
X121476190Y-89316723D01*
X121476190Y-89316723D02*
X121380952Y-89316723D01*
X121428571Y-89554819D02*
X121333333Y-89507200D01*
X121333333Y-89507200D02*
X121238095Y-89411961D01*
X121238095Y-89411961D02*
X121190476Y-89221485D01*
X121190476Y-89221485D02*
X121190476Y-88888152D01*
X121190476Y-88888152D02*
X121238095Y-88697676D01*
X121238095Y-88697676D02*
X121333333Y-88602438D01*
X121333333Y-88602438D02*
X121428571Y-88554819D01*
X121428571Y-88554819D02*
X121619047Y-88554819D01*
X121619047Y-88554819D02*
X121714285Y-88602438D01*
X121714285Y-88602438D02*
X121809523Y-88697676D01*
X121809523Y-88697676D02*
X121857142Y-88888152D01*
X121857142Y-88888152D02*
X121857142Y-89221485D01*
X121857142Y-89221485D02*
X121809523Y-89411961D01*
X121809523Y-89411961D02*
X121714285Y-89507200D01*
X121714285Y-89507200D02*
X121619047Y-89554819D01*
X121619047Y-89554819D02*
X121428571Y-89554819D01*
X122809523Y-89554819D02*
X122238095Y-89554819D01*
X122523809Y-89554819D02*
X122523809Y-88554819D01*
X122523809Y-88554819D02*
X122428571Y-88697676D01*
X122428571Y-88697676D02*
X122333333Y-88792914D01*
X122333333Y-88792914D02*
X122238095Y-88840533D01*
X143679580Y-100092857D02*
X143727200Y-100140476D01*
X143727200Y-100140476D02*
X143774819Y-100283333D01*
X143774819Y-100283333D02*
X143774819Y-100378571D01*
X143774819Y-100378571D02*
X143727200Y-100521428D01*
X143727200Y-100521428D02*
X143631961Y-100616666D01*
X143631961Y-100616666D02*
X143536723Y-100664285D01*
X143536723Y-100664285D02*
X143346247Y-100711904D01*
X143346247Y-100711904D02*
X143203390Y-100711904D01*
X143203390Y-100711904D02*
X143012914Y-100664285D01*
X143012914Y-100664285D02*
X142917676Y-100616666D01*
X142917676Y-100616666D02*
X142822438Y-100521428D01*
X142822438Y-100521428D02*
X142774819Y-100378571D01*
X142774819Y-100378571D02*
X142774819Y-100283333D01*
X142774819Y-100283333D02*
X142822438Y-100140476D01*
X142822438Y-100140476D02*
X142870057Y-100092857D01*
X143774819Y-99140476D02*
X143774819Y-99711904D01*
X143774819Y-99426190D02*
X142774819Y-99426190D01*
X142774819Y-99426190D02*
X142917676Y-99521428D01*
X142917676Y-99521428D02*
X143012914Y-99616666D01*
X143012914Y-99616666D02*
X143060533Y-99711904D01*
X142774819Y-98521428D02*
X142774819Y-98426190D01*
X142774819Y-98426190D02*
X142822438Y-98330952D01*
X142822438Y-98330952D02*
X142870057Y-98283333D01*
X142870057Y-98283333D02*
X142965295Y-98235714D01*
X142965295Y-98235714D02*
X143155771Y-98188095D01*
X143155771Y-98188095D02*
X143393866Y-98188095D01*
X143393866Y-98188095D02*
X143584342Y-98235714D01*
X143584342Y-98235714D02*
X143679580Y-98283333D01*
X143679580Y-98283333D02*
X143727200Y-98330952D01*
X143727200Y-98330952D02*
X143774819Y-98426190D01*
X143774819Y-98426190D02*
X143774819Y-98521428D01*
X143774819Y-98521428D02*
X143727200Y-98616666D01*
X143727200Y-98616666D02*
X143679580Y-98664285D01*
X143679580Y-98664285D02*
X143584342Y-98711904D01*
X143584342Y-98711904D02*
X143393866Y-98759523D01*
X143393866Y-98759523D02*
X143155771Y-98759523D01*
X143155771Y-98759523D02*
X142965295Y-98711904D01*
X142965295Y-98711904D02*
X142870057Y-98664285D01*
X142870057Y-98664285D02*
X142822438Y-98616666D01*
X142822438Y-98616666D02*
X142774819Y-98521428D01*
X143861009Y-80120833D02*
X143861009Y-80454166D01*
X144384819Y-80454166D02*
X143384819Y-80454166D01*
X143384819Y-80454166D02*
X143384819Y-79977976D01*
X143480057Y-79644642D02*
X143432438Y-79597023D01*
X143432438Y-79597023D02*
X143384819Y-79501785D01*
X143384819Y-79501785D02*
X143384819Y-79263690D01*
X143384819Y-79263690D02*
X143432438Y-79168452D01*
X143432438Y-79168452D02*
X143480057Y-79120833D01*
X143480057Y-79120833D02*
X143575295Y-79073214D01*
X143575295Y-79073214D02*
X143670533Y-79073214D01*
X143670533Y-79073214D02*
X143813390Y-79120833D01*
X143813390Y-79120833D02*
X144384819Y-79692261D01*
X144384819Y-79692261D02*
X144384819Y-79073214D01*
X167954819Y-89333333D02*
X168669104Y-89333333D01*
X168669104Y-89333333D02*
X168811961Y-89380952D01*
X168811961Y-89380952D02*
X168907200Y-89476190D01*
X168907200Y-89476190D02*
X168954819Y-89619047D01*
X168954819Y-89619047D02*
X168954819Y-89714285D01*
X167954819Y-88952380D02*
X167954819Y-88333333D01*
X167954819Y-88333333D02*
X168335771Y-88666666D01*
X168335771Y-88666666D02*
X168335771Y-88523809D01*
X168335771Y-88523809D02*
X168383390Y-88428571D01*
X168383390Y-88428571D02*
X168431009Y-88380952D01*
X168431009Y-88380952D02*
X168526247Y-88333333D01*
X168526247Y-88333333D02*
X168764342Y-88333333D01*
X168764342Y-88333333D02*
X168859580Y-88380952D01*
X168859580Y-88380952D02*
X168907200Y-88428571D01*
X168907200Y-88428571D02*
X168954819Y-88523809D01*
X168954819Y-88523809D02*
X168954819Y-88809523D01*
X168954819Y-88809523D02*
X168907200Y-88904761D01*
X168907200Y-88904761D02*
X168859580Y-88952380D01*
X150039580Y-100192857D02*
X150087200Y-100240476D01*
X150087200Y-100240476D02*
X150134819Y-100383333D01*
X150134819Y-100383333D02*
X150134819Y-100478571D01*
X150134819Y-100478571D02*
X150087200Y-100621428D01*
X150087200Y-100621428D02*
X149991961Y-100716666D01*
X149991961Y-100716666D02*
X149896723Y-100764285D01*
X149896723Y-100764285D02*
X149706247Y-100811904D01*
X149706247Y-100811904D02*
X149563390Y-100811904D01*
X149563390Y-100811904D02*
X149372914Y-100764285D01*
X149372914Y-100764285D02*
X149277676Y-100716666D01*
X149277676Y-100716666D02*
X149182438Y-100621428D01*
X149182438Y-100621428D02*
X149134819Y-100478571D01*
X149134819Y-100478571D02*
X149134819Y-100383333D01*
X149134819Y-100383333D02*
X149182438Y-100240476D01*
X149182438Y-100240476D02*
X149230057Y-100192857D01*
X150134819Y-99240476D02*
X150134819Y-99811904D01*
X150134819Y-99526190D02*
X149134819Y-99526190D01*
X149134819Y-99526190D02*
X149277676Y-99621428D01*
X149277676Y-99621428D02*
X149372914Y-99716666D01*
X149372914Y-99716666D02*
X149420533Y-99811904D01*
X150134819Y-98288095D02*
X150134819Y-98859523D01*
X150134819Y-98573809D02*
X149134819Y-98573809D01*
X149134819Y-98573809D02*
X149277676Y-98669047D01*
X149277676Y-98669047D02*
X149372914Y-98764285D01*
X149372914Y-98764285D02*
X149420533Y-98859523D01*
X159857142Y-89454819D02*
X159523809Y-88978628D01*
X159285714Y-89454819D02*
X159285714Y-88454819D01*
X159285714Y-88454819D02*
X159666666Y-88454819D01*
X159666666Y-88454819D02*
X159761904Y-88502438D01*
X159761904Y-88502438D02*
X159809523Y-88550057D01*
X159809523Y-88550057D02*
X159857142Y-88645295D01*
X159857142Y-88645295D02*
X159857142Y-88788152D01*
X159857142Y-88788152D02*
X159809523Y-88883390D01*
X159809523Y-88883390D02*
X159761904Y-88931009D01*
X159761904Y-88931009D02*
X159666666Y-88978628D01*
X159666666Y-88978628D02*
X159285714Y-88978628D01*
X160809523Y-89454819D02*
X160238095Y-89454819D01*
X160523809Y-89454819D02*
X160523809Y-88454819D01*
X160523809Y-88454819D02*
X160428571Y-88597676D01*
X160428571Y-88597676D02*
X160333333Y-88692914D01*
X160333333Y-88692914D02*
X160238095Y-88740533D01*
X161190476Y-88550057D02*
X161238095Y-88502438D01*
X161238095Y-88502438D02*
X161333333Y-88454819D01*
X161333333Y-88454819D02*
X161571428Y-88454819D01*
X161571428Y-88454819D02*
X161666666Y-88502438D01*
X161666666Y-88502438D02*
X161714285Y-88550057D01*
X161714285Y-88550057D02*
X161761904Y-88645295D01*
X161761904Y-88645295D02*
X161761904Y-88740533D01*
X161761904Y-88740533D02*
X161714285Y-88883390D01*
X161714285Y-88883390D02*
X161142857Y-89454819D01*
X161142857Y-89454819D02*
X161761904Y-89454819D01*
X107033333Y-94659580D02*
X106985714Y-94707200D01*
X106985714Y-94707200D02*
X106842857Y-94754819D01*
X106842857Y-94754819D02*
X106747619Y-94754819D01*
X106747619Y-94754819D02*
X106604762Y-94707200D01*
X106604762Y-94707200D02*
X106509524Y-94611961D01*
X106509524Y-94611961D02*
X106461905Y-94516723D01*
X106461905Y-94516723D02*
X106414286Y-94326247D01*
X106414286Y-94326247D02*
X106414286Y-94183390D01*
X106414286Y-94183390D02*
X106461905Y-93992914D01*
X106461905Y-93992914D02*
X106509524Y-93897676D01*
X106509524Y-93897676D02*
X106604762Y-93802438D01*
X106604762Y-93802438D02*
X106747619Y-93754819D01*
X106747619Y-93754819D02*
X106842857Y-93754819D01*
X106842857Y-93754819D02*
X106985714Y-93802438D01*
X106985714Y-93802438D02*
X107033333Y-93850057D01*
X107414286Y-93850057D02*
X107461905Y-93802438D01*
X107461905Y-93802438D02*
X107557143Y-93754819D01*
X107557143Y-93754819D02*
X107795238Y-93754819D01*
X107795238Y-93754819D02*
X107890476Y-93802438D01*
X107890476Y-93802438D02*
X107938095Y-93850057D01*
X107938095Y-93850057D02*
X107985714Y-93945295D01*
X107985714Y-93945295D02*
X107985714Y-94040533D01*
X107985714Y-94040533D02*
X107938095Y-94183390D01*
X107938095Y-94183390D02*
X107366667Y-94754819D01*
X107366667Y-94754819D02*
X107985714Y-94754819D01*
X119358333Y-77859580D02*
X119310714Y-77907200D01*
X119310714Y-77907200D02*
X119167857Y-77954819D01*
X119167857Y-77954819D02*
X119072619Y-77954819D01*
X119072619Y-77954819D02*
X118929762Y-77907200D01*
X118929762Y-77907200D02*
X118834524Y-77811961D01*
X118834524Y-77811961D02*
X118786905Y-77716723D01*
X118786905Y-77716723D02*
X118739286Y-77526247D01*
X118739286Y-77526247D02*
X118739286Y-77383390D01*
X118739286Y-77383390D02*
X118786905Y-77192914D01*
X118786905Y-77192914D02*
X118834524Y-77097676D01*
X118834524Y-77097676D02*
X118929762Y-77002438D01*
X118929762Y-77002438D02*
X119072619Y-76954819D01*
X119072619Y-76954819D02*
X119167857Y-76954819D01*
X119167857Y-76954819D02*
X119310714Y-77002438D01*
X119310714Y-77002438D02*
X119358333Y-77050057D01*
X120215476Y-76954819D02*
X120025000Y-76954819D01*
X120025000Y-76954819D02*
X119929762Y-77002438D01*
X119929762Y-77002438D02*
X119882143Y-77050057D01*
X119882143Y-77050057D02*
X119786905Y-77192914D01*
X119786905Y-77192914D02*
X119739286Y-77383390D01*
X119739286Y-77383390D02*
X119739286Y-77764342D01*
X119739286Y-77764342D02*
X119786905Y-77859580D01*
X119786905Y-77859580D02*
X119834524Y-77907200D01*
X119834524Y-77907200D02*
X119929762Y-77954819D01*
X119929762Y-77954819D02*
X120120238Y-77954819D01*
X120120238Y-77954819D02*
X120215476Y-77907200D01*
X120215476Y-77907200D02*
X120263095Y-77859580D01*
X120263095Y-77859580D02*
X120310714Y-77764342D01*
X120310714Y-77764342D02*
X120310714Y-77526247D01*
X120310714Y-77526247D02*
X120263095Y-77431009D01*
X120263095Y-77431009D02*
X120215476Y-77383390D01*
X120215476Y-77383390D02*
X120120238Y-77335771D01*
X120120238Y-77335771D02*
X119929762Y-77335771D01*
X119929762Y-77335771D02*
X119834524Y-77383390D01*
X119834524Y-77383390D02*
X119786905Y-77431009D01*
X119786905Y-77431009D02*
X119739286Y-77526247D01*
X138833333Y-94259580D02*
X138785714Y-94307200D01*
X138785714Y-94307200D02*
X138642857Y-94354819D01*
X138642857Y-94354819D02*
X138547619Y-94354819D01*
X138547619Y-94354819D02*
X138404762Y-94307200D01*
X138404762Y-94307200D02*
X138309524Y-94211961D01*
X138309524Y-94211961D02*
X138261905Y-94116723D01*
X138261905Y-94116723D02*
X138214286Y-93926247D01*
X138214286Y-93926247D02*
X138214286Y-93783390D01*
X138214286Y-93783390D02*
X138261905Y-93592914D01*
X138261905Y-93592914D02*
X138309524Y-93497676D01*
X138309524Y-93497676D02*
X138404762Y-93402438D01*
X138404762Y-93402438D02*
X138547619Y-93354819D01*
X138547619Y-93354819D02*
X138642857Y-93354819D01*
X138642857Y-93354819D02*
X138785714Y-93402438D01*
X138785714Y-93402438D02*
X138833333Y-93450057D01*
X139309524Y-94354819D02*
X139500000Y-94354819D01*
X139500000Y-94354819D02*
X139595238Y-94307200D01*
X139595238Y-94307200D02*
X139642857Y-94259580D01*
X139642857Y-94259580D02*
X139738095Y-94116723D01*
X139738095Y-94116723D02*
X139785714Y-93926247D01*
X139785714Y-93926247D02*
X139785714Y-93545295D01*
X139785714Y-93545295D02*
X139738095Y-93450057D01*
X139738095Y-93450057D02*
X139690476Y-93402438D01*
X139690476Y-93402438D02*
X139595238Y-93354819D01*
X139595238Y-93354819D02*
X139404762Y-93354819D01*
X139404762Y-93354819D02*
X139309524Y-93402438D01*
X139309524Y-93402438D02*
X139261905Y-93450057D01*
X139261905Y-93450057D02*
X139214286Y-93545295D01*
X139214286Y-93545295D02*
X139214286Y-93783390D01*
X139214286Y-93783390D02*
X139261905Y-93878628D01*
X139261905Y-93878628D02*
X139309524Y-93926247D01*
X139309524Y-93926247D02*
X139404762Y-93973866D01*
X139404762Y-93973866D02*
X139595238Y-93973866D01*
X139595238Y-93973866D02*
X139690476Y-93926247D01*
X139690476Y-93926247D02*
X139738095Y-93878628D01*
X139738095Y-93878628D02*
X139785714Y-93783390D01*
X121954819Y-100666666D02*
X121478628Y-100999999D01*
X121954819Y-101238094D02*
X120954819Y-101238094D01*
X120954819Y-101238094D02*
X120954819Y-100857142D01*
X120954819Y-100857142D02*
X121002438Y-100761904D01*
X121002438Y-100761904D02*
X121050057Y-100714285D01*
X121050057Y-100714285D02*
X121145295Y-100666666D01*
X121145295Y-100666666D02*
X121288152Y-100666666D01*
X121288152Y-100666666D02*
X121383390Y-100714285D01*
X121383390Y-100714285D02*
X121431009Y-100761904D01*
X121431009Y-100761904D02*
X121478628Y-100857142D01*
X121478628Y-100857142D02*
X121478628Y-101238094D01*
X120954819Y-99761904D02*
X120954819Y-100238094D01*
X120954819Y-100238094D02*
X121431009Y-100285713D01*
X121431009Y-100285713D02*
X121383390Y-100238094D01*
X121383390Y-100238094D02*
X121335771Y-100142856D01*
X121335771Y-100142856D02*
X121335771Y-99904761D01*
X121335771Y-99904761D02*
X121383390Y-99809523D01*
X121383390Y-99809523D02*
X121431009Y-99761904D01*
X121431009Y-99761904D02*
X121526247Y-99714285D01*
X121526247Y-99714285D02*
X121764342Y-99714285D01*
X121764342Y-99714285D02*
X121859580Y-99761904D01*
X121859580Y-99761904D02*
X121907200Y-99809523D01*
X121907200Y-99809523D02*
X121954819Y-99904761D01*
X121954819Y-99904761D02*
X121954819Y-100142856D01*
X121954819Y-100142856D02*
X121907200Y-100238094D01*
X121907200Y-100238094D02*
X121859580Y-100285713D01*
X120379819Y-88154166D02*
X119903628Y-88487499D01*
X120379819Y-88725594D02*
X119379819Y-88725594D01*
X119379819Y-88725594D02*
X119379819Y-88344642D01*
X119379819Y-88344642D02*
X119427438Y-88249404D01*
X119427438Y-88249404D02*
X119475057Y-88201785D01*
X119475057Y-88201785D02*
X119570295Y-88154166D01*
X119570295Y-88154166D02*
X119713152Y-88154166D01*
X119713152Y-88154166D02*
X119808390Y-88201785D01*
X119808390Y-88201785D02*
X119856009Y-88249404D01*
X119856009Y-88249404D02*
X119903628Y-88344642D01*
X119903628Y-88344642D02*
X119903628Y-88725594D01*
X119713152Y-87297023D02*
X120379819Y-87297023D01*
X119332200Y-87535118D02*
X120046485Y-87773213D01*
X120046485Y-87773213D02*
X120046485Y-87154166D01*
X155857142Y-87454819D02*
X155523809Y-86978628D01*
X155285714Y-87454819D02*
X155285714Y-86454819D01*
X155285714Y-86454819D02*
X155666666Y-86454819D01*
X155666666Y-86454819D02*
X155761904Y-86502438D01*
X155761904Y-86502438D02*
X155809523Y-86550057D01*
X155809523Y-86550057D02*
X155857142Y-86645295D01*
X155857142Y-86645295D02*
X155857142Y-86788152D01*
X155857142Y-86788152D02*
X155809523Y-86883390D01*
X155809523Y-86883390D02*
X155761904Y-86931009D01*
X155761904Y-86931009D02*
X155666666Y-86978628D01*
X155666666Y-86978628D02*
X155285714Y-86978628D01*
X156809523Y-87454819D02*
X156238095Y-87454819D01*
X156523809Y-87454819D02*
X156523809Y-86454819D01*
X156523809Y-86454819D02*
X156428571Y-86597676D01*
X156428571Y-86597676D02*
X156333333Y-86692914D01*
X156333333Y-86692914D02*
X156238095Y-86740533D01*
X157714285Y-86454819D02*
X157238095Y-86454819D01*
X157238095Y-86454819D02*
X157190476Y-86931009D01*
X157190476Y-86931009D02*
X157238095Y-86883390D01*
X157238095Y-86883390D02*
X157333333Y-86835771D01*
X157333333Y-86835771D02*
X157571428Y-86835771D01*
X157571428Y-86835771D02*
X157666666Y-86883390D01*
X157666666Y-86883390D02*
X157714285Y-86931009D01*
X157714285Y-86931009D02*
X157761904Y-87026247D01*
X157761904Y-87026247D02*
X157761904Y-87264342D01*
X157761904Y-87264342D02*
X157714285Y-87359580D01*
X157714285Y-87359580D02*
X157666666Y-87407200D01*
X157666666Y-87407200D02*
X157571428Y-87454819D01*
X157571428Y-87454819D02*
X157333333Y-87454819D01*
X157333333Y-87454819D02*
X157238095Y-87407200D01*
X157238095Y-87407200D02*
X157190476Y-87359580D01*
X127492261Y-86050057D02*
X127397023Y-86002438D01*
X127397023Y-86002438D02*
X127301785Y-85907200D01*
X127301785Y-85907200D02*
X127158928Y-85764342D01*
X127158928Y-85764342D02*
X127063690Y-85716723D01*
X127063690Y-85716723D02*
X126968452Y-85716723D01*
X127016071Y-85954819D02*
X126920833Y-85907200D01*
X126920833Y-85907200D02*
X126825595Y-85811961D01*
X126825595Y-85811961D02*
X126777976Y-85621485D01*
X126777976Y-85621485D02*
X126777976Y-85288152D01*
X126777976Y-85288152D02*
X126825595Y-85097676D01*
X126825595Y-85097676D02*
X126920833Y-85002438D01*
X126920833Y-85002438D02*
X127016071Y-84954819D01*
X127016071Y-84954819D02*
X127206547Y-84954819D01*
X127206547Y-84954819D02*
X127301785Y-85002438D01*
X127301785Y-85002438D02*
X127397023Y-85097676D01*
X127397023Y-85097676D02*
X127444642Y-85288152D01*
X127444642Y-85288152D02*
X127444642Y-85621485D01*
X127444642Y-85621485D02*
X127397023Y-85811961D01*
X127397023Y-85811961D02*
X127301785Y-85907200D01*
X127301785Y-85907200D02*
X127206547Y-85954819D01*
X127206547Y-85954819D02*
X127016071Y-85954819D01*
X127777976Y-84954819D02*
X128397023Y-84954819D01*
X128397023Y-84954819D02*
X128063690Y-85335771D01*
X128063690Y-85335771D02*
X128206547Y-85335771D01*
X128206547Y-85335771D02*
X128301785Y-85383390D01*
X128301785Y-85383390D02*
X128349404Y-85431009D01*
X128349404Y-85431009D02*
X128397023Y-85526247D01*
X128397023Y-85526247D02*
X128397023Y-85764342D01*
X128397023Y-85764342D02*
X128349404Y-85859580D01*
X128349404Y-85859580D02*
X128301785Y-85907200D01*
X128301785Y-85907200D02*
X128206547Y-85954819D01*
X128206547Y-85954819D02*
X127920833Y-85954819D01*
X127920833Y-85954819D02*
X127825595Y-85907200D01*
X127825595Y-85907200D02*
X127777976Y-85859580D01*
X163001009Y-97620833D02*
X163001009Y-97954166D01*
X163524819Y-97954166D02*
X162524819Y-97954166D01*
X162524819Y-97954166D02*
X162524819Y-97477976D01*
X163001009Y-96763690D02*
X163048628Y-96620833D01*
X163048628Y-96620833D02*
X163096247Y-96573214D01*
X163096247Y-96573214D02*
X163191485Y-96525595D01*
X163191485Y-96525595D02*
X163334342Y-96525595D01*
X163334342Y-96525595D02*
X163429580Y-96573214D01*
X163429580Y-96573214D02*
X163477200Y-96620833D01*
X163477200Y-96620833D02*
X163524819Y-96716071D01*
X163524819Y-96716071D02*
X163524819Y-97097023D01*
X163524819Y-97097023D02*
X162524819Y-97097023D01*
X162524819Y-97097023D02*
X162524819Y-96763690D01*
X162524819Y-96763690D02*
X162572438Y-96668452D01*
X162572438Y-96668452D02*
X162620057Y-96620833D01*
X162620057Y-96620833D02*
X162715295Y-96573214D01*
X162715295Y-96573214D02*
X162810533Y-96573214D01*
X162810533Y-96573214D02*
X162905771Y-96620833D01*
X162905771Y-96620833D02*
X162953390Y-96668452D01*
X162953390Y-96668452D02*
X163001009Y-96763690D01*
X163001009Y-96763690D02*
X163001009Y-97097023D01*
X162620057Y-96144642D02*
X162572438Y-96097023D01*
X162572438Y-96097023D02*
X162524819Y-96001785D01*
X162524819Y-96001785D02*
X162524819Y-95763690D01*
X162524819Y-95763690D02*
X162572438Y-95668452D01*
X162572438Y-95668452D02*
X162620057Y-95620833D01*
X162620057Y-95620833D02*
X162715295Y-95573214D01*
X162715295Y-95573214D02*
X162810533Y-95573214D01*
X162810533Y-95573214D02*
X162953390Y-95620833D01*
X162953390Y-95620833D02*
X163524819Y-96192261D01*
X163524819Y-96192261D02*
X163524819Y-95573214D01*
X163690476Y-99454819D02*
X163690476Y-98454819D01*
X163690476Y-98454819D02*
X164023809Y-99169104D01*
X164023809Y-99169104D02*
X164357142Y-98454819D01*
X164357142Y-98454819D02*
X164357142Y-99454819D01*
X164738095Y-98454819D02*
X165357142Y-98454819D01*
X165357142Y-98454819D02*
X165023809Y-98835771D01*
X165023809Y-98835771D02*
X165166666Y-98835771D01*
X165166666Y-98835771D02*
X165261904Y-98883390D01*
X165261904Y-98883390D02*
X165309523Y-98931009D01*
X165309523Y-98931009D02*
X165357142Y-99026247D01*
X165357142Y-99026247D02*
X165357142Y-99264342D01*
X165357142Y-99264342D02*
X165309523Y-99359580D01*
X165309523Y-99359580D02*
X165261904Y-99407200D01*
X165261904Y-99407200D02*
X165166666Y-99454819D01*
X165166666Y-99454819D02*
X164880952Y-99454819D01*
X164880952Y-99454819D02*
X164785714Y-99407200D01*
X164785714Y-99407200D02*
X164738095Y-99359580D01*
X122079819Y-83705357D02*
X121603628Y-84038690D01*
X122079819Y-84276785D02*
X121079819Y-84276785D01*
X121079819Y-84276785D02*
X121079819Y-83895833D01*
X121079819Y-83895833D02*
X121127438Y-83800595D01*
X121127438Y-83800595D02*
X121175057Y-83752976D01*
X121175057Y-83752976D02*
X121270295Y-83705357D01*
X121270295Y-83705357D02*
X121413152Y-83705357D01*
X121413152Y-83705357D02*
X121508390Y-83752976D01*
X121508390Y-83752976D02*
X121556009Y-83800595D01*
X121556009Y-83800595D02*
X121603628Y-83895833D01*
X121603628Y-83895833D02*
X121603628Y-84276785D01*
X122079819Y-82752976D02*
X122079819Y-83324404D01*
X122079819Y-83038690D02*
X121079819Y-83038690D01*
X121079819Y-83038690D02*
X121222676Y-83133928D01*
X121222676Y-83133928D02*
X121317914Y-83229166D01*
X121317914Y-83229166D02*
X121365533Y-83324404D01*
X121079819Y-82133928D02*
X121079819Y-82038690D01*
X121079819Y-82038690D02*
X121127438Y-81943452D01*
X121127438Y-81943452D02*
X121175057Y-81895833D01*
X121175057Y-81895833D02*
X121270295Y-81848214D01*
X121270295Y-81848214D02*
X121460771Y-81800595D01*
X121460771Y-81800595D02*
X121698866Y-81800595D01*
X121698866Y-81800595D02*
X121889342Y-81848214D01*
X121889342Y-81848214D02*
X121984580Y-81895833D01*
X121984580Y-81895833D02*
X122032200Y-81943452D01*
X122032200Y-81943452D02*
X122079819Y-82038690D01*
X122079819Y-82038690D02*
X122079819Y-82133928D01*
X122079819Y-82133928D02*
X122032200Y-82229166D01*
X122032200Y-82229166D02*
X121984580Y-82276785D01*
X121984580Y-82276785D02*
X121889342Y-82324404D01*
X121889342Y-82324404D02*
X121698866Y-82372023D01*
X121698866Y-82372023D02*
X121460771Y-82372023D01*
X121460771Y-82372023D02*
X121270295Y-82324404D01*
X121270295Y-82324404D02*
X121175057Y-82276785D01*
X121175057Y-82276785D02*
X121127438Y-82229166D01*
X121127438Y-82229166D02*
X121079819Y-82133928D01*
X159931009Y-99333333D02*
X159931009Y-99666666D01*
X160454819Y-99666666D02*
X159454819Y-99666666D01*
X159454819Y-99666666D02*
X159454819Y-99190476D01*
X160454819Y-98285714D02*
X160454819Y-98857142D01*
X160454819Y-98571428D02*
X159454819Y-98571428D01*
X159454819Y-98571428D02*
X159597676Y-98666666D01*
X159597676Y-98666666D02*
X159692914Y-98761904D01*
X159692914Y-98761904D02*
X159740533Y-98857142D01*
X160474405Y-81454819D02*
X160474405Y-80454819D01*
X160474405Y-80454819D02*
X160712500Y-80454819D01*
X160712500Y-80454819D02*
X160855357Y-80502438D01*
X160855357Y-80502438D02*
X160950595Y-80597676D01*
X160950595Y-80597676D02*
X160998214Y-80692914D01*
X160998214Y-80692914D02*
X161045833Y-80883390D01*
X161045833Y-80883390D02*
X161045833Y-81026247D01*
X161045833Y-81026247D02*
X160998214Y-81216723D01*
X160998214Y-81216723D02*
X160950595Y-81311961D01*
X160950595Y-81311961D02*
X160855357Y-81407200D01*
X160855357Y-81407200D02*
X160712500Y-81454819D01*
X160712500Y-81454819D02*
X160474405Y-81454819D01*
X161998214Y-81454819D02*
X161426786Y-81454819D01*
X161712500Y-81454819D02*
X161712500Y-80454819D01*
X161712500Y-80454819D02*
X161617262Y-80597676D01*
X161617262Y-80597676D02*
X161522024Y-80692914D01*
X161522024Y-80692914D02*
X161426786Y-80740533D01*
X127833333Y-96159580D02*
X127785714Y-96207200D01*
X127785714Y-96207200D02*
X127642857Y-96254819D01*
X127642857Y-96254819D02*
X127547619Y-96254819D01*
X127547619Y-96254819D02*
X127404762Y-96207200D01*
X127404762Y-96207200D02*
X127309524Y-96111961D01*
X127309524Y-96111961D02*
X127261905Y-96016723D01*
X127261905Y-96016723D02*
X127214286Y-95826247D01*
X127214286Y-95826247D02*
X127214286Y-95683390D01*
X127214286Y-95683390D02*
X127261905Y-95492914D01*
X127261905Y-95492914D02*
X127309524Y-95397676D01*
X127309524Y-95397676D02*
X127404762Y-95302438D01*
X127404762Y-95302438D02*
X127547619Y-95254819D01*
X127547619Y-95254819D02*
X127642857Y-95254819D01*
X127642857Y-95254819D02*
X127785714Y-95302438D01*
X127785714Y-95302438D02*
X127833333Y-95350057D01*
X128690476Y-95588152D02*
X128690476Y-96254819D01*
X128452381Y-95207200D02*
X128214286Y-95921485D01*
X128214286Y-95921485D02*
X128833333Y-95921485D01*
X152666666Y-77454819D02*
X152666666Y-78169104D01*
X152666666Y-78169104D02*
X152619047Y-78311961D01*
X152619047Y-78311961D02*
X152523809Y-78407200D01*
X152523809Y-78407200D02*
X152380952Y-78454819D01*
X152380952Y-78454819D02*
X152285714Y-78454819D01*
X153666666Y-78454819D02*
X153095238Y-78454819D01*
X153380952Y-78454819D02*
X153380952Y-77454819D01*
X153380952Y-77454819D02*
X153285714Y-77597676D01*
X153285714Y-77597676D02*
X153190476Y-77692914D01*
X153190476Y-77692914D02*
X153095238Y-77740533D01*
X127492261Y-81050057D02*
X127397023Y-81002438D01*
X127397023Y-81002438D02*
X127301785Y-80907200D01*
X127301785Y-80907200D02*
X127158928Y-80764342D01*
X127158928Y-80764342D02*
X127063690Y-80716723D01*
X127063690Y-80716723D02*
X126968452Y-80716723D01*
X127016071Y-80954819D02*
X126920833Y-80907200D01*
X126920833Y-80907200D02*
X126825595Y-80811961D01*
X126825595Y-80811961D02*
X126777976Y-80621485D01*
X126777976Y-80621485D02*
X126777976Y-80288152D01*
X126777976Y-80288152D02*
X126825595Y-80097676D01*
X126825595Y-80097676D02*
X126920833Y-80002438D01*
X126920833Y-80002438D02*
X127016071Y-79954819D01*
X127016071Y-79954819D02*
X127206547Y-79954819D01*
X127206547Y-79954819D02*
X127301785Y-80002438D01*
X127301785Y-80002438D02*
X127397023Y-80097676D01*
X127397023Y-80097676D02*
X127444642Y-80288152D01*
X127444642Y-80288152D02*
X127444642Y-80621485D01*
X127444642Y-80621485D02*
X127397023Y-80811961D01*
X127397023Y-80811961D02*
X127301785Y-80907200D01*
X127301785Y-80907200D02*
X127206547Y-80954819D01*
X127206547Y-80954819D02*
X127016071Y-80954819D01*
X128301785Y-80288152D02*
X128301785Y-80954819D01*
X128063690Y-79907200D02*
X127825595Y-80621485D01*
X127825595Y-80621485D02*
X128444642Y-80621485D01*
X157359580Y-100142857D02*
X157407200Y-100190476D01*
X157407200Y-100190476D02*
X157454819Y-100333333D01*
X157454819Y-100333333D02*
X157454819Y-100428571D01*
X157454819Y-100428571D02*
X157407200Y-100571428D01*
X157407200Y-100571428D02*
X157311961Y-100666666D01*
X157311961Y-100666666D02*
X157216723Y-100714285D01*
X157216723Y-100714285D02*
X157026247Y-100761904D01*
X157026247Y-100761904D02*
X156883390Y-100761904D01*
X156883390Y-100761904D02*
X156692914Y-100714285D01*
X156692914Y-100714285D02*
X156597676Y-100666666D01*
X156597676Y-100666666D02*
X156502438Y-100571428D01*
X156502438Y-100571428D02*
X156454819Y-100428571D01*
X156454819Y-100428571D02*
X156454819Y-100333333D01*
X156454819Y-100333333D02*
X156502438Y-100190476D01*
X156502438Y-100190476D02*
X156550057Y-100142857D01*
X157454819Y-99190476D02*
X157454819Y-99761904D01*
X157454819Y-99476190D02*
X156454819Y-99476190D01*
X156454819Y-99476190D02*
X156597676Y-99571428D01*
X156597676Y-99571428D02*
X156692914Y-99666666D01*
X156692914Y-99666666D02*
X156740533Y-99761904D01*
X156788152Y-98333333D02*
X157454819Y-98333333D01*
X156407200Y-98571428D02*
X157121485Y-98809523D01*
X157121485Y-98809523D02*
X157121485Y-98190476D01*
X153539580Y-100192857D02*
X153587200Y-100240476D01*
X153587200Y-100240476D02*
X153634819Y-100383333D01*
X153634819Y-100383333D02*
X153634819Y-100478571D01*
X153634819Y-100478571D02*
X153587200Y-100621428D01*
X153587200Y-100621428D02*
X153491961Y-100716666D01*
X153491961Y-100716666D02*
X153396723Y-100764285D01*
X153396723Y-100764285D02*
X153206247Y-100811904D01*
X153206247Y-100811904D02*
X153063390Y-100811904D01*
X153063390Y-100811904D02*
X152872914Y-100764285D01*
X152872914Y-100764285D02*
X152777676Y-100716666D01*
X152777676Y-100716666D02*
X152682438Y-100621428D01*
X152682438Y-100621428D02*
X152634819Y-100478571D01*
X152634819Y-100478571D02*
X152634819Y-100383333D01*
X152634819Y-100383333D02*
X152682438Y-100240476D01*
X152682438Y-100240476D02*
X152730057Y-100192857D01*
X153634819Y-99240476D02*
X153634819Y-99811904D01*
X153634819Y-99526190D02*
X152634819Y-99526190D01*
X152634819Y-99526190D02*
X152777676Y-99621428D01*
X152777676Y-99621428D02*
X152872914Y-99716666D01*
X152872914Y-99716666D02*
X152920533Y-99811904D01*
X152634819Y-98907142D02*
X152634819Y-98288095D01*
X152634819Y-98288095D02*
X153015771Y-98621428D01*
X153015771Y-98621428D02*
X153015771Y-98478571D01*
X153015771Y-98478571D02*
X153063390Y-98383333D01*
X153063390Y-98383333D02*
X153111009Y-98335714D01*
X153111009Y-98335714D02*
X153206247Y-98288095D01*
X153206247Y-98288095D02*
X153444342Y-98288095D01*
X153444342Y-98288095D02*
X153539580Y-98335714D01*
X153539580Y-98335714D02*
X153587200Y-98383333D01*
X153587200Y-98383333D02*
X153634819Y-98478571D01*
X153634819Y-98478571D02*
X153634819Y-98764285D01*
X153634819Y-98764285D02*
X153587200Y-98859523D01*
X153587200Y-98859523D02*
X153539580Y-98907142D01*
X139804819Y-86205357D02*
X139328628Y-86538690D01*
X139804819Y-86776785D02*
X138804819Y-86776785D01*
X138804819Y-86776785D02*
X138804819Y-86395833D01*
X138804819Y-86395833D02*
X138852438Y-86300595D01*
X138852438Y-86300595D02*
X138900057Y-86252976D01*
X138900057Y-86252976D02*
X138995295Y-86205357D01*
X138995295Y-86205357D02*
X139138152Y-86205357D01*
X139138152Y-86205357D02*
X139233390Y-86252976D01*
X139233390Y-86252976D02*
X139281009Y-86300595D01*
X139281009Y-86300595D02*
X139328628Y-86395833D01*
X139328628Y-86395833D02*
X139328628Y-86776785D01*
X139804819Y-85252976D02*
X139804819Y-85824404D01*
X139804819Y-85538690D02*
X138804819Y-85538690D01*
X138804819Y-85538690D02*
X138947676Y-85633928D01*
X138947676Y-85633928D02*
X139042914Y-85729166D01*
X139042914Y-85729166D02*
X139090533Y-85824404D01*
X138804819Y-84919642D02*
X138804819Y-84252976D01*
X138804819Y-84252976D02*
X139804819Y-84681547D01*
D12*
%TO.C,C3*%
X112540000Y-95240000D02*
X112540000Y-96940000D01*
X112540000Y-100760000D02*
X112540000Y-99060000D01*
X116995563Y-95240000D02*
X112540000Y-95240000D01*
X116995563Y-100760000D02*
X112540000Y-100760000D01*
X118060000Y-96304437D02*
X116995563Y-95240000D01*
X118060000Y-96304437D02*
X118060000Y-96940000D01*
X118060000Y-99695563D02*
X116995563Y-100760000D01*
X118060000Y-99695563D02*
X118060000Y-99060000D01*
X118612500Y-99997500D02*
X118612500Y-99372500D01*
X118925000Y-99685000D02*
X118300000Y-99685000D01*
%TO.C,Q2*%
X113765000Y-83712500D02*
X113765000Y-83062500D01*
X113765000Y-83712500D02*
X113765000Y-84362500D01*
X116885000Y-83712500D02*
X116885000Y-83062500D01*
X116885000Y-83712500D02*
X116885000Y-84362500D01*
X113815000Y-84875000D02*
X113485000Y-85115000D01*
X113485000Y-84635000D01*
X113815000Y-84875000D01*
G36*
X113815000Y-84875000D02*
G01*
X113485000Y-85115000D01*
X113485000Y-84635000D01*
X113815000Y-84875000D01*
G37*
%TO.C,R6*%
X123765000Y-97639564D02*
X123765000Y-97185436D01*
X125235000Y-97639564D02*
X125235000Y-97185436D01*
%TO.C,R8*%
X136814564Y-98765000D02*
X136360436Y-98765000D01*
X136814564Y-100235000D02*
X136360436Y-100235000D01*
%TO.C,C5*%
X105940000Y-76740000D02*
X105940000Y-78440000D01*
X105940000Y-82260000D02*
X105940000Y-80560000D01*
X110395563Y-76740000D02*
X105940000Y-76740000D01*
X110395563Y-82260000D02*
X105940000Y-82260000D01*
X111460000Y-77804437D02*
X110395563Y-76740000D01*
X111460000Y-77804437D02*
X111460000Y-78440000D01*
X111460000Y-81195563D02*
X110395563Y-82260000D01*
X111460000Y-81195563D02*
X111460000Y-80560000D01*
X112012500Y-81497500D02*
X112012500Y-80872500D01*
X112325000Y-81185000D02*
X111700000Y-81185000D01*
%TO.C,R13*%
X153765000Y-91639564D02*
X153765000Y-91185436D01*
X155235000Y-91639564D02*
X155235000Y-91185436D01*
D13*
%TO.C,U1*%
X142095658Y-91156319D02*
X142095658Y-91580583D01*
X142095658Y-91580583D02*
X146338299Y-95823224D01*
X146338299Y-86913678D02*
X142095658Y-91156319D01*
X146338299Y-95823224D02*
X146762563Y-95823224D01*
X146762563Y-86913678D02*
X146338299Y-86913678D01*
X146762563Y-95823224D02*
X151005204Y-91580583D01*
X151005204Y-91156319D02*
X146762563Y-86913678D01*
X151005204Y-91580583D02*
X151005204Y-91156319D01*
X150583352Y-91333096D02*
G75*
G02*
X150083552Y-91333096I-249900J0D01*
G01*
X150083552Y-91333096D02*
G75*
G02*
X150583352Y-91333096I249900J0D01*
G01*
D12*
%TO.C,R3*%
X115589564Y-78765000D02*
X115135436Y-78765000D01*
X115589564Y-80235000D02*
X115135436Y-80235000D01*
%TO.C,C12*%
X140765000Y-98711252D02*
X140765000Y-98188748D01*
X142235000Y-98711252D02*
X142235000Y-98188748D01*
%TO.C,R2*%
X115135436Y-91665000D02*
X115589564Y-91665000D01*
X115135436Y-93135000D02*
X115589564Y-93135000D01*
%TO.C,U2*%
X132660000Y-77669999D02*
X132660000Y-82870001D01*
X132660000Y-82870001D02*
X137960000Y-82870001D01*
X134310000Y-77670000D02*
X132660000Y-77669999D01*
X137960000Y-77669999D02*
X136310000Y-77670000D01*
X137960000Y-82870001D02*
X137960000Y-77669999D01*
X136310000Y-77670000D02*
G75*
G02*
X134310000Y-77670000I-1000000J0D01*
G01*
X140450000Y-82930000D02*
X130170000Y-82930000D01*
X130170000Y-77610000D01*
X140450000Y-77610000D01*
X140450000Y-82930000D01*
%TO.C,FB1*%
X160990000Y-95049721D02*
X160990000Y-95375279D01*
X162010000Y-95049721D02*
X162010000Y-95375279D01*
%TO.C,Q5*%
X136050000Y-84377500D02*
X135400000Y-84377500D01*
X136050000Y-84377500D02*
X136700000Y-84377500D01*
X136050000Y-87497500D02*
X135400000Y-87497500D01*
X136050000Y-87497500D02*
X136700000Y-87497500D01*
X137452500Y-87777500D02*
X136972500Y-87777500D01*
X137212500Y-87447500D01*
X137452500Y-87777500D01*
G36*
X137452500Y-87777500D02*
G01*
X136972500Y-87777500D01*
X137212500Y-87447500D01*
X137452500Y-87777500D01*
G37*
%TO.C,R16*%
X146265000Y-79185436D02*
X146265000Y-79639564D01*
X147735000Y-79185436D02*
X147735000Y-79639564D01*
%TO.C,JP2*%
X156500000Y-92050000D02*
X156500000Y-90650000D01*
X157200000Y-89950000D02*
X157800000Y-89950000D01*
X157800000Y-92750000D02*
X157200000Y-92750000D01*
X158500000Y-90650000D02*
X158500000Y-92050000D01*
X156500000Y-90650000D02*
G75*
G02*
X157200000Y-89950000I699999J1D01*
G01*
X157200000Y-92750000D02*
G75*
G02*
X156500000Y-92050000I0J700000D01*
G01*
X157800000Y-89950000D02*
G75*
G02*
X158500000Y-90650000I1J-699999D01*
G01*
X158500000Y-92050000D02*
G75*
G02*
X157800000Y-92750000I-700000J0D01*
G01*
%TO.C,C1*%
X104875000Y-86815000D02*
X105500000Y-86815000D01*
X105187500Y-86502500D02*
X105187500Y-87127500D01*
X105740000Y-86804437D02*
X105740000Y-87440000D01*
X105740000Y-86804437D02*
X106804437Y-85740000D01*
X105740000Y-90195563D02*
X105740000Y-89560000D01*
X105740000Y-90195563D02*
X106804437Y-91260000D01*
X106804437Y-85740000D02*
X111260000Y-85740000D01*
X106804437Y-91260000D02*
X111260000Y-91260000D01*
X111260000Y-85740000D02*
X111260000Y-87440000D01*
X111260000Y-91260000D02*
X111260000Y-89560000D01*
%TO.C,R1*%
X115040000Y-88127064D02*
X115040000Y-87672936D01*
X116510000Y-88127064D02*
X116510000Y-87672936D01*
%TO.C,R9*%
X123772936Y-77765000D02*
X124227064Y-77765000D01*
X123772936Y-79235000D02*
X124227064Y-79235000D01*
%TO.C,R7*%
X122360436Y-86765000D02*
X122814564Y-86765000D01*
X122360436Y-88235000D02*
X122814564Y-88235000D01*
D14*
%TO.C,J4*%
X89000000Y-86000000D02*
X95030000Y-86000000D01*
X89000000Y-92000000D02*
X89000000Y-86000000D01*
X93030000Y-92000000D02*
X89000000Y-92000000D01*
X95170000Y-92000000D02*
X100030000Y-92000000D01*
X97170000Y-86000000D02*
X103000000Y-86000000D01*
X103000000Y-86000000D02*
X103000000Y-92000000D01*
X103000000Y-92000000D02*
X102170000Y-92000000D01*
D15*
X94200000Y-95500000D02*
G75*
G02*
X94000000Y-95500000I-100000J0D01*
G01*
X94000000Y-95500000D02*
G75*
G02*
X94200000Y-95500000I100000J0D01*
G01*
D12*
%TO.C,C7*%
X128562500Y-90652500D02*
X129350000Y-90652500D01*
X128956250Y-90258750D02*
X128956250Y-91046250D01*
X129590000Y-90154437D02*
X129590000Y-91440000D01*
X129590000Y-90154437D02*
X130654437Y-89090000D01*
X129590000Y-94845563D02*
X129590000Y-93560000D01*
X129590000Y-94845563D02*
X130654437Y-95910000D01*
X130654437Y-89090000D02*
X136410000Y-89090000D01*
X130654437Y-95910000D02*
X136410000Y-95910000D01*
X136410000Y-89090000D02*
X136410000Y-91440000D01*
X136410000Y-95910000D02*
X136410000Y-93560000D01*
%TO.C,R14*%
X157265000Y-95639564D02*
X157265000Y-95185436D01*
X158735000Y-95639564D02*
X158735000Y-95185436D01*
%TO.C,Q1*%
X122000000Y-89940000D02*
X121350000Y-89940000D01*
X122000000Y-89940000D02*
X122650000Y-89940000D01*
X122000000Y-93060000D02*
X121350000Y-93060000D01*
X122000000Y-93060000D02*
X122650000Y-93060000D01*
X120837500Y-89990000D02*
X120597500Y-89660000D01*
X121077500Y-89660000D01*
X120837500Y-89990000D01*
G36*
X120837500Y-89990000D02*
G01*
X120597500Y-89660000D01*
X121077500Y-89660000D01*
X120837500Y-89990000D01*
G37*
%TO.C,C10*%
X144265000Y-99711252D02*
X144265000Y-99188748D01*
X145735000Y-99711252D02*
X145735000Y-99188748D01*
%TO.C,F2*%
X141990000Y-79624721D02*
X141990000Y-79950279D01*
X143010000Y-79624721D02*
X143010000Y-79950279D01*
%TO.C,J3*%
X163050000Y-91050000D02*
X163050000Y-90350000D01*
X163640000Y-86950000D02*
X163640000Y-85800000D01*
X163640000Y-91050000D02*
X163050000Y-91050000D01*
X163640000Y-92200000D02*
X163640000Y-91050000D01*
X165950000Y-85040000D02*
X168550000Y-85040000D01*
X168550000Y-92960000D02*
X165950000Y-92960000D01*
X171450000Y-92960000D02*
X173110000Y-92960000D01*
X173110000Y-85040000D02*
X171450000Y-85040000D01*
X173110000Y-92960000D02*
X173110000Y-85040000D01*
%TO.C,C11*%
X147265000Y-99288748D02*
X147265000Y-99811252D01*
X148735000Y-99288748D02*
X148735000Y-99811252D01*
%TO.C,R12*%
X159265000Y-91639564D02*
X159265000Y-91185436D01*
X160735000Y-91639564D02*
X160735000Y-91185436D01*
%TO.C,C2*%
X103575000Y-96315000D02*
X104200000Y-96315000D01*
X103887500Y-96002500D02*
X103887500Y-96627500D01*
X104440000Y-96304437D02*
X104440000Y-96940000D01*
X104440000Y-96304437D02*
X105504437Y-95240000D01*
X104440000Y-99695563D02*
X104440000Y-99060000D01*
X104440000Y-99695563D02*
X105504437Y-100760000D01*
X105504437Y-95240000D02*
X109960000Y-95240000D01*
X105504437Y-100760000D02*
X109960000Y-100760000D01*
X109960000Y-95240000D02*
X109960000Y-96940000D01*
X109960000Y-100760000D02*
X109960000Y-99060000D01*
%TO.C,C6*%
X119786252Y-78765000D02*
X119263748Y-78765000D01*
X119786252Y-80235000D02*
X119263748Y-80235000D01*
%TO.C,C9*%
X138265000Y-91188748D02*
X138265000Y-91711252D01*
X139735000Y-91188748D02*
X139735000Y-91711252D01*
%TO.C,R5*%
X120765000Y-97185436D02*
X120765000Y-97639564D01*
X122235000Y-97185436D02*
X122235000Y-97639564D01*
%TO.C,R4*%
X117540000Y-87760436D02*
X117540000Y-88214564D01*
X119010000Y-87760436D02*
X119010000Y-88214564D01*
%TO.C,R15*%
X160227064Y-86265000D02*
X159772936Y-86265000D01*
X160227064Y-87735000D02*
X159772936Y-87735000D01*
%TO.C,Q3*%
X127587500Y-86340000D02*
X126937500Y-86340000D01*
X127587500Y-86340000D02*
X128237500Y-86340000D01*
X127587500Y-89460000D02*
X126937500Y-89460000D01*
X127587500Y-89460000D02*
X128237500Y-89460000D01*
X126425000Y-86390000D02*
X126185000Y-86060000D01*
X126665000Y-86060000D01*
X126425000Y-86390000D01*
G36*
X126425000Y-86390000D02*
G01*
X126185000Y-86060000D01*
X126665000Y-86060000D01*
X126425000Y-86390000D01*
G37*
%TO.C,FB2*%
X163990000Y-96950279D02*
X163990000Y-96624721D01*
X165010000Y-96950279D02*
X165010000Y-96624721D01*
%TO.C,R10*%
X122540000Y-83289564D02*
X122540000Y-82835436D01*
X124010000Y-83289564D02*
X124010000Y-82835436D01*
%TO.C,F1*%
X160990000Y-98837221D02*
X160990000Y-99162779D01*
X162010000Y-98837221D02*
X162010000Y-99162779D01*
%TO.C,D1*%
X159727500Y-78765000D02*
X159727500Y-80235000D01*
X159727500Y-80235000D02*
X162012500Y-80235000D01*
X162012500Y-78765000D02*
X159727500Y-78765000D01*
%TO.C,C4*%
X126675000Y-97815000D02*
X127300000Y-97815000D01*
X126987500Y-97502500D02*
X126987500Y-98127500D01*
X127540000Y-97804437D02*
X127540000Y-98440000D01*
X127540000Y-97804437D02*
X128604437Y-96740000D01*
X127540000Y-101195563D02*
X127540000Y-100560000D01*
X127540000Y-101195563D02*
X128604437Y-102260000D01*
X128604437Y-96740000D02*
X133060000Y-96740000D01*
X128604437Y-102260000D02*
X133060000Y-102260000D01*
X133060000Y-96740000D02*
X133060000Y-98440000D01*
X133060000Y-102260000D02*
X133060000Y-100560000D01*
%TO.C,J1*%
X149015000Y-77140000D02*
X157185000Y-77140000D01*
X149015000Y-77990000D02*
X149015000Y-77140000D01*
X149015000Y-81510000D02*
X149015000Y-82360000D01*
X149015000Y-82360000D02*
X151340000Y-82360000D01*
X151340000Y-82360000D02*
X151340000Y-84750000D01*
X157185000Y-77140000D02*
X157185000Y-77990000D01*
X157185000Y-81510000D02*
X157185000Y-82360000D01*
X157185000Y-82360000D02*
X154860000Y-82360000D01*
%TO.C,Q4*%
X127587500Y-81340000D02*
X126937500Y-81340000D01*
X127587500Y-81340000D02*
X128237500Y-81340000D01*
X127587500Y-84460000D02*
X126937500Y-84460000D01*
X127587500Y-84460000D02*
X128237500Y-84460000D01*
X126425000Y-81390000D02*
X126185000Y-81060000D01*
X126665000Y-81060000D01*
X126425000Y-81390000D01*
G36*
X126425000Y-81390000D02*
G01*
X126185000Y-81060000D01*
X126665000Y-81060000D01*
X126425000Y-81390000D01*
G37*
%TO.C,C14*%
X154765000Y-99761252D02*
X154765000Y-99238748D01*
X156235000Y-99761252D02*
X156235000Y-99238748D01*
%TO.C,C13*%
X150765000Y-99288748D02*
X150765000Y-99811252D01*
X152235000Y-99288748D02*
X152235000Y-99811252D01*
%TO.C,R17*%
X140265000Y-85789564D02*
X140265000Y-85335436D01*
X141735000Y-85789564D02*
X141735000Y-85335436D01*
%TD*%
%LPC*%
%TO.C,JP2*%
G36*
X158250000Y-91200000D02*
G01*
X156750000Y-91200000D01*
X156750000Y-91500000D01*
X158250000Y-91500000D01*
X158250000Y-91200000D01*
G37*
%TD*%
D16*
%TO.C,C3*%
X117500000Y-98000000D03*
X113100000Y-98000000D03*
%TD*%
D17*
%TO.C,Q2*%
X114375000Y-84650000D03*
X116275000Y-84650000D03*
X115325000Y-82775000D03*
%TD*%
D18*
%TO.C,M1*%
X95500000Y-79000000D03*
%TD*%
D19*
%TO.C,R6*%
X124500000Y-98325000D03*
X124500000Y-96500000D03*
%TD*%
D20*
%TO.C,R8*%
X137500000Y-99500000D03*
X135675000Y-99500000D03*
%TD*%
D16*
%TO.C,C5*%
X110900000Y-79500000D03*
X106500000Y-79500000D03*
%TD*%
D19*
%TO.C,R13*%
X154500000Y-92325000D03*
X154500000Y-90500000D03*
%TD*%
D18*
%TO.C,M4*%
X168500000Y-79000000D03*
%TD*%
D21*
%TO.C,U1*%
X151535534Y-90272435D03*
X151181980Y-89918882D03*
X150828427Y-89565329D03*
X150474874Y-89211775D03*
X150121320Y-88858222D03*
X149767767Y-88504669D03*
X149414213Y-88151115D03*
X149060660Y-87797562D03*
X148707107Y-87444008D03*
X148353553Y-87090455D03*
X148000000Y-86736902D03*
X147646447Y-86383348D03*
D22*
X145454415Y-86383348D03*
X145100862Y-86736902D03*
X144747309Y-87090455D03*
X144393755Y-87444008D03*
X144040202Y-87797562D03*
X143686649Y-88151115D03*
X143333095Y-88504669D03*
X142979542Y-88858222D03*
X142625988Y-89211775D03*
X142272435Y-89565329D03*
X141918882Y-89918882D03*
X141565328Y-90272435D03*
D21*
X141565328Y-92464467D03*
X141918882Y-92818020D03*
X142272435Y-93171573D03*
X142625988Y-93525127D03*
X142979542Y-93878680D03*
X143333095Y-94232233D03*
X143686649Y-94585787D03*
X144040202Y-94939340D03*
X144393755Y-95292894D03*
X144747309Y-95646447D03*
X145100862Y-96000000D03*
X145454415Y-96353554D03*
D22*
X147646447Y-96353554D03*
X148000000Y-96000000D03*
X148353553Y-95646447D03*
X148707107Y-95292894D03*
X149060660Y-94939340D03*
X149414213Y-94585787D03*
X149767767Y-94232233D03*
X150121320Y-93878680D03*
X150474874Y-93525127D03*
X150828427Y-93171573D03*
X151181980Y-92818020D03*
X151535534Y-92464467D03*
%TD*%
D20*
%TO.C,R3*%
X116275000Y-79500000D03*
X114450000Y-79500000D03*
%TD*%
D23*
%TO.C,C12*%
X141500000Y-99400000D03*
X141500000Y-97500000D03*
%TD*%
D24*
%TO.C,R2*%
X114450000Y-92400000D03*
X116275000Y-92400000D03*
%TD*%
D25*
%TO.C,U2*%
X131500000Y-79000000D03*
X131500000Y-81540000D03*
X139120000Y-81540000D03*
X139120000Y-79000000D03*
%TD*%
D26*
%TO.C,FB1*%
X161500000Y-94425000D03*
X161500000Y-96000000D03*
%TD*%
D27*
%TO.C,Q5*%
X136987500Y-86887500D03*
X136987500Y-84987500D03*
X135112500Y-85937500D03*
%TD*%
D28*
%TO.C,R16*%
X147000000Y-78500000D03*
X147000000Y-80325000D03*
%TD*%
D29*
%TO.C,JP2*%
X157500000Y-90700000D03*
D30*
X157500000Y-92000000D03*
%TD*%
D18*
%TO.C,M2*%
X95500000Y-99000000D03*
%TD*%
D31*
%TO.C,C1*%
X106300000Y-88500000D03*
X110700000Y-88500000D03*
%TD*%
D19*
%TO.C,R1*%
X115775000Y-88812500D03*
X115775000Y-86987500D03*
%TD*%
D24*
%TO.C,R9*%
X123087500Y-78500000D03*
X124912500Y-78500000D03*
%TD*%
%TO.C,R7*%
X121675000Y-87500000D03*
X123500000Y-87500000D03*
%TD*%
D32*
%TO.C,J4*%
X94000000Y-89000000D03*
X100000000Y-89000000D03*
D33*
X94100000Y-92750000D03*
X96100000Y-85250000D03*
X101100000Y-92750000D03*
%TD*%
D34*
%TO.C,C7*%
X130300000Y-92500000D03*
X135700000Y-92500000D03*
%TD*%
D19*
%TO.C,R14*%
X158000000Y-96325000D03*
X158000000Y-94500000D03*
%TD*%
D35*
%TO.C,Q1*%
X121062500Y-90550000D03*
X121062500Y-92450000D03*
X122937500Y-91500000D03*
%TD*%
D23*
%TO.C,C10*%
X145000000Y-100400000D03*
X145000000Y-98500000D03*
%TD*%
D26*
%TO.C,F2*%
X142500000Y-79000000D03*
X142500000Y-80575000D03*
%TD*%
D36*
%TO.C,J3*%
X167100000Y-91200000D03*
X167100000Y-86800000D03*
D37*
X164500000Y-90600000D03*
X164500000Y-89800000D03*
X164500000Y-89000000D03*
X164500000Y-88200000D03*
X164500000Y-87400000D03*
D38*
X164500000Y-93400000D03*
X170000000Y-93400000D03*
X164500000Y-84600000D03*
X170000000Y-84600000D03*
%TD*%
D39*
%TO.C,C11*%
X148000000Y-98600000D03*
X148000000Y-100500000D03*
%TD*%
D19*
%TO.C,R12*%
X160000000Y-92325000D03*
X160000000Y-90500000D03*
%TD*%
D31*
%TO.C,C2*%
X105000000Y-98000000D03*
X109400000Y-98000000D03*
%TD*%
D40*
%TO.C,C6*%
X120475000Y-79500000D03*
X118575000Y-79500000D03*
%TD*%
D39*
%TO.C,C9*%
X139000000Y-90500000D03*
X139000000Y-92400000D03*
%TD*%
D28*
%TO.C,R5*%
X121500000Y-96500000D03*
X121500000Y-98325000D03*
%TD*%
%TO.C,R4*%
X118275000Y-87075000D03*
X118275000Y-88900000D03*
%TD*%
D20*
%TO.C,R15*%
X160912500Y-87000000D03*
X159087500Y-87000000D03*
%TD*%
D35*
%TO.C,Q3*%
X126650000Y-86950000D03*
X126650000Y-88850000D03*
X128525000Y-87900000D03*
%TD*%
D41*
%TO.C,FB2*%
X164500000Y-97575000D03*
X164500000Y-96000000D03*
%TD*%
D18*
%TO.C,M3*%
X168500000Y-99000000D03*
%TD*%
D19*
%TO.C,R10*%
X123275000Y-83975000D03*
X123275000Y-82150000D03*
%TD*%
D26*
%TO.C,F1*%
X161500000Y-98212500D03*
X161500000Y-99787500D03*
%TD*%
D42*
%TO.C,D1*%
X160425000Y-79500000D03*
X162000000Y-79500000D03*
%TD*%
D31*
%TO.C,C4*%
X128100000Y-99500000D03*
X132500000Y-99500000D03*
%TD*%
D43*
%TO.C,J1*%
X152100000Y-82000000D03*
X154100000Y-82000000D03*
D44*
X149700000Y-79750000D03*
X156500000Y-79750000D03*
%TD*%
D35*
%TO.C,Q4*%
X126650000Y-81950000D03*
X126650000Y-83850000D03*
X128525000Y-82900000D03*
%TD*%
D23*
%TO.C,C14*%
X155500000Y-100450000D03*
X155500000Y-98550000D03*
%TD*%
D39*
%TO.C,C13*%
X151500000Y-98600000D03*
X151500000Y-100500000D03*
%TD*%
D19*
%TO.C,R17*%
X141000000Y-86475000D03*
X141000000Y-84650000D03*
%TD*%
%LPD*%
M02*
